<ttFont>
<head>
    <!-- Most of this table will be recalculated by the compiler -->
    <tableVersion value="1.0"/>
    <fontRevision value="2.0"/>
    <checkSumAdjustment value="0xdd953fa3"/>
    <magicNumber value="0x5f0f3cf5"/>
    <flags value="00000000 00001011"/>
    <unitsPerEm value="1000"/>
    <created value="Mon Apr 15 23:05:27 2019"/>
    <modified value="Sat Feb 29 02:13:10 2020"/>
    <xMin value="-908"/>
    <yMin value="-333"/>
    <xMax value="1418"/>
    <yMax value="993"/>
    <macStyle value="00000000 00000000"/>
    <lowestRecPPEM value="8"/>
    <fontDirectionHint value="2"/>
    <indexToLocFormat value="0"/>
    <glyphDataFormat value="0"/>
  </head>
          <CharString index="0">
            0 21 -7 18 -15 15 -15 15 -18 7 -21 0 -21 0 -18 -7 -16 -15 -14 -15 -8 -18 0 -21 0 -21 8 -18 14 -16 16 -14 18 -8 21 0 rrcurveto
            21 0 18 8 15 14 15 16 7 18 0 21 rrcurveto
            return
          </CharString>
          <CharString index="1">
            0 55 -15 41 -29 27 -30 27 -36 13 -42 0 -41 0 -36 -13 -29 -27 -30 -27 -15 -41 0 -55 0 -55 15 -41 30 -26 29 -28 36 -13 41 0 rrcurveto
            42 0 36 13 30 27 29 27 15 41 0 55 rrcurveto
            return
          </CharString>
          <CharString index="2">
            0 43 -45 8 rlineto
            -7 1 -5 2 -2 2 -2 3 -2 4 -3 7 rrcurveto
            -232 617 -75 0 -233 -632 -58 -12 0 -43 201 0 0 43 -59 5 rlineto
            -3 0 -3 2 -3 4 -4 3 -2 4 0 4 1 1 0 1 0 1 rrcurveto
            66 180 231 0 69 -183 rlineto
            1 -1 0 -1 0 -1 0 -3 -1 -3 -3 -3 -2 -3 -2 -2 -3 0 rrcurveto
            -58 -5 0 -43 rlineto
            return
          </CharString>
          <CharString index="3">
            -195 0 97 262 rlineto
            return
          </CharString>
          <CharString index="4">
            167 -54 vlineto
            -18 -99 rlineto
            0 -3 -2 -4 -4 -5 -4 -5 -4 -2 -4 0 rrcurveto
            -253 275 150 hlineto
            4 0 4 -2 4 -4 4 -5 2 -4 0 -3 rrcurveto
            10 -69 51 0 0 223 -51 0 -10 -69 rlineto
            0 -3 -2 -4 -4 -4 -3 -4 -4 -2 -5 0 rrcurveto
            -150 249 217 hlineto
            5 0 4 -2 4 -4 3 -4 2 -4 0 -5 rrcurveto
            15 -82 60 0 0 149 -486 0 0 -43 52 -4 rlineto
            7 0 6 -2 3 -6 4 -4 2 -5 0 -5 rrcurveto
            -533 vlineto
            0 -5 -2 -4 -4 -5 -3 -5 -6 -2 -7 -1 rrcurveto
            -52 -4 0 -43 rlineto
            return
          </CharString>
          <CharString index="5">
            0 43 -61 4 rlineto
            -7 1 -5 2 -4 5 -3 5 -2 4 0 5 rrcurveto
            533 vlineto
            0 5 2 4 3 5 4 5 5 2 7 0 rrcurveto
            61 4 0 44 -264 0 0 -44 60 -4 rlineto
            7 0 6 -2 3 -5 3 -5 2 -4 0 -5 rrcurveto
            -533 vlineto
            0 -5 -2 -4 -3 -5 -3 -5 -6 -2 -7 -1 rrcurveto
            -60 -4 0 -43 rlineto
            return
          </CharString>
          <CharString index="6">
            43 -214 -43 vlineto
            57 -4 rlineto
            7 0 5 -2 3 -6 4 -4 2 -5 0 -5 rrcurveto
            0 -459 -333 503 0 25 -198 0 0 -43 59 -4 rlineto
            7 0 6 -2 3 -6 4 -4 2 -5 0 -5 rrcurveto
            -533 vlineto
            0 -5 -2 -4 -4 -5 -3 -5 -6 -2 -7 -1 rrcurveto
            -57 -4 0 -43 216 0 0 43 -57 4 rlineto
            -7 1 -6 2 -3 5 -3 5 -2 4 0 5 rrcurveto
            0 491 372 -560 78 0 0 602 rlineto
            0 5 2 5 3 4 3 6 6 2 7 0 rrcurveto
            return
          </CharString>
          <CharString index="7">
            0 49 -8 45 -15 43 -15 42 -22 37 -29 33 -29 32 -34 25 -40 19 -41 18 -45 9 -49 0 -49 0 -45 -9 -41 -18 -40 -18 -34 -25 -29 -33 rrcurveto
            -29 -32 -22 -37 -14 -43 -16 -42 -7 -45 0 -49 0 -67 14 -61 27 -52 27 -54 39 -41 48 -31 50 -31 57 -15 65 0 49 0 44 9 41 19 rrcurveto
            40 18 34 25 29 32 29 32 22 37 15 42 15 43 8 45 0 49 rrcurveto
            return
          </CharString>
          <CharString index="8">
            0 -53 -8 -48 -15 -45 -15 -45 -24 -36 -31 -27 -31 -27 -40 -14 -48 0 -47 0 -39 14 -32 27 -30 27 -24 37 -15 44 -15 46 -8 49 0 53 rrcurveto
            0 53 8 49 15 44 15 45 24 35 31 28 31 26 40 14 48 0 47 0 39 -13 30 -27 32 -27 23 -35 15 -45 16 -45 8 -49 0 -55 rrcurveto
            return
          </CharString>
          <CharString index="9">
            0 50 -16 39 -34 29 -32 29 -47 25 -61 23 -45 17 -34 19 -24 20 -24 20 -12 25 0 31 0 34 11 28 24 23 22 22 32 11 40 0 rrcurveto
            29 0 21 -3 13 -7 13 -7 8 -4 3 -2 3 -3 4 -2 3 -2 3 -2 2 -3 1 -5 rrcurveto
            15 -96 57 0 0 156 -9 3 rlineto
            -21 7 -24 7 -27 6 -27 8 -32 3 -36 0 -44 0 -39 -8 -36 -16 -34 -16 -28 -23 -20 -29 -20 -29 -10 -35 0 -40 0 -34 7 -28 15 -21 rrcurveto
            14 -22 19 -18 23 -15 23 -15 26 -14 27 -13 18 -9 19 -9 21 -9 20 -10 19 -11 18 -11 18 -12 15 -14 11 -15 11 -15 6 -18 0 -20 rrcurveto
            0 -37 -14 -29 -28 -20 -27 -22 -35 -10 -43 0 -31 0 -24 4 -18 8 -17 7 -10 4 -1 0 -3 1 -4 3 -3 5 -4 5 -2 4 -1 4 rrcurveto
            -13 113 -63 0 0 -177 22 -9 rlineto
            15 -7 20 -6 27 -6 27 -6 31 -3 36 0 63 0 50 10 40 20 38 20 29 26 18 31 18 31 9 33 0 33 rrcurveto
            return
          </CharString>
          <CharString index="10">
            43 -217 -43 vlineto
            57 -4 rlineto
            7 0 6 -2 4 -6 3 -4 2 -5 0 -5 rrcurveto
            -354 vlineto
            0 -37 -5 -33 -9 -30 -9 -30 -17 -24 -25 -17 -25 -17 -35 -9 -46 0 -46 0 -35 8 -25 17 -25 17 -16 23 -9 29 -9 29 -4 35 0 39 rrcurveto
            354 vlineto
            0 5 2 5 3 4 3 6 6 2 7 0 rrcurveto
            57 4 0 43 -254 0 0 -43 53 -4 rlineto
            7 0 6 -2 3 -6 3 -4 2 -5 0 -5 rrcurveto
            -380 vlineto
            0 -79 20 -59 40 -40 40 -40 61 -20 83 0 84 0 64 19 43 39 44 38 22 60 0 82 rrcurveto
            380 vlineto
            0 5 2 5 3 4 3 6 6 2 7 0 rrcurveto
            return
          </CharString>
          <CharString index="11">
            43 -203 -43 vlineto
            56 -7 rlineto
            9 -1 5 -5 0 -8 0 -3 -1 -2 -1 -2 rrcurveto
            -155 -258 -141 261 rlineto
            -1 2 -1 3 0 3 0 7 5 4 9 1 rrcurveto
            50 5 0 43 -237 0 0 -43 58 -12 192 -346 0 -201 rlineto
            0 -5 -2 -4 -4 -5 -3 -5 -6 -2 -7 -1 rrcurveto
            -62 -4 0 -43 270 0 0 43 -64 4 rlineto
            -7 1 -5 2 -4 5 -3 5 -2 4 0 5 rrcurveto
            0 216 201 333 rlineto
            return
          </CharString>
          <CharString index="12">
            185 -59 vlineto
            -17 -116 rlineto
            -1 -5 -1 -4 -4 -4 -2 -3 -4 -2 -5 0 rrcurveto
            -285 0 373 574 0 46 -471 0 0 -160 59 0 15 93 rlineto
            3 11 5 6 9 0 rrcurveto
            260 0 -372 -577 0 -44 rlineto
            return
          </CharString>
          <CharString index="13">
            0 39 -48 3 rlineto
            -6 1 -5 2 -4 4 -4 4 -2 5 0 6 rrcurveto
            280 vlineto
            0 29 -5 26 -8 23 -10 23 -16 17 -22 13 -24 13 -32 6 -41 0 -33 0 -32 -4 -32 -8 -32 -9 -26 -13 -22 -17 -20 -17 -11 -23 0 -27 rrcurveto
            0 -13 4 -8 7 -3 8 -3 9 -2 9 0 rrcurveto
            73 87 hlineto
            5 2 8 3 13 3 13 3 15 2 17 0 rrcurveto
            62 31 -33 -66 hvcurveto
            -43 vlineto
            -65 -14 -53 -14 -39 -14 -40 -14 -30 -14 -20 -15 -20 -14 -13 -15 -7 -16 -7 -16 -3 -17 0 -19 0 -42 13 -33 25 -24 25 -24 31 -12 36 0 rrcurveto
            19 0 20 4 19 6 20 8 18 8 16 10 17 9 13 9 10 6 rrcurveto
            15 11 13 -59 rlineto
            return
          </CharString>
          <CharString index="14">
            -17 -10 rlineto
            -4 -3 -8 -4 -12 -7 -13 -6 -13 -5 -14 -5 -15 -5 -14 -2 -13 0 -24 0 -18 9 -14 17 -12 17 -7 19 0 21 0 12 2 12 4 12 rrcurveto
            4 11 9 12 12 11 14 11 19 11 27 12 27 10 35 12 45 11 rrcurveto
            return
          </CharString>
          <CharString index="15">
            61 vlineto
            -23 -15 -25 -14 -26 -14 -28 -12 -27 -7 -29 0 -32 0 -27 6 -21 13 -22 12 -17 16 -13 20 -13 21 -9 23 -5 25 -5 25 -3 26 0 25 rrcurveto
            324 hlineto
            1 5 0 5 0 5 rrcurveto
            13 vlineto
            0 59 -16 49 -31 39 -31 39 -47 19 -62 0 -45 0 -41 -11 -35 -21 -35 -21 -28 -30 -21 -39 -20 -39 -10 -45 0 -52 0 -56 11 -46 22 -37 rrcurveto
            22 -37 29 -27 34 -18 36 -18 37 -9 41 0 34 0 33 6 33 12 32 12 30 15 28 17 rrcurveto
            return
          </CharString>
          <CharString index="16">
            -220 hlineto
            3 43 13 34 23 25 23 25 28 12 33 0 33 0 25 -11 15 -23 16 -23 8 -27 0 -33 rrcurveto
            return
          </CharString>
          <CharString index="17">
            0 39 -51 3 rlineto
            -6 1 -5 2 -4 4 -4 4 -2 5 0 6 rrcurveto
            430 -40 vlineto
            -122 -38 0 -35 69 0 0 -357 rlineto
            0 -14 -7 -7 -14 -1 rrcurveto
            -49 -3 0 -39 rlineto
            return
          </CharString>
          <CharString index="18">
            0 39 -44 3 rlineto
            -6 1 -5 2 -4 4 -4 4 -2 5 0 6 rrcurveto
            276 vlineto
            0 49 -12 37 -22 28 -24 26 -33 14 -43 0 -23 0 -27 -6 -29 -13 -29 -13 -29 -14 -28 -16 rrcurveto
            50 -41 vlineto
            -122 -38 0 -33 70 0 0 -347 rlineto
            0 -14 -7 -7 -14 -1 rrcurveto
            -49 -3 0 -39 226 0 0 39 -42 3 rlineto
            -14 1 -7 7 0 14 rrcurveto
            328 vlineto
            17 9 18 7 18 5 20 5 18 3 19 0 35 0 24 -8 15 -17 15 -17 7 -24 0 -31 rrcurveto
            -260 vlineto
            0 -6 -2 -5 -4 -4 -4 -4 -5 -2 -6 -1 rrcurveto
            -42 -3 0 -39 rlineto
            return
          </CharString>
          <CharString index="19">
            0 47 -9 42 -19 39 -19 39 -27 30 -34 23 -36 23 -42 11 -50 0 -49 0 -43 -11 -36 -23 -36 -22 -28 -30 -19 -39 -19 -39 -10 -43 0 -47 rrcurveto
            0 -48 10 -43 19 -38 19 -38 28 -30 35 -22 35 -22 42 -11 49 0 49 0 42 11 36 23 35 22 28 30 19 38 20 38 10 43 0 47 rrcurveto
            return
          </CharString>
          <CharString index="20">
            0 -37 -5 -34 -9 -31 -10 -31 -15 -26 -19 -20 -20 -19 -25 -10 -31 0 -30 0 -25 10 -19 19 -20 20 -15 26 -9 32 -10 31 -5 34 0 36 rrcurveto
            0 37 5 34 9 32 9 31 15 26 20 19 20 19 25 10 31 0 30 0 25 -10 20 -19 19 -19 15 -26 10 -31 9 -32 5 -34 0 -37 rrcurveto
            return
          </CharString>
          <CharString index="21">
            0 -35 -6 -32 -11 -31 -12 -30 -18 -24 -24 -20 -23 -18 -30 -10 -37 0 -21 0 -18 3 -17 5 rrcurveto
            -25 8 0 344 15 8 rlineto
            10 4 13 6 15 4 16 6 16 2 17 0 31 0 25 -9 21 -17 21 -17 15 -23 11 -29 11 -29 5 -31 0 -35 rrcurveto
            return
          </CharString>
          <CharString index="22">
            0 33 -11 26 -23 20 -23 19 -28 18 -35 16 -43 19 -29 16 -16 14 -16 12 -8 18 0 23 0 19 7 16 13 13 13 13 21 6 27 0 rrcurveto
            15 0 15 -2 14 -6 14 -4 11 -6 7 -5 rrcurveto
            8 -70 52 0 0 118 rlineto
            -10 5 -17 5 -22 5 -24 5 -26 3 -29 0 -57 0 -45 -13 -31 -26 -31 -26 -16 -35 0 -45 0 -30 10 -24 19 -19 19 -19 28 -18 37 -17 rrcurveto
            13 -6 rlineto
            35 -17 26 -15 20 -13 18 -13 10 -20 0 -27 0 -20 -8 -18 -16 -16 -15 -16 -22 -8 -29 0 -19 0 -17 3 -16 6 -14 6 -13 6 -10 7 rrcurveto
            -12 85 -51 0 0 -133 rlineto
            10 -4 18 -5 26 -6 26 -7 28 -3 31 0 59 0 47 14 34 28 34 27 17 39 0 49 rrcurveto
            return
          </CharString>
          <CharString index="23">
            39 -178 -39 vlineto
            47 -3 rlineto
            10 -1 5 -5 0 -10 0 -2 0 -2 -1 -2 rrcurveto
            -119 -295 -116 295 rlineto
            -1 1 0 2 0 3 0 10 5 5 11 1 rrcurveto
            48 3 0 39 -221 0 0 -39 55 -6 170 -436 rlineto
            -5 -15 -6 -17 -10 -21 -8 -20 -10 -19 -12 -19 -10 -19 -12 -15 -11 -11 rrcurveto
            -94 43 rlineto
            -21 -18 -11 -20 0 -22 0 -15 6 -13 13 -12 12 -11 18 -6 24 0 17 0 16 3 15 7 14 7 13 9 12 12 14 14 13 17 12 22 rrcurveto
            13 20 11 21 8 20 10 20 6 15 4 11 rrcurveto
            192 468 rlineto
            return
          </CharString>
          <CharString index="24">
            151 -54 vlineto
            -10 -79 rlineto
            -1 -5 -2 -6 -5 -5 -5 -5 -4 -3 -5 0 rrcurveto
            -202 0 274 393 0 41 -370 0 0 -142 51 0 10 74 rlineto
            1 5 2 4 4 5 4 5 4 2 5 0 rrcurveto
            174 0 -265 -382 0 -53 rlineto
            return
          </CharString>
          <CharString index="25">
            0 15 -5 12 -12 12 -10 10 -13 6 -15 0 -15 0 -12 -6 -11 -12 -11 -11 -5 -13 0 -14 0 -15 5 -13 11 -10 11 -12 12 -5 15 0 rrcurveto
            15 0 13 6 11 11 11 11 5 13 0 15 rrcurveto
            return
          </CharString>
          <CharString index="26">
            -126 -15 -127 -230 123 -202 115 16 -123 193 rlineto
            return
          </CharString>
          <CharString index="27">
            -123 202 -115 -16 123 -193 -138 -238 126 15 rlineto
            return
          </CharString>
          <CharString index="28">
            41 -74 251 -44 vlineto
            -220 -250 0 -42 208 0 0 -135 56 0 0 135 rlineto
            return
          </CharString>
          <CharString index="29">
            -134 155 rlineto
            -7 9 -8 6 -6 5 -8 5 -10 2 -13 0 -17 0 -12 -5 -7 -9 -7 -10 -3 -10 0 -10 0 -17 8 -14 15 -10 rrcurveto
            152 -97 rlineto
            return
          </CharString>
          <CharString index="30">
            0 10 -3 10 -7 10 -7 9 -12 5 -17 0 -13 0 -10 -2 -8 -5 -6 -5 -8 -6 -7 -9 rrcurveto
            -134 -155 57 0 152 97 rlineto
            15 10 8 14 0 17 rrcurveto
            return
          </CharString>
          <CharString index="31">
            0 15 -5 12 -11 12 -11 10 -13 6 -15 0 -15 0 -12 -6 -11 -12 -11 -11 -5 -13 0 -14 0 -15 6 -13 10 -10 12 -12 12 -5 14 0 rrcurveto
            15 0 13 6 11 11 11 11 5 13 0 15 rrcurveto
            return
          </CharString>
          <CharString index="32">
            -134 155 rlineto
            -7 9 -7 6 -8 5 -6 5 -11 2 -13 0 -17 0 -12 -5 -7 -10 -7 -10 -3 -10 0 -10 0 -17 8 -13 15 -10 rrcurveto
            152 -97 rlineto
            return
          </CharString>
          <CharString index="33">
            0 39 -51 3 rlineto
            -6 1 -5 2 -4 4 -4 4 -2 5 0 6 rrcurveto
            429 -40 vlineto
            -122 -38 0 -34 69 0 0 -357 rlineto
            0 -14 -7 -7 -14 -1 rrcurveto
            -49 -3 0 -39 rlineto
            return
          </CharString>
          <CharString index="34">
            0 15 -5 12 -11 12 -11 10 -13 6 -15 0 -14 0 -12 -6 -12 -11 -10 -11 -6 -13 0 -14 0 -15 5 -13 11 -11 11 -11 12 -6 15 0 rrcurveto
            15 0 13 6 11 11 11 11 5 13 0 15 rrcurveto
            return
          </CharString>
          <CharString index="35">
            0 15 -5 12 -11 12 -11 10 -13 6 -15 0 -15 0 -12 -6 -11 -12 -11 -11 -5 -13 0 -14 0 -15 5 -13 12 -10 10 -12 13 -5 14 0 rrcurveto
            15 0 13 6 11 11 11 11 5 13 0 15 rrcurveto
            return
          </CharString>
          <CharString index="36">
            -126 169 -75 0 -126 -169 60 0 104 99 103 -99 rlineto
            return
          </CharString>
          <CharString index="37">
            0 39 -44 3 rlineto
            -6 1 -5 2 -5 4 -4 4 -2 5 0 6 rrcurveto
            430 -40 vlineto
            -122 -39 0 -34 70 0 0 -335 rlineto
            -12 -6 -16 -6 -20 -8 -20 -6 -20 -4 -21 0 -35 0 -25 10 -15 20 -14 20 -7 28 0 35 rrcurveto
            325 -41 vlineto
            -123 -39 0 -34 70 0 0 -271 rlineto
            0 -57 12 -41 25 -26 25 -25 33 -13 43 0 20 0 20 4 21 8 20 8 19 9 17 11 18 11 15 9 11 9 rrcurveto
            -57 vlineto
            return
          </CharString>
          <CharString index="38">
            0 15 -6 12 -10 12 -12 10 -12 6 -15 0 -14 0 -13 -6 -10 -11 -12 -11 -5 -13 0 -14 0 -15 5 -13 11 -11 11 -11 12 -6 15 0 rrcurveto
            15 0 13 6 11 11 11 11 5 13 0 15 rrcurveto
            return
          </CharString>
          <CharString index="39">
            -60 0 -103 -100 -104 100 -60 0 126 -170 75 0 rlineto
            return
          </CharString>
          <CharString index="40">
            -60 0 -103 -99 -104 99 -60 0 126 -169 75 0 rlineto
            return
          </CharString>
          <CharString index="41">
            0 11 -3 10 -7 9 -7 10 -12 5 -17 0 -13 0 -11 -2 -7 -5 -7 -5 -7 -6 -7 -9 rrcurveto
            -134 -155 57 0 152 97 rlineto
            7 5 5 5 4 6 5 7 2 8 0 9 rrcurveto
            return
          </CharString>
          <CharString index="42">
            0 11 -3 10 -7 9 -7 10 -12 5 -17 0 -14 0 -10 -2 -8 -5 -6 -5 -8 -6 -7 -9 rrcurveto
            -133 -155 57 0 151 97 rlineto
            7 5 6 5 5 6 4 7 2 8 0 9 rrcurveto
            return
          </CharString>
          <CharString index="43">
            0 -9 -1 -12 -1 -15 -2 -15 -3 -15 -4 -15 -4 -15 -6 -13 -8 -10 -8 -11 -10 -5 -13 0 -21 0 -10 11 0 22 0 4 0 4 1 5 rrcurveto
            1 4 0 4 1 4 rrcurveto
            27 155 rlineto
            3 1 2 0 4 0 2 1 3 0 3 0 15 0 10 -4 6 -9 6 -9 4 -10 1 -13 1 -12 1 -12 0 -11 rrcurveto
            return
          </CharString>
          <CharString index="44">
            -81 -200 rlineto
            -3 -8 -5 -9 -5 -11 -6 -11 -7 -9 -8 -7 -8 -8 -9 -4 -11 0 -12 0 -9 5 -8 11 -6 10 -4 10 0 11 0 10 1 10 3 11 rrcurveto
            2 11 2 10 2 9 7 23 9 25 12 26 13 25 16 22 20 17 20 18 24 9 28 0 7 0 8 -2 8 -4 rrcurveto
            return
          </CharString>
          <CharString index="45">
            0 -14 -2 -17 -5 -21 -5 -20 -4 -17 -3 -14 -3 -1 -2 0 -2 0 -3 -1 -2 0 -3 0 -17 0 -13 8 -9 15 -9 16 -4 15 0 15 rrcurveto
            0 7 2 11 2 14 4 14 3 10 3 6 3 5 5 4 7 3 7 3 7 2 5 0 13 0 9 -4 6 -9 7 -8 3 -10 0 -12 rrcurveto
            return
          </CharString>
          <CharString index="46">
            -25 -157 rlineto
            -2 -15 -4 -12 -5 -11 -6 -11 -11 -5 -17 0 -12 0 -8 5 -4 8 -3 10 -2 9 0 10 0 11 2 15 5 19 4 19 6 19 8 19 rrcurveto
            7 19 10 16 11 14 12 12 13 7 14 0 3 -1 3 0 1 0 rrcurveto
            return
          </CharString>
          <CharString index="47">
            -11 -242 rlineto
            -5 -1 -6 0 -6 0 -5 -1 -6 0 -5 0 -27 0 -18 6 -9 11 -9 12 -4 19 0 26 0 16 1 18 4 19 2 20 6 19 7 17 rrcurveto
            7 18 11 15 13 11 13 12 18 6 21 0 3 -1 3 0 2 0 rrcurveto
            return
          </CharString>
          <CharString index="48">
            0 -9 -1 -10 -3 -11 -2 -11 -4 -9 -6 -7 -6 -8 -9 -4 -12 0 -14 0 -9 4 -5 9 -5 9 -3 10 -1 12 -3 28 -3 28 -3 28 rrcurveto
            -3 27 -2 28 -1 28 7 2 6 1 7 0 18 0 14 -5 11 -10 10 -10 7 -13 5 -15 5 -15 3 -16 0 -16 2 -17 0 -15 0 -13 rrcurveto
            return
          </CharString>
          <CharString index="49">
            -36 -217 rlineto
            -8 -3 -8 -1 -8 0 -18 0 -14 6 -11 12 -10 12 -5 15 0 17 0 21 3 20 7 20 4 13 7 15 9 15 9 15 12 13 12 12 rrcurveto
            14 10 14 6 15 0 4 0 4 0 4 -1 rrcurveto
            return
          </CharString>
          <CharString index="50">
            -11 1 -10 0 -11 0 -26 0 -24 -3 -21 -6 -22 -7 -18 -11 -14 -15 -15 -15 -9 -22 -4 -28 rrcurveto
            -241 hlineto
            -3 29 -9 23 -15 15 -15 15 -18 11 -23 5 -22 6 -24 3 -27 0 rrcurveto
            -17 hlineto
            -5 0 -6 0 -5 -1 21 -16 13 -21 7 -26 7 -26 2 -25 -2 -25 rrcurveto
            187 -16 hlineto
            0 -19 -7 -19 -14 -17 -15 -17 -18 -17 -22 -18 -22 -16 -23 -18 -26 -18 -24 -19 -24 -20 -22 -21 -23 -22 -18 -24 -14 -26 -14 -27 -7 -30 0 -33 rrcurveto
            0 -33 7 -26 13 -21 14 -20 25 -10 35 0 19 0 20 2 19 4 19 5 19 4 19 3 30 5 30 5 29 5 30 5 30 4 30 4 rrcurveto
            0 18 1 18 2 19 2 19 4 17 7 16 7 16 10 13 13 10 14 10 18 5 23 0 3 0 2 0 3 -1 3 0 2 0 2 0 rrcurveto
            3 -32 12 -24 21 -14 21 -16 26 -7 30 0 6 0 7 1 8 0 9 2 7 1 6 2 -12 20 -6 23 -2 25 0 25 -1 24 0 23 rrcurveto
            -24 -2 rlineto
            -27 -3 -28 -2 -28 -2 -27 -2 -28 -3 -28 -5 -38 -7 -33 -9 -28 -14 -29 -12 -23 -19 -18 -25 -17 -24 -12 -33 -6 -41 -7 -1 -6 0 -8 -1 rrcurveto
            -6 -1 -7 0 -7 0 -21 0 -16 4 -11 9 -11 8 -5 15 0 22 0 27 7 26 13 23 13 23 18 22 21 22 21 20 23 21 24 20 rrcurveto
            24 20 23 20 22 20 22 20 19 21 16 22 15 21 9 23 3 25 rrcurveto
            201 hlineto
            0 27 2 25 2 22 4 22 11 22 20 21 rrcurveto
            return
          </CharString>
          <CharString index="51">
            -29 -166 rlineto
            -7 -1 -7 -1 -8 0 -22 0 -15 7 -8 13 -7 13 -4 17 0 19 0 35 9 26 19 15 19 15 26 8 34 0 rrcurveto
            return
          </CharString>
          <CharString index="52">
            0 -16 -4 -16 -8 -15 -7 -16 -11 -13 -13 -10 -13 -10 -16 -5 -17 0 -2 0 -3 0 -5 1 rrcurveto
            29 168 20 0 rlineto
            19 0 13 -7 7 -16 7 -14 4 -16 0 -15 rrcurveto
            return
          </CharString>
          <CharString index="53">
            -27 -166 rlineto
            -7 -1 -7 -1 -9 0 -22 0 -15 6 -8 14 -8 12 -4 17 0 20 0 35 9 26 19 15 19 15 26 8 34 0 rrcurveto
            return
          </CharString>
          <CharString index="54">
            0 -16 -4 -16 -8 -15 -7 -16 -11 -13 -13 -10 -13 -10 -16 -5 -17 0 -2 0 -3 0 -4 1 rrcurveto
            29 168 19 0 rlineto
            19 0 13 -7 7 -16 7 -14 4 -16 0 -15 rrcurveto
            return
          </CharString>
          <CharString index="55">
            0 -27 -8 -23 -16 -19 -16 -19 -22 -10 -28 -1 rrcurveto
            20 161 rlineto
            7 2 7 1 5 0 19 0 14 -7 7 -13 7 -13 4 -15 0 -17 rrcurveto
            return
          </CharString>
          <CharString index="56">
            -20 -158 rlineto
            -9 -1 -7 -1 -7 0 -22 0 -15 7 -8 12 -8 14 -4 16 0 20 0 30 10 23 19 15 19 15 24 8 28 0 rrcurveto
            return
          </CharString>
          <CharString index="57">
            0 -11 -1 -12 -3 -15 -3 -15 -4 -14 -5 -14 -6 -15 -8 -12 -9 -9 -9 -9 -12 -5 -14 0 -1 0 -1 0 -2 0 rrcurveto
            1 -2 0 -1 vhcurveto
            21 198 rlineto
            3 1 2 0 3 0 3 1 2 0 2 0 11 0 8 -4 7 -8 7 -8 4 -9 4 -12 2 -10 2 -10 0 -9 rrcurveto
            return
          </CharString>
          <CharString index="58">
            -11 11 -8 10 -6 8 -7 10 -3 12 0 16 0 10 2 10 4 12 3 10 4 11 4 9 -9 5 -10 2 -9 0 -19 0 -19 -2 -20 -3 rrcurveto
            -20 -4 -17 -8 -16 -10 -14 -12 -10 -16 -4 -22 rrcurveto
            -245 -30 rlineto
            -9 16 -12 12 -14 9 -16 9 -16 4 -18 0 -13 0 -15 -2 -19 -4 -19 -3 -15 -6 -11 -7 11 -11 7 -10 5 -9 5 -9 2 -13 0 -15 rrcurveto
            0 -27 -10 -22 -20 -19 6 -3 8 -2 10 0 10 -2 8 0 6 0 18 0 19 2 19 4 19 4 17 8 15 11 15 11 9 16 3 21 rrcurveto
            247 32 rlineto
            5 -15 11 -13 17 -11 16 -10 16 -5 16 0 17 0 17 3 16 6 17 6 15 7 15 8 rrcurveto
            return
          </CharString>
          <CharString index="59">
            0 -19 -3 -17 -5 -16 -6 -16 -9 -15 -13 -14 -9 15 -10 16 -10 17 -10 17 -5 17 0 19 0 11 3 13 7 14 6 13 10 7 14 0 rrcurveto
            17 0 11 -7 5 -13 5 -14 2 -14 0 -14 rrcurveto
            return
          </CharString>
          <CharString index="60">
            0 -10 -2 -11 -2 -13 -4 -12 -5 -10 -7 -9 -7 -9 -10 -4 -13 0 -13 0 -9 4 -4 10 -5 8 -2 11 0 11 0 10 2 12 3 12 rrcurveto
            4 14 6 11 8 9 8 10 11 5 13 0 12 0 8 -6 3 -11 3 -12 2 -11 0 -9 rrcurveto
            return
          </CharString>
          <CharString index="61">
            0 -11 -1 -13 -4 -13 -2 -13 -6 -12 -8 -10 -8 -10 -11 -5 -14 0 -15 0 -9 4 -3 8 -4 7 -2 11 0 13 0 13 2 14 2 14 rrcurveto
            4 16 5 13 9 11 8 11 12 6 16 0 15 0 8 -6 3 -13 2 -13 1 -11 0 -11 rrcurveto
            return
          </CharString>
          <CharString index="62">
            0 -14 -3 -14 -7 -15 -6 -15 -11 -7 -17 0 -12 0 -8 4 -4 10 -5 8 -2 10 0 10 0 9 1 9 3 10 3 11 4 9 6 7 rrcurveto
            6 7 9 4 11 0 13 0 8 -4 5 -10 4 -8 2 -10 0 -11 rrcurveto
            return
          </CharString>
          <CharString index="63">
            0 -8 -1 -13 -1 -17 -2 -17 -3 -18 -4 -19 -4 -19 -6 -16 -8 -12 -8 -14 -10 -6 -13 0 -11 0 -12 1 -11 2 rrcurveto
            17 223 rlineto
            5 1 4 0 4 1 4 1 4 0 4 0 19 0 14 -8 7 -15 8 -15 4 -16 0 -16 rrcurveto
            return
          </CharString>
          <CharString index="64">
            -18 -229 rlineto
            -6 -3 -7 -3 -8 -3 -8 -3 -7 -2 -7 0 -11 0 -8 4 -5 9 -5 9 -4 10 -2 11 -2 11 -1 10 0 8 0 22 3 24 4 25 rrcurveto
            6 26 9 22 15 20 14 18 21 11 27 3 rrcurveto
            return
          </CharString>
          <CharString index="65">
            -9 8 -9 10 -8 14 -8 12 -4 13 0 13 0 22 3 22 7 21 -26 -5 -26 -3 -27 -3 -26 -2 -26 -2 -26 -1 -45 -2 -37 -5 -28 -9 rrcurveto
            -30 -9 -22 -16 -16 -23 -17 -23 -11 -36 -6 -48 rrcurveto
            -102 -19 rlineto
            1 5 0 4 0 5 rrcurveto
            14 vlineto
            0 51 -11 36 -24 22 -22 23 -37 11 -50 0 -39 0 -38 -4 -37 -7 -37 -7 -38 -5 -38 -3 4 -9 3 -9 3 -10 2 -10 1 -10 0 -9 rrcurveto
            0 -14 -5 -13 -8 -11 -10 -11 -10 -10 -11 -7 7 -5 10 -3 11 -1 11 -1 10 -1 8 0 37 0 31 10 26 20 25 19 13 29 0 39 rrcurveto
            14 2 rlineto
            5 1 4 0 4 0 27 0 16 -8 7 -16 7 -16 3 -19 0 -23 0 -7 0 -9 -1 -9 -1 -9 0 -9 -1 -7 rrcurveto
            -35 -311 rlineto
            -1 -5 0 -6 -1 -6 -1 -5 0 -6 0 -5 0 -14 2 -12 4 -10 5 -9 10 -5 16 0 19 0 20 1 20 2 19 2 20 2 19 1 rrcurveto
            16 vlineto
            -14 2 -7 8 0 13 rrcurveto
            17 vlineto
            0 6 0 6 1 6 rrcurveto
            30 277 100 19 -33 -295 rlineto
            -1 -6 0 -6 -1 -5 -1 -6 0 -6 0 -6 0 -12 2 -10 5 -8 5 -8 9 -4 14 0 19 0 20 1 20 2 19 2 20 2 19 1 rrcurveto
            16 vlineto
            -13 4 -7 9 0 13 0 6 0 6 0 6 1 7 0 6 1 6 rrcurveto
            40 362 rlineto
            3 21 3 18 3 13 3 13 7 10 11 7 10 7 16 4 23 1 rrcurveto
            0 -7 0 -8 rlineto
            0 -35 10 -22 19 -11 19 -10 25 -5 30 0 14 0 14 1 14 2 13 3 13 4 13 5 rrcurveto
            return
          </CharString>
          <CharString index="66">
            -9 9 -9 10 -8 13 -8 12 -4 13 0 13 0 22 3 22 7 21 -26 -5 -26 -3 -27 -3 -26 -2 -26 -2 -26 -1 -45 -2 -37 -5 -28 -9 rrcurveto
            -30 -9 -22 -16 -16 -23 -17 -23 -11 -36 -6 -48 rrcurveto
            -102 -19 rlineto
            1 5 0 4 0 5 rrcurveto
            14 vlineto
            0 51 -11 36 -24 22 -22 23 -37 11 -50 0 -39 0 -38 -4 -37 -7 -37 -7 -38 -5 -38 -3 4 -9 3 -9 3 -10 2 -10 1 -10 0 -9 rrcurveto
            0 -14 -5 -13 -8 -11 -10 -11 -10 -10 -11 -7 7 -5 10 -3 11 -1 11 -1 10 -1 8 0 37 0 31 10 26 20 25 19 13 29 0 39 rrcurveto
            14 2 rlineto
            5 1 4 0 4 0 27 0 16 -8 7 -16 7 -16 3 -19 0 -23 0 -7 0 -8 -1 -7 -1 -8 0 -8 -1 -7 rrcurveto
            -35 -311 rlineto
            -1 -5 0 -7 -1 -7 -1 -7 0 -7 0 -5 0 -14 2 -12 4 -10 5 -9 10 -5 16 0 11 0 18 1 24 2 23 2 22 2 19 1 rrcurveto
            16 vlineto
            -14 2 -7 8 0 13 0 13 1 11 1 11 rrcurveto
            29 277 100 19 -33 -290 rlineto
            -2 -13 -1 -13 0 -14 0 -12 2 -10 5 -8 5 -8 9 -4 14 0 11 0 18 1 24 2 23 2 22 2 19 1 rrcurveto
            16 vlineto
            -13 4 -7 9 0 13 0 6 0 6 0 6 1 7 0 6 1 6 rrcurveto
            26 238 93 10 rlineto
            0 -4 0 -4 -1 -3 0 -4 0 -4 0 -4 0 -35 8 -25 16 -15 16 -15 25 -8 35 0 12 0 12 1 12 2 13 2 11 5 10 7 rrcurveto
            -14 9 -9 11 -3 15 -4 14 -2 15 0 15 0 13 2 13 4 14 4 15 6 12 9 9 rrcurveto
            -251 -23 10 86 rlineto
            3 21 3 18 3 13 3 13 7 10 11 8 10 6 16 5 23 1 rrcurveto
            0 -8 0 -7 rlineto
            0 -35 9 -23 20 -11 18 -10 25 -5 31 0 13 0 14 1 15 2 14 3 13 4 12 5 rrcurveto
            return
          </CharString>
          <CharString index="67">
            -9 9 -9 10 -8 13 -8 12 -4 13 0 13 0 22 3 22 7 21 -21 -3 -24 -4 -30 -2 -28 -4 -28 -2 -26 -1 -45 -2 -37 -5 -28 -9 rrcurveto
            -30 -9 -22 -16 -16 -23 -17 -23 -11 -36 -6 -48 rrcurveto
            -102 -19 rlineto
            1 5 0 4 0 5 rrcurveto
            14 vlineto
            0 51 -11 36 -24 22 -22 23 -37 11 -50 0 -39 0 -38 -4 -37 -7 -37 -7 -38 -5 -38 -3 4 -9 3 -9 3 -10 2 -10 1 -10 0 -9 rrcurveto
            0 -14 -5 -13 -8 -11 -10 -11 -10 -10 -11 -7 7 -5 10 -3 11 -1 11 -1 10 -1 8 0 37 0 31 10 26 20 25 19 13 29 0 39 rrcurveto
            14 2 rlineto
            5 1 4 0 4 0 27 0 16 -8 7 -16 7 -16 3 -19 0 -23 0 -15 -1 -15 -2 -15 rrcurveto
            -16 -136 rlineto
            -1 -5 0 -6 -1 -6 -1 -5 0 -6 0 -5 0 -14 2 -12 5 -10 4 -9 10 -5 16 0 19 0 20 1 19 2 20 2 20 2 19 1 rrcurveto
            16 vlineto
            -14 2 -7 8 0 13 0 22 2 22 2 22 4 22 2 22 2 22 rrcurveto
            100 19 -34 -301 rlineto
            -1 -6 0 -6 -1 -5 -1 -6 0 -6 0 -6 0 -12 2 -10 5 -8 5 -8 9 -4 14 0 19 0 20 1 19 2 20 2 20 2 19 1 rrcurveto
            16 vlineto
            -13 4 -7 9 0 13 0 6 0 6 1 6 0 7 0 6 1 6 rrcurveto
            41 368 rlineto
            3 21 3 18 3 13 3 13 7 10 11 8 10 6 16 5 23 1 rrcurveto
            0 -8 0 -7 rlineto
            0 -35 9 -23 20 -11 18 -10 25 -5 31 0 13 0 14 1 15 2 14 3 13 4 12 5 rrcurveto
            return
          </CharString>
          <CharString index="68">
            -9 9 -9 10 -8 13 -8 12 -4 13 0 13 0 22 3 22 7 21 -19 -3 -25 -4 -29 -2 -30 -4 -28 -2 -26 -1 -45 -2 -37 -5 -28 -9 rrcurveto
            -30 -9 -22 -16 -16 -23 -17 -23 -11 -36 -6 -48 rrcurveto
            -102 -19 rlineto
            1 5 0 4 0 5 rrcurveto
            14 vlineto
            0 51 -11 36 -24 22 -22 23 -37 11 -50 0 -39 0 -38 -4 -37 -7 -37 -7 -38 -5 -38 -3 4 -9 3 -9 3 -10 2 -10 1 -10 0 -9 rrcurveto
            0 -14 -5 -13 -8 -11 -10 -11 -10 -10 -11 -7 7 -5 10 -3 11 -1 11 -1 10 -1 8 0 37 0 31 10 26 20 25 19 13 29 0 39 rrcurveto
            14 2 rlineto
            5 1 4 0 4 0 27 0 16 -8 7 -16 7 -16 3 -19 0 -23 0 -7 0 -8 -1 -7 -1 -8 0 -8 -1 -7 rrcurveto
            -35 -316 rlineto
            -1 -5 0 -6 -1 -6 -1 -5 0 -6 0 -5 0 -14 2 -12 4 -10 5 -9 10 -5 16 0 19 0 20 1 20 2 19 2 20 2 19 1 rrcurveto
            16 vlineto
            -8 1 -6 4 -2 5 -4 5 -1 8 0 9 0 3 0 5 1 5 0 5 0 5 0 3 rrcurveto
            30 277 100 19 -33 -282 rlineto
            -1 -6 0 -7 -2 -7 0 -7 -1 -7 0 -6 0 -18 3 -13 6 -7 7 -8 13 -4 19 0 18 0 18 2 18 5 18 5 18 2 18 0 rrcurveto
            11 0 12 -1 12 -3 11 -2 12 -1 12 0 20 0 20 5 21 11 21 11 17 14 14 18 14 17 7 20 0 21 0 29 -8 19 -17 12 rrcurveto
            -16 10 -21 6 -27 0 -21 0 -21 -2 -20 -4 -22 -3 -20 -2 -21 -1 rrcurveto
            29 261 rlineto
            2 21 3 18 3 13 4 13 7 10 11 8 10 6 16 5 23 1 rrcurveto
            0 -8 0 -7 rlineto
            0 -35 9 -23 20 -11 18 -10 25 -5 31 0 13 0 14 1 15 2 14 3 13 4 12 5 rrcurveto
            return
          </CharString>
          <CharString index="69">
            0 -16 -5 -14 -11 -12 -11 -12 -13 -6 -17 0 -5 0 -7 1 -8 3 -8 3 -4 5 0 7 0 9 1 13 0 16 2 17 1 15 2 14 rrcurveto
            13 5 14 2 15 0 17 0 12 -4 4 -9 6 -9 2 -12 0 -16 rrcurveto
            return
          </CharString>
          <CharString index="70">
            0 -35 -10 -31 -18 -25 -20 -26 -26 -19 -34 -11 -4 25 -2 25 0 25 0 11 2 12 2 14 4 15 4 14 6 13 6 14 8 12 10 8 rrcurveto
            9 10 12 4 14 0 13 0 10 -6 6 -13 5 -13 3 -12 0 -11 rrcurveto
            return
          </CharString>
          <CharString index="71">
            0 -31 -6 -31 -13 -31 -13 -31 -21 -22 -31 -14 -5 19 -4 20 -4 21 -3 20 -2 20 0 20 0 13 2 14 3 15 3 15 7 12 8 11 rrcurveto
            10 10 12 5 17 0 15 0 11 -6 5 -11 6 -12 3 -13 0 -13 rrcurveto
            return
          </CharString>
          <CharString index="72">
            0 -37 -9 -33 -17 -30 -17 -31 -27 -21 -36 -13 -3 13 -3 12 -2 14 -2 12 -1 14 0 13 0 11 2 14 2 15 4 15 4 15 6 15 rrcurveto
            7 15 8 12 11 9 11 10 12 5 15 0 15 0 9 -5 4 -10 5 -10 2 -11 0 -13 rrcurveto
            return
          </CharString>
          <CharString index="73">
            0 42 -11 30 -22 18 -23 17 -31 9 -40 0 -33 0 -29 -4 -25 -9 -25 -9 -25 -9 -25 -9 -24 -10 -27 -7 -31 -3 3 -6 3 -7 2 -8 rrcurveto
            2 -8 1 -7 0 -7 0 -14 -3 -15 -4 -16 -6 -15 -6 -14 -9 -11 5 -1 5 -1 7 -1 6 -1 5 0 5 0 41 0 32 13 23 27 rrcurveto
            22 26 11 33 0 39 13 6 14 3 14 0 19 0 13 -8 6 -15 6 -15 3 -16 0 -16 0 -17 -2 -15 -3 -13 rrcurveto
            -90 -351 rlineto
            -1 -5 -1 -7 -2 -7 0 -7 -1 -7 0 -5 0 -15 4 -11 7 -7 8 -7 11 -3 15 0 11 0 12 1 11 2 rrcurveto
            98 16 0 16 rlineto
            -9 0 -7 3 -4 6 -5 7 -2 7 0 9 0 7 1 6 0 7 2 7 1 6 1 6 rrcurveto
            72 297 rlineto
            3 11 2 12 3 13 2 13 1 12 0 12 rrcurveto
            return
          </CharString>
          <CharString index="74">
            0 -13 -3 -14 -5 -13 -6 -13 -11 -7 -16 0 -14 0 -9 4 -3 7 -3 7 -2 11 0 13 0 11 0 12 1 12 1 12 1 12 1 11 rrcurveto
            5 2 4 2 5 1 5 1 4 1 5 0 17 0 11 -7 5 -12 5 -14 2 -13 0 -13 rrcurveto
            return
          </CharString>
          <CharString index="75">
            0 -14 -2 -13 -6 -13 -4 -13 -12 -6 -17 0 -16 0 -9 3 -2 7 -3 7 -1 10 0 15 0 11 0 11 1 11 1 11 0 11 1 11 rrcurveto
            10 5 10 2 9 0 17 0 11 -6 4 -11 6 -12 2 -13 0 -14 rrcurveto
            return
          </CharString>
          <CharString index="76">
            0 -13 -3 -14 -5 -13 -5 -13 -11 -7 -16 0 -15 0 -8 4 -4 8 -2 7 -2 10 0 13 0 11 0 11 1 12 1 10 1 11 1 11 rrcurveto
            4 2 4 2 6 1 4 1 5 1 5 0 17 0 10 -6 5 -11 5 -11 2 -13 0 -14 rrcurveto
            return
          </CharString>
          <CharString index="77">
            0 -13 -3 -14 -6 -13 -5 -13 -11 -7 -16 0 -14 0 -9 4 -3 7 -3 7 -2 11 0 13 0 24 1 23 3 23 10 5 9 2 9 0 rrcurveto
            17 0 10 -6 6 -13 4 -13 3 -13 0 -14 rrcurveto
            return
          </CharString>
          <CharString index="78">
            0 -12 -4 -13 -9 -13 -8 -13 -11 -7 -13 0 -8 0 -7 2 -5 2 -6 4 -3 6 0 9 0 6 1 8 4 10 2 10 4 10 4 10 rrcurveto
            5 10 3 8 2 6 3 1 3 0 4 1 2 1 4 0 3 0 13 0 9 -5 3 -10 3 -10 2 -10 0 -11 rrcurveto
            return
          </CharString>
          <CharString index="79">
            0 -7 -2 -9 -3 -11 -3 -11 -5 -9 -7 -8 -6 -8 -8 -4 -10 0 -11 0 -7 4 -2 8 -4 7 -1 8 0 9 0 9 2 11 3 13 rrcurveto
            4 13 4 11 3 8 3 1 2 0 2 0 rrcurveto
            6 hlineto
            11 0 10 -3 7 -5 8 -6 4 -9 0 -12 rrcurveto
            return
          </CharString>
          <CharString index="80">
            0 -7 -2 -9 -3 -11 -3 -11 -5 -9 -6 -8 -7 -8 -8 -4 -10 0 -11 0 -6 4 -4 8 -2 7 -2 8 0 9 0 9 2 11 4 13 rrcurveto
            5 13 4 11 3 9 2 1 2 0 2 0 rrcurveto
            7 hlineto
            11 0 10 -3 6 -6 8 -6 3 -9 0 -12 rrcurveto
            return
          </CharString>
          <CharString index="81">
            0 -7 -2 -6 -4 -5 -4 -5 -6 -3 -7 0 -9 0 -7 6 -5 10 -5 12 -3 12 -2 13 -1 13 -1 10 0 7 0 5 2 6 4 6 rrcurveto
            4 7 5 3 6 0 11 0 8 -6 4 -10 6 -12 3 -12 1 -13 1 -13 1 -11 0 -7 rrcurveto
            return
          </CharString>
          <CharString index="82">
            0 -7 -2 -9 -4 -10 -4 -11 -6 -9 -6 -7 -8 -7 -7 -4 -9 0 -15 0 -7 7 0 15 0 5 1 7 3 11 3 11 3 10 4 11 rrcurveto
            3 11 3 7 1 5 5 1 5 1 6 0 12 0 8 -4 5 -7 4 -7 2 -9 0 -11 rrcurveto
            return
          </CharString>
          <CharString index="83">
            0 -15 -3 -12 -7 -8 -7 -10 -11 -4 -15 0 -9 0 -9 3 -8 5 -7 5 -4 8 0 10 0 7 2 8 3 10 rrcurveto
            8 24 rlineto
            5 1 4 2 5 1 4 1 4 1 5 0 11 0 10 -3 8 -7 7 -7 4 -9 0 -11 rrcurveto
            return
          </CharString>
          <CharString index="84">
            0 -8 -2 -9 -3 -11 -4 -11 -6 -9 -6 -7 -8 -8 -8 -4 -10 0 -8 0 -6 3 -4 5 -5 5 -2 7 0 8 0 8 2 12 5 16 rrcurveto
            5 17 4 12 3 8 7 5 7 2 8 0 11 0 8 -4 5 -10 5 -8 2 -10 0 -9 rrcurveto
            return
          </CharString>
          <CharString index="85">
            0 -13 -3 -13 -6 -13 -7 -13 -11 -6 -15 0 -11 0 -8 5 -2 9 -4 9 -1 9 0 9 0 11 1 11 2 11 2 11 2 11 2 11 rrcurveto
            8 2 rlineto
            3 1 2 0 3 0 13 0 11 -6 8 -10 7 -12 4 -11 0 -13 rrcurveto
            return
          </CharString>
          <CharString index="86">
            0 -7 -2 -10 -3 -10 -3 -12 -5 -9 -7 -8 -7 -8 -8 -4 -10 0 -19 0 -9 9 0 19 0 13 2 14 2 15 4 15 3 14 3 13 rrcurveto
            5 1 4 0 5 0 14 0 11 -4 8 -8 8 -9 4 -11 0 -13 rrcurveto
            return
          </CharString>
          <CharString index="87">
            0 -8 -1 -9 -2 -10 -1 -10 -4 -9 -5 -7 -6 -7 -8 -4 -11 0 -9 0 -8 4 -4 9 -6 9 -2 8 0 8 0 13 0 12 2 12 rrcurveto
            0 13 2 12 1 13 5 1 4 2 6 1 4 1 5 1 5 0 16 0 10 -6 2 -12 4 -12 1 -12 0 -13 rrcurveto
            return
          </CharString>
          <CharString index="88">
            0 -22 -5 -20 -8 -17 -10 -17 -11 -17 -13 -17 -22 3 -16 7 -10 11 -9 12 -5 17 0 21 0 13 2 13 4 15 4 15 6 12 10 12 rrcurveto
            8 10 13 6 15 0 17 0 13 -6 6 -11 8 -11 3 -14 0 -15 rrcurveto
            return
          </CharString>
          <CharString index="89">
            0 -19 -5 -20 -11 -19 -11 -19 -11 -17 -11 -15 -22 3 -16 7 -8 11 -10 11 -4 17 0 21 0 13 2 13 4 15 4 15 6 12 10 12 rrcurveto
            8 10 13 6 15 0 17 0 13 -6 6 -11 8 -11 3 -14 0 -15 rrcurveto
            return
          </CharString>
          <CharString index="90">
            0 -19 -4 -18 -8 -17 -7 -17 -9 -16 -11 -15 -18 0 -13 3 -7 6 -7 6 -4 12 0 19 0 10 2 13 2 17 4 17 5 14 7 14 rrcurveto
            8 12 11 7 14 0 12 0 9 -5 6 -12 5 -10 3 -11 0 -10 rrcurveto
            return
          </CharString>
          <CharString index="91">
            0 -3 -1 -8 -2 -10 -3 -12 -3 -11 -3 -13 -3 -13 -4 -11 -5 -9 -5 -9 -5 -5 -6 0 -11 0 -9 5 -6 10 -6 11 -5 11 -2 14 rrcurveto
            -4 12 -1 11 0 8 rrcurveto
            return
          </CharString>
          <CharString index="92">
            0 -9 -1 -12 -2 -15 -2 -15 -4 -14 -6 -12 -6 -13 -9 -6 -13 0 -20 0 -12 7 -5 14 -5 14 -2 15 0 17 0 11 1 12 3 13 rrcurveto
            3 14 5 12 7 10 8 11 11 5 14 0 16 0 10 -7 3 -13 4 -13 2 -13 0 -13 rrcurveto
            return
          </CharString>
          <CharString index="93">
            0 -8 -3 -10 -6 -11 -5 -11 -7 -10 -10 -10 -8 -8 -9 -5 -9 0 -13 0 -9 4 -6 7 -7 8 -3 10 0 12 0 12 4 12 8 14 rrcurveto
            9 12 7 12 7 9 3 1 4 0 2 1 4 1 2 0 3 0 12 0 10 -4 8 -8 8 -7 4 -10 0 -13 rrcurveto
            return
          </CharString>
          <CharString index="94">
            132 vlineto
            -15 -4 -16 -3 -17 -2 -17 -2 -17 -1 -15 0 -6 0 -6 0 -6 1 -6 0 -6 0 -6 1 rrcurveto
            -132 vlineto
            7 -1 8 -1 8 -1 8 -1 8 0 7 0 13 0 14 1 17 2 17 2 14 4 12 5 rrcurveto
            return
          </CharString>
          <CharString index="95">
            132 vlineto
            -15 -4 -16 -3 -16 -2 -18 -2 -16 -1 -15 0 -6 0 -6 0 -7 1 -6 0 -6 0 -6 1 rrcurveto
            -132 vlineto
            17 -3 15 -1 14 0 13 0 14 1 17 2 17 2 14 4 12 5 rrcurveto
            return
          </CharString>
          <CharString index="96">
            -24 24 -279 -275 -275 278 -25 -23 276 -279 -279 -276 24 -24 279 275 275 -278 25 23 -276 279 rlineto
            return
          </CharString>
          <CharString index="97">
            132 vlineto
            -15 -4 -16 -3 -16 -2 -18 -2 -16 -1 -15 0 -11 0 -12 1 -14 1 rrcurveto
            -132 vlineto
            7 -1 8 -1 8 -1 8 -1 8 0 7 0 13 0 14 1 17 2 17 2 14 4 12 5 rrcurveto
            return
          </CharString>
          <CharString index="98">
            -12 22 -6 23 0 25 0 10 1 12 1 14 2 13 3 12 4 9 rrcurveto
            -132 -31 rlineto
            -5 -10 -3 -11 -3 -14 -2 -12 -1 -12 0 -11 0 -11 2 -13 5 -13 5 -14 5 -12 6 -11 rrcurveto
            return
          </CharString>
          <CharString index="99">
            -12 23 -6 23 0 24 0 10 1 12 2 14 1 13 3 12 4 9 rrcurveto
            -132 -31 rlineto
            -5 -10 -3 -11 -2 -13 -3 -13 -1 -12 0 -11 0 -12 2 -13 5 -14 5 -13 5 -12 6 -10 rrcurveto
            return
          </CharString>
          <CharString index="100">
            0 34 -218 -51 0 -34 rlineto
            return
          </CharString>
          <CharString index="101">
            -4 -27 -4 -26 -4 -27 -5 -27 -4 -27 -4 -27 -2 -15 -4 -12 -5 -11 -6 -11 -11 -5 -17 0 -12 0 -8 5 -4 8 -3 10 -2 9 0 10 rrcurveto
            0 14 2 17 5 18 4 20 6 18 8 18 8 19 10 15 13 13 13 13 14 7 16 1 rrcurveto
            return
          </CharString>
          <CharString index="102">
            0 -13 -2 -11 -3 -11 -3 -10 -9 -5 -15 0 -5 0 -5 1 -6 1 -4 1 -5 3 -4 3 -7 6 -6 10 -3 13 -3 13 -3 15 -1 16 rrcurveto
            -2 16 -1 15 0 14 rrcurveto
            0 34 10 2 rlineto
            3 1 4 0 3 0 18 0 14 -7 9 -13 10 -13 7 -16 3 -18 4 -17 2 -16 0 -14 rrcurveto
            return
          </CharString>
          <CharString index="103">
            0 -7 -1 -9 -2 -9 -1 -10 -3 -8 -4 -8 -5 -6 -7 -4 -10 0 -13 0 -9 6 -4 12 -6 11 -2 11 0 11 0 11 2 12 5 13 rrcurveto
            5 13 9 6 14 0 13 0 9 -5 4 -9 4 -9 2 -11 0 -11 rrcurveto
            return
          </CharString>
          <CharString index="104">
            -8 0 -7 0 rlineto
            -45 0 -38 -7 -32 -15 -30 -14 -26 -18 -19 -22 -19 -21 -14 -23 -9 -24 -9 -25 -4 -22 0 -20 0 -27 5 -22 9 -18 10 -16 11 -13 13 -8 rrcurveto
            12 -8 10 -4 7 0 9 0 12 5 14 9 16 9 14 9 14 8 22 13 18 9 16 7 rrcurveto
            22 10 -15 26 -15 -6 rlineto
            -9 -4 -7 -2 -5 0 -11 0 -12 8 -10 14 -12 16 -5 17 0 21 0 14 3 16 6 17 6 17 12 16 18 15 17 15 26 10 34 6 rrcurveto
            return
          </CharString>
          <CharString index="105">
            0 27 -5 23 -10 16 -9 18 -11 12 -12 8 -12 8 -10 4 -8 0 -9 0 -11 -5 -16 -9 -14 -9 -15 -9 -14 -8 -22 -13 -19 -9 -14 -7 rrcurveto
            -23 -10 15 -26 14 6 rlineto
            9 4 8 2 5 0 11 0 11 -7 12 -16 10 -14 6 -18 0 -21 0 -14 -3 -16 -6 -17 -6 -17 -12 -16 -17 -15 -17 -15 -26 -10 -35 -6 rrcurveto
            -5 -32 rlineto
            3 0 2 0 3 -1 3 0 2 0 2 0 45 0 39 7 30 15 32 14 25 18 19 22 19 23 14 23 9 24 9 24 4 22 0 20 rrcurveto
            return
          </CharString>
          <CharString index="106">
            0 17 -6 14 -11 11 -12 11 -14 6 -16 0 -17 0 -14 -6 -11 -11 -11 -11 -6 -14 0 -17 0 -17 6 -14 11 -11 11 -11 14 -6 17 0 rrcurveto
            17 0 14 6 11 11 11 12 6 14 0 16 rrcurveto
            return
          </CharString>
          <CharString index="107">
            0 40 -6 36 -11 32 -11 31 -17 25 -23 18 -22 19 -28 9 -35 0 -34 0 -29 -9 -22 -19 -24 -18 -17 -25 -11 -31 -11 -32 -6 -36 0 -40 rrcurveto
            0 -39 6 -36 11 -31 11 -32 17 -25 24 -19 22 -19 29 -9 34 0 35 0 28 9 22 19 23 19 17 25 11 32 11 31 6 36 0 39 rrcurveto
            return
          </CharString>
          <CharString index="108">
            0 40 -6 36 -11 31 -11 32 -17 25 -22 19 -23 18 -28 9 -35 0 -34 0 -28 -9 -24 -18 -22 -19 -18 -25 -11 -32 -11 -31 -6 -36 0 -40 rrcurveto
            0 -40 6 -36 11 -31 11 -32 18 -25 22 -19 24 -18 28 -9 34 0 35 0 28 9 23 18 22 19 17 25 11 32 11 31 6 36 0 40 rrcurveto
            return
          </CharString>
          <CharString index="109">
            0 -53 -6 -42 -12 -30 -11 -32 -20 -15 -27 0 -27 0 -19 15 -14 32 -12 30 -7 42 0 53 0 53 6 42 13 30 13 32 20 15 27 0 rrcurveto
            27 0 20 -15 11 -32 12 -30 6 -42 0 -53 rrcurveto
            return
          </CharString>
          <CharString index="110">
            0 6 -2 5 -4 5 -5 4 -5 2 -6 0 -6 0 -5 -2 -5 -4 -4 -5 -2 -5 0 -6 0 -6 2 -5 4 -5 5 -4 5 -2 6 0 rrcurveto
            6 0 5 2 5 4 4 5 2 5 0 6 rrcurveto
            return
          </CharString>
          <CharString index="111">
            0 -13 -3 -14 -5 -13 -6 -13 -11 -7 -16 0 -15 0 -8 4 -4 8 -2 7 -2 10 0 13 0 11 0 12 1 12 1 12 1 12 1 11 rrcurveto
            10 5 9 2 9 0 17 0 11 -6 5 -13 5 -13 2 -13 0 -14 rrcurveto
            return
          </CharString>
          <CharString index="112">
            0 -14 -2 -13 -6 -13 -4 -13 -12 -6 -17 0 -16 0 -9 4 0 6 -2 8 0 10 0 14 0 11 0 10 2 11 0 10 1 10 1 10 rrcurveto
            5 2 5 2 4 1 6 1 4 1 5 0 17 0 10 -5 3 -11 3 -11 2 -12 0 -13 rrcurveto
            return
          </CharString>
          <CharString index="113">
            0 -13 -3 -14 -5 -13 -5 -13 -11 -7 -16 0 -15 0 -8 4 -4 8 -2 7 -2 10 0 13 0 11 0 11 1 12 1 10 1 11 1 11 rrcurveto
            10 5 9 2 9 0 17 0 10 -6 5 -11 5 -11 2 -13 0 -14 rrcurveto
            return
          </CharString>
          <CharString index="114">
            0 -29 -8 -25 -17 -19 -17 -20 -23 -10 -31 0 rrcurveto
            22 165 rlineto
            7 2 8 1 7 0 19 0 14 -6 8 -14 7 -12 4 -16 0 -17 rrcurveto
            return
          </CharString>
          <CharString index="115">
            -20 -154 rlineto
            -10 -3 -9 -1 -9 0 -19 0 -14 6 -10 11 -10 11 -5 15 0 19 0 26 8 23 16 19 17 19 22 10 27 0 5 0 6 0 5 -1 rrcurveto
            return
          </CharString>
          <CharString index="116">
            -10 10 -8 8 -7 6 -7 6 -3 11 0 16 0 9 2 10 4 10 4 11 4 9 3 8 -9 5 -10 2 -9 0 -20 0 -18 -1 -17 -3 rrcurveto
            -17 -3 -14 -6 -10 -10 -12 -10 -7 -16 -4 -23 rrcurveto
            -162 -20 rlineto
            -9 15 -8 12 -9 7 -9 7 -13 4 -18 0 -13 0 -15 -2 -19 -4 -19 -3 -15 -6 -11 -7 10 -11 7 -9 6 -8 4 -7 3 -12 0 -15 rrcurveto
            0 -13 -3 -11 -5 -8 -5 -9 -8 -8 -9 -9 5 -3 6 -3 8 0 8 -2 7 0 5 0 17 0 18 2 17 2 18 4 16 6 12 10 rrcurveto
            14 9 8 15 3 20 rrcurveto
            164 22 rlineto
            4 -12 8 -10 13 -9 12 -9 12 -4 13 0 17 0 17 3 17 6 16 6 15 7 15 8 rrcurveto
            return
          </CharString>
          <CharString index="117">
            -11 11 -8 10 -7 8 -6 10 -3 12 0 15 0 11 2 10 3 11 4 11 4 10 4 9 -9 5 -9 3 -10 0 -19 0 -19 -2 -20 -3 rrcurveto
            -20 -4 -18 -8 -14 -10 -16 -12 -9 -16 -4 -22 rrcurveto
            -270 -23 rlineto
            -8 16 -12 12 -15 9 -15 9 -17 4 -18 0 -13 0 -15 -2 -19 -3 -19 -4 -15 -6 -11 -7 11 -11 7 -10 5 -9 5 -9 2 -13 0 -15 rrcurveto
            0 -28 -10 -23 -20 -17 6 -3 8 -1 10 -2 10 0 8 -1 6 0 18 0 19 2 19 5 19 4 17 8 15 10 15 12 9 15 3 21 rrcurveto
            272 24 rlineto
            5 -15 11 -12 17 -11 17 -10 16 -5 15 0 17 0 17 3 17 6 16 6 15 7 15 8 rrcurveto
            return
          </CharString>
          <CharString index="118">
            5 -15 11 -13 17 -10 17 -10 16 -5 15 0 17 0 17 3 16 6 17 6 15 7 15 8 -10 10 -8 10 -7 9 -7 9 -3 13 0 15 rrcurveto
            0 11 2 10 4 11 3 11 4 10 4 9 -9 5 -9 3 -10 0 -19 0 -19 -2 -20 -3 -20 -4 -17 -8 -16 -10 -14 -12 -10 -16 -4 -22 rrcurveto
            -245 -30 rlineto
            -9 16 -12 12 -14 9 -16 9 -16 4 -18 0 -13 0 -15 -2 -19 -4 -19 -3 -15 -6 -11 -7 11 -11 7 -10 5 -9 5 -9 2 -13 0 -15 rrcurveto
            0 -28 -10 -23 -20 -17 6 -3 8 -2 10 0 10 -2 8 0 6 0 18 0 19 2 19 4 19 4 17 8 15 11 15 11 9 16 3 21 rrcurveto
            return
          </CharString>
          <CharString index="119">
            0 -22 -4 -20 -9 -17 -9 -17 -11 -17 -13 -17 -23 3 -16 7 -9 11 -9 12 -5 17 0 21 0 13 2 13 4 15 3 15 7 12 9 12 rrcurveto
            9 10 13 6 15 0 17 0 11 -6 8 -11 6 -11 4 -14 0 -15 rrcurveto
            return
          </CharString>
          <CharString index="120">
            5 -15 11 -13 17 -11 17 -10 16 -5 15 0 17 0 17 3 16 6 17 6 15 7 15 8 -10 11 -8 10 -7 9 -7 9 -3 13 0 15 rrcurveto
            0 10 2 10 4 12 3 10 4 11 4 9 -9 5 -9 2 -10 0 -19 0 -19 -2 -20 -3 -20 -4 -17 -8 -16 -10 -14 -12 -10 -16 -4 -22 rrcurveto
            -245 -30 rlineto
            -9 16 -12 12 -14 9 -16 9 -16 4 -18 0 -13 0 -15 -2 -19 -4 -19 -3 -15 -6 -11 -7 11 -11 7 -10 5 -9 5 -9 2 -13 0 -15 rrcurveto
            0 -28 -10 -23 -20 -17 6 -3 8 -2 10 0 10 -2 8 0 6 0 18 0 19 2 19 4 19 5 17 7 15 12 15 10 9 16 3 21 rrcurveto
            return
          </CharString>
          <CharString index="121">
            -4 1 -3 4 -2 8 -2 7 -1 9 0 11 0 5 1 7 2 11 2 11 3 11 2 12 4 13 2 11 3 9 5 17 6 22 8 25 rrcurveto
            8 25 8 27 8 27 7 27 7 26 6 25 5 25 3 20 0 16 0 29 -10 25 -20 19 -19 20 -25 10 -29 0 -14 0 -15 -3 -17 -6 rrcurveto
            -17 -6 -14 -7 -13 -7 -11 7 -13 3 -13 0 -15 0 -16 -1 -15 0 -15 -2 -16 0 -15 -1 rrcurveto
            4 115 182 20 rlineto
            -3 6 -2 9 -1 13 -1 12 0 9 0 6 0 12 1 13 2 13 3 13 3 13 4 11 -11 3 -10 1 -10 0 -42 0 -33 -8 -23 -16 rrcurveto
            -23 -16 -12 -31 0 -45 rrcurveto
            -182 -21 rlineto
            0 33 -8 23 -14 14 -16 14 -23 7 -32 0 -13 0 -14 -2 -16 -4 -15 -4 -14 -5 -11 -7 13 -16 8 -19 5 -21 5 -21 2 -21 0 -20 rrcurveto
            180 19 -4 -109 rlineto
            -40 -1 -38 -3 -36 -6 -36 -6 -32 -11 -27 -17 -28 -16 -22 -23 -16 -31 -15 -30 -8 -40 0 -49 0 -23 4 -20 7 -17 7 -17 18 -9 27 0 rrcurveto
            15 0 13 3 13 6 13 7 12 6 14 7 12 6 14 3 15 0 9 0 8 -1 8 -1 8 -1 8 -1 8 0 20 0 16 5 12 10 rrcurveto
            13 10 9 13 6 15 7 16 4 17 2 17 rrcurveto
            20 148 67 8 rlineto
            -2 -9 -2 -12 -4 -15 -2 -14 -3 -14 -2 -14 -2 -13 -1 -11 0 -8 0 -25 6 -20 10 -15 12 -15 21 -7 31 0 7 0 9 1 13 1 rrcurveto
            13 2 13 2 13 3 14 3 12 2 11 1 -3 -12 -6 -18 -8 -24 -8 -24 -8 -26 -9 -27 -9 -27 -7 -25 -6 -23 -6 -23 -3 -16 0 -9 rrcurveto
            0 -22 5 -15 9 -9 9 -9 16 -4 21 0 17 0 16 1 16 3 16 3 16 2 17 2 rrcurveto
            return
          </CharString>
          <CharString index="122">
            0 -5 -1 -9 -2 -13 -3 -12 -3 -12 -2 -14 rrcurveto
            -8 -32 rlineto
            -6 -1 -5 -1 -3 0 -18 0 -13 6 -8 14 -8 12 -4 15 0 16 0 11 1 11 4 11 2 11 4 11 3 9 8 10 11 5 13 0 rrcurveto
            13 0 9 -4 7 -8 6 -9 3 -10 0 -12 rrcurveto
            return
          </CharString>
          <CharString index="123">
            -5 -27 -5 -26 -4 -27 -6 -27 -4 -27 -5 -27 -3 -14 -4 -12 -6 -12 -5 -10 -11 -6 -17 0 -9 0 -7 5 -4 11 -4 10 -2 9 0 7 rrcurveto
            0 13 2 16 3 19 4 19 6 19 8 19 8 19 10 16 14 13 12 13 16 7 18 0 rrcurveto
            return
          </CharString>
          <CharString index="124">
            -8 9 -5 13 -4 18 -2 18 -2 15 0 11 0 8 0 8 1 9 1 8 1 8 1 8 rrcurveto
            -212 -16 12 245 rlineto
            1 13 0 14 1 12 0 14 0 13 0 13 0 15 -4 10 -7 6 -7 6 -11 3 -14 0 -7 0 -11 -1 -15 -3 -15 -2 -17 -2 -16 -3 rrcurveto
            -18 -3 -14 -2 -13 -2 2 17 2 19 2 24 2 22 2 22 1 18 2 20 1 11 0 4 0 12 -3 11 -8 10 -6 9 -11 5 -13 0 rrcurveto
            -3 -1 -3 0 -2 0 rrcurveto
            -122 -17 0 -16 rlineto
            11 -2 8 -7 5 -12 5 -12 3 -11 0 -9 0 -23 -2 -23 -6 -23 -4 -24 -3 -23 0 -23 0 -11 3 -8 5 -3 5 -3 8 -2 10 0 rrcurveto
            5 0 6 0 5 1 rrcurveto
            16 2 107 16 rlineto
            -1 -21 0 -22 -2 -21 0 -22 -1 -22 -1 -21 -1 -33 -2 -32 -1 -34 -2 -32 -2 -33 -2 -33 rrcurveto
            -226 -17 rlineto
            4 -11 2 -10 0 -10 0 -15 -2 -19 -6 -21 -4 -21 -9 -16 -13 -11 7 -1 6 0 7 0 6 -1 6 0 6 0 20 0 21 4 23 9 rrcurveto
            23 8 18 12 15 17 15 17 5 20 -3 24 rrcurveto
            279 20 rlineto
            3 -33 14 -25 23 -16 23 -17 28 -8 31 0 7 0 8 1 10 2 10 2 7 4 5 5 rrcurveto
            return
          </CharString>
          <CharString index="125">
            -4 5 -3 8 -3 11 -3 11 -1 10 -1 11 -1 11 0 8 0 6 0 18 3 16 5 15 rrcurveto
            -169 -9 rlineto
            4 22 4 20 4 17 3 17 4 20 4 22 1 9 3 13 3 17 3 17 2 12 0 7 0 15 -6 12 -11 8 -11 10 -13 4 -14 0 rrcurveto
            -15 0 -15 0 -14 -2 -16 0 -14 -1 -15 0 -25 0 -16 6 -9 11 -9 12 -4 18 0 23 0 26 4 28 7 31 7 31 13 25 18 20 rrcurveto
            21 23 19 14 19 5 19 6 24 3 30 0 5 -39 10 -28 18 -16 16 -17 29 -8 40 0 7 0 8 1 8 0 9 2 8 1 7 2 rrcurveto
            -9 5 -5 9 -2 14 -3 14 -1 11 0 8 0 9 1 12 2 15 2 15 4 12 5 7 -19 5 -20 2 -20 1 -20 1 -20 0 -20 0 rrcurveto
            -29 0 -33 -2 -35 -3 -36 -4 -34 -7 -34 -11 -32 -11 -28 -16 -22 -22 -27 -27 -20 -28 -13 -28 -13 -30 -7 -33 0 -38 0 -31 5 -25 10 -17 rrcurveto
            10 -18 22 -9 35 0 17 0 16 1 17 0 17 2 16 0 17 0 7 0 7 -1 6 -1 6 -1 3 -5 0 -9 0 -7 -1 -12 -2 -15 rrcurveto
            -3 -15 -2 -15 -3 -14 -3 -19 -4 -19 -5 -19 -4 -19 -4 -19 -3 -19 rrcurveto
            -176 -9 rlineto
            2 -10 1 -11 0 -11 0 -15 -2 -18 -4 -21 -5 -22 -8 -16 -12 -11 7 0 6 0 7 -1 7 -1 6 0 7 0 22 0 21 4 20 9 rrcurveto
            20 9 17 12 14 17 14 16 8 19 3 23 rrcurveto
            184 10 rlineto
            2 -29 11 -23 19 -18 20 -18 24 -9 29 0 7 0 8 1 10 2 11 1 8 3 6 3 rrcurveto
            return
          </CharString>
          <CharString index="126">
            -11 11 -8 10 -7 9 -7 9 -3 13 0 15 0 10 2 10 4 12 4 10 4 11 4 9 -9 5 -10 3 -10 0 -19 0 -19 -2 -20 -4 rrcurveto
            -20 -4 -17 -8 -15 -10 -15 -12 -9 -16 -4 -22 rrcurveto
            -246 -29 rlineto
            -8 16 -11 12 -16 9 -14 8 -17 4 -18 0 -13 0 -16 -2 -19 -3 -19 -3 -15 -6 -11 -7 11 -11 7 -10 5 -10 5 -8 2 -13 0 -15 rrcurveto
            0 -28 -10 -23 -20 -17 6 -3 8 -3 10 0 11 -2 8 0 6 0 17 0 19 2 19 4 19 5 17 8 15 11 15 11 9 16 3 21 rrcurveto
            247 31 rlineto
            5 -15 11 -13 17 -10 17 -10 16 -5 15 0 18 0 17 3 17 5 16 6 15 7 15 8 rrcurveto
            return
          </CharString>
          <CharString index="127">
            -9 3 -7 6 -4 8 -4 8 -2 9 0 9 0 9 1 10 2 9 3 9 1 10 0 9 0 17 -6 15 -10 12 -12 12 -14 6 -17 0 rrcurveto
            -16 0 -16 -1 -16 -3 -16 -3 -15 -3 -15 -4 3 35 2 34 2 35 3 35 2 34 2 35 2 23 1 23 2 23 0 22 1 22 0 23 rrcurveto
            0 35 -4 26 -9 18 -8 17 -14 12 -19 7 -19 6 -26 3 -32 0 -29 0 -29 -4 -28 -7 -28 -7 -26 -13 -24 -17 rrcurveto
            7 160 56 7 rlineto
            9 -20 11 -12 11 -6 12 -4 17 -3 22 0 18 0 17 2 17 5 17 5 15 8 14 13 -21 17 -10 22 0 27 0 8 2 9 2 10 rrcurveto
            4 10 2 9 3 7 -8 5 -8 2 -8 0 -21 0 -20 -2 -20 -2 -20 -4 -17 -6 -15 -12 -14 -10 -10 -18 -5 -24 -43 -5 -42 -5 -42 -6 rrcurveto
            -42 -5 -42 -6 -42 -7 -5 23 -9 15 -12 6 -13 5 -18 3 -23 0 -14 0 -17 -2 -21 -4 -20 -4 -16 -6 -12 -8 11 -11 8 -9 3 -10 rrcurveto
            4 -8 2 -13 0 -16 0 -13 -2 -11 -2 -11 -4 -10 -6 -10 -10 -9 7 -3 9 -3 10 -1 11 -1 9 -1 7 0 16 0 17 2 18 6 rrcurveto
            17 4 16 8 13 12 14 10 9 15 4 17 9 1 10 2 8 1 10 2 9 1 9 1 -1 -27 -1 -28 -2 -27 -1 -28 -1 -28 0 -27 rrcurveto
            0 -8 1 -5 3 -3 3 -3 5 -1 8 0 13 0 14 1 14 2 14 2 14 2 13 1 -31 -36 -20 -42 -11 -49 -10 -48 -5 -47 0 -46 rrcurveto
            0 -51 4 -35 7 -21 7 -21 13 -10 18 0 3 0 3 0 4 1 2 1 3 0 3 0 rrcurveto
            94 18 0 16 rlineto
            -6 2 -4 6 -4 10 -2 10 -2 11 -2 10 0 12 -1 8 0 5 0 69 5 61 9 51 9 52 13 40 16 28 16 29 18 14 20 0 rrcurveto
            15 0 11 -2 5 -3 6 -4 3 -6 1 -10 1 -8 0 -13 0 -15 0 -19 -1 -24 -2 -27 -3 -28 -2 -27 -2 -25 -3 -41 -4 -41 -3 -41 rrcurveto
            -3 -41 -4 -41 -3 -41 -37 -15 -36 -17 -36 -18 -37 -17 -36 -18 -36 -18 9 -13 6 -13 5 -15 5 -15 2 -15 0 -15 0 -9 -1 -8 -2 -9 rrcurveto
            37 3 30 10 23 15 23 15 11 29 0 41 0 5 0 5 -1 4 0 6 0 4 -1 5 13 7 14 6 12 7 14 7 13 6 13 6 rrcurveto
            7 3 11 4 14 3 14 4 14 3 14 3 14 2 11 1 9 0 rrcurveto
            2 hlineto
            18 0 11 -7 4 -14 4 -13 2 -15 0 -17 0 -12 1 -12 2 -11 3 -11 5 -10 8 -7 7 -7 12 -4 16 0 11 0 15 2 21 4 rrcurveto
            20 4 17 4 14 5 rrcurveto
            return
          </CharString>
          <CharString index="128">
            -9 8 -9 10 -8 14 -8 12 -4 13 0 13 0 21 3 22 7 22 -25 -5 -26 -4 -27 -2 -27 -2 -26 -2 -26 -1 -45 -3 -37 -5 -29 -8 rrcurveto
            -29 -8 -23 -16 -16 -23 -16 -24 -11 -36 -6 -48 rrcurveto
            -102 -19 rlineto
            1 5 0 4 0 5 rrcurveto
            14 vlineto
            0 51 -11 36 -24 22 -22 23 -37 11 -50 0 -39 0 -38 -4 -37 -7 -37 -7 -38 -5 -38 -3 9 -18 4 -19 0 -20 0 -13 -5 -13 -8 -12 rrcurveto
            -10 -12 -10 -9 -11 -7 7 -4 9 -3 11 -2 12 -1 10 -1 8 0 37 0 31 10 26 20 25 19 13 29 0 39 rrcurveto
            14 2 rlineto
            5 1 4 0 4 0 27 0 16 -8 7 -16 7 -16 3 -19 0 -23 0 -7 0 -8 -1 -7 -1 -8 0 -8 -1 -7 rrcurveto
            -19 -196 rlineto
            -3 -31 -7 -23 -11 -17 -12 -17 -23 -8 -35 -1 -12 17 -15 11 -19 7 -18 7 -19 3 -20 0 -11 0 -13 -1 -13 -2 -13 -3 -12 -3 -11 -5 rrcurveto
            8 -9 7 -11 6 -13 6 -13 3 -13 0 -12 0 -11 -2 -12 -4 -13 -4 -13 -5 -11 -6 -9 4 -1 5 -2 4 0 6 -2 4 0 4 0 rrcurveto
            29 0 25 2 18 3 20 3 15 8 11 11 12 11 9 18 6 23 17 3 18 2 18 4 18 2 18 4 17 4 35 9 26 11 16 15 rrcurveto
            18 15 10 25 4 37 rrcurveto
            16 157 100 19 -32 -296 rlineto
            -1 -13 -1 -13 0 -14 0 -13 2 -10 5 -7 5 -8 9 -4 14 0 19 0 20 1 20 2 19 2 20 2 19 1 rrcurveto
            16 vlineto
            -13 4 -7 9 0 13 0 6 0 6 0 6 1 7 0 6 1 6 rrcurveto
            38 368 rlineto
            2 21 3 18 3 13 4 13 7 10 11 8 10 6 16 5 23 1 -1 -3 0 -2 0 -3 rrcurveto
            -7 vlineto
            0 -35 10 -23 19 -11 19 -10 25 -5 31 0 13 0 13 1 16 2 14 3 14 4 11 5 rrcurveto
            return
          </CharString>
          <CharString index="129">
            -8 9 -5 13 -4 18 -2 18 -2 15 0 11 0 8 0 8 1 9 1 8 1 8 1 8 rrcurveto
            -217 -16 2 18 rlineto
            1 6 1 6 1 6 rrcurveto
            72 297 rlineto
            3 11 3 12 2 13 2 13 1 12 0 12 0 42 -11 30 -22 18 -23 17 -31 9 -40 0 -33 0 -29 -4 -25 -9 -25 -9 -25 -9 -25 -9 rrcurveto
            -24 -10 -27 -7 -31 -3 7 -14 4 -14 0 -15 0 -14 -3 -15 -4 -16 -6 -15 -6 -14 -9 -11 5 -1 5 -1 7 -1 6 -1 5 0 5 0 rrcurveto
            41 0 32 13 23 27 22 26 11 33 0 39 13 6 14 3 14 0 20 0 13 -8 5 -15 6 -15 3 -16 0 -16 0 -7 0 -8 -1 -8 rrcurveto
            -1 -7 -1 -8 -2 -7 rrcurveto
            -92 -356 rlineto
            -1 -5 -1 -5 0 -7 rrcurveto
            -212 -16 rlineto
            4 -11 2 -10 0 -10 0 -15 -2 -19 -6 -21 -4 -21 -9 -16 -13 -11 7 -1 6 0 7 0 6 -1 6 0 6 0 20 0 21 4 23 9 rrcurveto
            23 9 18 12 15 17 15 16 5 20 -3 24 rrcurveto
            279 20 rlineto
            3 -33 14 -25 23 -16 23 -17 28 -8 31 0 7 0 8 1 11 2 10 2 7 4 4 5 rrcurveto
            return
          </CharString>
          <CharString index="130">
            0 36 -11 31 -20 25 -22 26 -29 13 -38 0 -16 0 -16 -2 -15 -3 -15 -4 -16 -4 -15 -5 -10 -3 -11 -2 -11 0 -12 -1 -11 -2 -11 -3 rrcurveto
            -33 -11 -23 -17 -11 -24 -11 -23 -6 -28 0 -33 0 -44 6 -37 13 -29 13 -30 23 -15 33 0 11 0 15 2 19 3 19 3 16 4 15 4 rrcurveto
            -2 -10 -3 -14 -5 -18 -5 -18 -5 -20 -7 -23 -6 -22 -6 -22 -6 -22 -6 -23 -5 -20 -5 -17 -4 -18 -2 -14 -1 -9 rrcurveto
            -212 -16 rlineto
            2 -5 1 -5 2 -5 0 -5 1 -6 0 -5 0 -16 -3 -18 -4 -21 -6 -21 -8 -16 -13 -11 7 0 6 0 6 -1 7 -1 6 0 6 0 rrcurveto
            20 0 21 4 23 9 23 8 18 12 15 17 15 17 5 20 -3 24 rrcurveto
            279 20 rlineto
            3 -33 14 -25 23 -16 23 -17 28 -8 31 0 7 0 9 1 9 2 9 2 8 4 5 5 -9 10 -5 13 -3 17 -3 17 -1 14 0 13 rrcurveto
            0 8 0 8 1 9 1 8 1 8 1 8 rrcurveto
            -207 -16 rlineto
            -3 1 -1 3 0 3 -1 3 0 3 0 2 0 6 1 7 1 7 rrcurveto
            82 324 rlineto
            7 24 3 24 0 25 rrcurveto
            return
          </CharString>
          <CharString index="131">
            -87 -20 rlineto
            0 39 3 27 7 17 7 17 13 8 20 0 14 0 10 -7 5 -15 5 -15 3 -22 0 -29 rrcurveto
            return
          </CharString>
          <CharString index="132">
            -1 -11 -2 -14 -4 -16 -5 -17 -5 -14 -6 -13 -5 -13 -6 -6 -6 0 -12 0 -9 5 -6 10 -6 11 -4 11 -3 14 -3 12 -1 11 0 8 rrcurveto
            return
          </CharString>
          <CharString index="133">
            -7 4 -6 7 -4 11 -4 10 -3 10 -1 12 -2 10 -1 10 0 7 0 12 1 13 2 15 1 15 3 13 4 11 rrcurveto
            -251 -14 rlineto
            2 10 1 10 2 10 0 10 1 10 0 10 0 24 -5 20 -10 16 -9 16 -19 8 -27 0 -17 0 -18 -1 -17 -1 -17 -2 -18 -1 -17 -1 rrcurveto
            10 11 11 11 10 10 12 11 11 10 11 10 14 13 15 14 16 15 16 15 14 17 11 19 12 18 6 19 0 20 rrcurveto
            244 11 rlineto
            -1 7 -2 7 -1 6 -1 8 -1 6 0 7 0 15 2 16 2 16 4 15 3 15 4 15 -7 1 -6 0 -6 0 -7 1 -6 0 -7 0 rrcurveto
            -33 0 -29 -8 -25 -17 -25 -17 -12 -26 0 -37 rrcurveto
            -314 -15 rlineto
            -4 39 -13 25 -21 13 -21 12 -28 6 -36 0 -8 0 -9 -1 -12 -1 -10 -2 -10 -3 -8 -4 12 -8 8 -13 5 -17 5 -17 2 -15 0 -13 rrcurveto
            0 -7 0 -8 -2 -7 0 -7 -2 -8 -1 -7 rrcurveto
            250 11 rlineto
            0 -25 -11 -23 -20 -21 -22 -20 -31 -24 -41 -28 -29 -19 -25 -22 -22 -24 -21 -24 -11 -28 0 -33 0 -30 8 -24 16 -20 16 -18 24 -10 31 0 rrcurveto
            15 0 20 1 24 1 23 2 22 1 21 1 rrcurveto
            -22 -157 rlineto
            -1 -7 -1 -8 -1 -8 -1 -8 -1 -8 0 -7 0 -14 2 -11 5 -7 4 -7 10 -4 15 0 6 0 6 0 7 2 6 0 6 1 6 1 rrcurveto
            93 15 0 14 rlineto
            -6 3 -6 4 -6 6 -6 7 -3 7 0 9 0 8 1 10 1 11 2 11 1 10 1 7 rrcurveto
            17 128 rlineto
            27 3 28 2 29 1 0 -41 8 -32 15 -21 16 -22 30 -11 43 0 5 0 8 0 10 1 11 0 10 1 10 1 10 1 7 2 5 3 rrcurveto
            return
          </CharString>
          <CharString index="134">
            0 -12 -1 -12 -2 -12 -2 -12 -2 -12 -1 -12 -7 -1 -8 0 -7 0 -7 -1 -8 0 -7 0 -12 0 -10 4 -7 7 -8 8 -4 10 0 12 rrcurveto
            0 12 3 12 5 13 5 13 6 11 6 10 3 1 4 1 4 0 rrcurveto
            10 hlineto
            15 0 12 -2 8 -5 8 -5 4 -11 0 -17 rrcurveto
            return
          </CharString>
          <CharString index="135">
            0 -14 -2 -17 -5 -21 -5 -20 -4 -17 -3 -14 -3 -1 -2 0 -2 0 -3 -1 -2 0 -3 0 -17 0 -13 8 -9 15 -9 16 -4 15 0 15 rrcurveto
            0 10 2 10 2 12 4 10 3 11 3 9 9 11 11 6 14 0 13 0 9 -4 6 -9 7 -8 3 -10 0 -12 rrcurveto
            return
          </CharString>
          <CharString index="136">
            19 151 0 9 rlineto
            20 -11 10 -22 vhcurveto
            -5 0 -9 -1 -13 -3 -13 -2 -13 -3 -13 -3 -13 -4 -11 -3 -9 -2 rrcurveto
            -14 vlineto
            7 -3 4 -4 1 -4 1 -5 1 -5 0 -7 -2 -1 -5 0 -7 0 rrcurveto
            -22 0 -17 0 rlineto
            4 13 6 20 7 26 8 26 8 28 8 31 9 30 7 29 6 27 6 28 3 22 0 16 0 32 -8 26 -17 20 -16 21 -25 10 -34 0 rrcurveto
            -17 0 -17 -3 -17 -6 -16 -5 -15 -8 -14 -11 -4 3 -5 3 -8 2 -6 2 -6 1 -5 0 -13 0 -14 -1 -12 0 -14 -2 -13 0 -13 -1 rrcurveto
            -138 -7 rlineto
            -29 -1 -29 -3 -28 -3 -30 -3 -27 -7 -27 -9 -26 -10 -24 -15 -22 -21 -23 -22 -17 -25 -10 -29 -9 -29 -5 -30 0 -31 0 -24 5 -21 11 -17 rrcurveto
            11 -18 18 -9 27 0 15 0 14 3 13 6 13 7 14 6 13 7 13 7 14 3 15 0 5 0 5 -1 6 -1 4 -2 6 -1 5 0 rrcurveto
            30 0 24 7 18 14 18 15 11 22 4 30 rrcurveto
            22 168 67 8 rlineto
            -4 -21 -4 -22 -5 -22 -5 -22 -2 -22 0 -22 0 -25 7 -17 16 -10 14 -10 19 -5 23 0 17 0 18 2 19 3 19 3 18 4 16 3 rrcurveto
            -71 -233 rlineto
            -4 -13 -4 -14 -2 -14 -4 -15 -1 -14 0 -14 0 -19 3 -17 5 -14 5 -14 15 -7 23 0 15 0 17 2 19 3 19 3 16 3 15 3 rrcurveto
            17 vlineto
            -5 3 -3 4 -2 7 -2 7 -1 6 0 5 0 23 4 22 7 22 7 23 7 22 6 21 rrcurveto
            62 hlineto
            -1 -16 -2 -16 -1 -16 -1 -15 -1 -16 0 -16 0 -10 1 -9 4 -8 2 -8 8 -4 11 0 16 0 16 1 17 3 17 2 16 2 16 1 rrcurveto
            0 -20 1 -20 3 -20 3 -20 6 -16 12 -13 10 -13 19 -6 27 0 13 0 15 1 14 4 16 2 13 4 13 4 -9 17 -7 19 -6 22 rrcurveto
            -6 21 -3 20 0 19 0 7 1 7 0 6 2 8 1 6 1 7 rrcurveto
            return
          </CharString>
          <CharString index="137">
            -81 -200 rlineto
            -3 -8 -5 -9 -6 -11 -6 -11 -7 -9 -8 -7 -7 -8 -9 -4 -11 0 -12 0 -9 5 -8 11 -6 10 -4 10 0 11 0 10 1 10 3 11 rrcurveto
            2 11 2 10 3 9 6 23 9 25 12 26 13 25 16 22 20 17 20 18 24 9 28 0 7 0 8 -2 8 -4 rrcurveto
            return
          </CharString>
          <CharString index="138">
            0 -9 -1 -12 -1 -15 -2 -15 -3 -15 -4 -15 -4 -15 -6 -13 -7 -10 -8 -11 -11 -5 -13 0 -21 0 -10 11 0 22 0 4 0 4 1 5 rrcurveto
            1 4 0 4 1 4 rrcurveto
            27 155 rlineto
            3 1 2 0 4 0 2 1 3 0 3 0 15 0 10 -4 6 -9 6 -9 4 -10 1 -13 1 -12 1 -12 0 -11 rrcurveto
            return
          </CharString>
          <CharString index="139">
            9 121 rlineto
            2 26 -11 13 -24 0 -9 0 -11 -1 -12 -3 -14 -3 -12 -3 -13 -3 -13 -3 -11 -3 -9 -2 rrcurveto
            -14 vlineto
            7 -1 5 -6 1 -9 1 -10 1 -8 0 -5 0 -7 0 -8 -1 -6 -1 -8 0 -6 -1 -7 rrcurveto
            -45 -8 rlineto
            2 13 1 12 0 13 0 23 -4 22 -8 22 -7 21 -12 18 -16 14 -16 14 -21 7 -26 0 -14 0 -15 -3 -17 -6 -16 -6 -15 -6 -13 -5 rrcurveto
            -9 14 rlineto
            -27 0 -27 -1 -27 -1 -27 -1 -27 -3 -27 -3 -25 -3 -25 -4 -25 -4 -25 -5 -25 -3 -25 -1 -29 -1 -28 -3 -28 -3 -26 -3 -26 -7 -24 -10 rrcurveto
            -24 -10 -23 -16 -23 -21 -17 -16 -17 -19 -16 -23 -17 -23 -13 -24 -11 -25 -11 -25 -5 -25 0 -25 0 -27 8 -24 17 -19 16 -19 22 -10 29 0 rrcurveto
            17 0 16 3 12 6 14 5 12 6 12 5 11 6 13 3 13 0 10 0 10 0 9 -1 9 -1 10 0 10 0 32 0 25 6 16 11 rrcurveto
            18 12 14 21 11 29 rrcurveto
            93 249 50 6 -38 -179 rlineto
            -2 -10 -2 -10 -2 -10 -1 -11 -1 -10 0 -11 0 -21 4 -12 10 -5 8 -5 14 -2 19 0 12 0 12 1 11 2 11 3 12 3 11 3 rrcurveto
            5 1 7 2 8 2 7 3 7 1 5 0 9 0 8 0 8 -1 9 -1 8 0 9 0 36 0 31 9 27 19 27 18 19 26 11 35 rrcurveto
            52 8 rlineto
            0 -13 1 -11 2 -9 3 -10 8 -5 15 0 9 0 15 1 20 3 19 3 18 2 15 2 2 -19 4 -18 5 -17 5 -17 9 -13 13 -10 rrcurveto
            12 -10 17 -5 22 0 5 0 6 1 8 0 9 2 8 1 8 3 8 3 5 3 2 5 -4 3 -3 6 -2 12 -2 10 -1 13 -2 13 rrcurveto
            0 14 -1 13 -1 11 0 12 0 8 0 5 rrcurveto
            return
          </CharString>
          <CharString index="140">
            -11 5 -8 10 -5 16 -5 15 -2 13 0 11 0 13 1 12 2 12 1 12 2 12 3 12 rrcurveto
            -150 -6 rlineto
            2 15 2 17 2 19 2 19 1 14 0 11 1 20 -10 10 -19 0 -4 0 -4 0 -3 -1 -4 -1 -4 0 -3 -1 rrcurveto
            -101 -23 0 -14 rlineto
            7 -1 5 -3 4 -3 3 -4 2 -6 -1 -7 -2 -13 -2 -13 -1 -11 -1 -12 -2 -12 -3 -12 rrcurveto
            -64 -3 rlineto
            2 13 1 12 0 13 0 23 -4 22 -8 22 -7 21 -12 18 -16 14 -16 14 -21 7 -26 0 -14 0 -15 -3 -17 -6 -16 -6 -15 -6 -13 -5 rrcurveto
            -9 14 rlineto
            -27 0 -27 -1 -27 -1 -27 -1 -27 -3 -27 -3 -25 -3 -25 -4 -25 -4 -25 -5 -25 -3 -25 -1 -29 -1 -28 -3 -28 -3 -26 -3 -26 -7 -24 -10 rrcurveto
            -24 -10 -23 -16 -23 -21 -17 -16 -17 -19 -16 -23 -17 -23 -13 -24 -11 -25 -11 -25 -5 -25 0 -25 0 -27 8 -24 17 -19 16 -19 22 -10 29 0 rrcurveto
            17 0 16 3 12 6 14 5 12 6 12 5 11 6 13 3 13 0 10 0 10 0 9 -1 9 -1 10 0 10 0 32 0 25 6 16 11 rrcurveto
            18 12 14 21 11 29 rrcurveto
            93 249 50 6 -38 -179 rlineto
            -2 -10 -2 -10 -2 -10 -1 -11 -1 -10 0 -11 0 -21 4 -12 10 -5 8 -5 14 -2 19 0 11 0 12 1 10 2 12 2 10 3 11 3 rrcurveto
            5 1 7 2 9 3 8 3 7 1 6 0 9 0 8 0 8 -1 9 -1 8 0 9 0 36 0 31 9 27 19 27 18 19 26 11 35 rrcurveto
            206 12 0 -11 rlineto
            0 -32 12 -25 23 -19 23 -18 27 -9 29 0 9 0 9 1 11 4 11 2 9 4 8 3 rrcurveto
            return
          </CharString>
          <CharString index="141">
            -11 9 -7 13 -6 18 -4 17 -4 19 -1 18 -1 20 -1 15 1 12 rrcurveto
            -133 120 -140 -120 -64 hlineto
            1 15 0 16 1 16 1 15 0 16 0 15 0 40 -3 34 -7 28 -7 27 -14 21 -21 15 -22 15 -34 7 -45 0 -31 0 -30 -4 -30 -7 rrcurveto
            -29 -7 -27 -13 -25 -17 -25 -17 -19 -23 -15 -29 -15 -29 -10 -29 -6 -30 -6 -29 -3 -38 0 -47 -1 -21 0 -21 0 -20 rrcurveto
            -63 vlineto
            0 -44 1 -34 4 -25 2 -25 4 -17 4 -11 4 -11 4 -7 4 -4 7 -7 9 -4 11 0 5 1 6 0 6 1 rrcurveto
            101 15 0 13 rlineto
            -13 5 -9 5 -5 6 -5 5 -4 10 -1 15 -2 15 -1 22 0 31 rrcurveto
            49 vlineto
            0 75 2 62 3 48 3 48 5 38 4 26 6 28 5 20 5 12 6 14 6 9 5 5 6 6 7 4 7 2 7 3 8 1 8 0 rrcurveto
            21 0 16 -7 11 -15 11 -14 7 -17 3 -20 3 -20 2 -18 0 -16 0 -14 0 -21 -2 -28 0 -28 -2 -31 -2 -34 -1 -34 -2 -34 -1 -35 rrcurveto
            -2 -34 -2 -31 -1 -27 -1 -27 -1 -21 0 -14 0 -15 2 -13 5 -10 5 -11 11 -5 18 0 rrcurveto
            18 2 104 15 0 16 rlineto
            -18 4 -10 6 -2 7 -2 7 -1 12 0 16 0 9 0 13 1 17 0 17 0 20 2 22 0 22 2 23 1 22 1 24 1 20 1 19 rrcurveto
            206 hlineto
            -1 -8 -1 -8 0 -7 0 -33 10 -24 21 -16 21 -16 25 -8 31 0 9 0 10 1 12 4 12 2 10 5 7 7 rrcurveto
            return
          </CharString>
          <CharString index="142">
            -85 hlineto
            15 19 12 21 9 22 10 22 5 23 0 25 0 9 -3 10 -5 9 -5 9 -8 5 -11 0 -10 0 -9 -1 -8 -1 rrcurveto
            -103 -15 0 -21 rlineto
            4 -3 5 -4 4 -6 6 -7 2 -6 0 -5 0 -24 -10 -26 -21 -30 -21 -28 -33 -38 -45 -47 -38 -39 -30 -33 -20 -27 -22 -28 -14 -25 -8 -21 rrcurveto
            -9 -22 -4 -22 0 -22 0 -30 8 -25 15 -21 15 -20 24 -10 32 0 6 0 11 3 16 5 16 6 16 6 16 8 17 6 12 5 8 2 rrcurveto
            36 11 37 8 38 4 37 6 38 2 37 0 7 -24 11 -18 17 -12 17 -12 20 -6 25 0 13 0 16 2 18 4 17 5 14 7 10 10 rrcurveto
            -11 8 -9 11 -7 13 -7 13 -4 14 0 13 0 3 0 6 1 7 1 7 1 7 2 8 2 6 3 5 3 1 -5 3 -7 3 -8 2 rrcurveto
            -8 1 -7 1 -7 0 -23 0 -22 -4 -21 -6 -20 -8 -17 -13 -14 -20 rrcurveto
            -85 -4 rlineto
            7 11 6 14 4 15 4 15 2 15 0 13 0 27 -8 20 -16 13 -16 12 -21 6 -26 0 -16 0 -16 -1 -16 -3 -17 -3 -16 -3 -16 -3 rrcurveto
            21 26 23 24 25 21 25 22 23 23 23 24 rrcurveto
            252 hlineto
            6 -33 14 -27 23 -21 22 -20 28 -10 35 0 5 0 9 1 12 1 12 2 8 3 4 5 -6 7 -5 10 -3 14 -3 14 -3 14 -1 15 rrcurveto
            -1 15 -1 11 0 8 0 5 0 5 0 6 1 4 0 6 0 5 rrcurveto
            -158 0 17 102 rlineto
            0 2 0 2 0 1 1 2 0 2 0 2 0 23 -11 12 -23 0 -5 -1 -5 0 -5 -1 rrcurveto
            -94 -17 0 -15 rlineto
            4 -1 3 -4 1 -6 2 -5 1 -5 -1 -3 rrcurveto
            return
          </CharString>
          <CharString index="143">
            30 vlineto
            0 9 0 10 -1 9 -1 11 -1 9 -3 8 -3 7 -8 4 -13 0 -5 0 -5 0 -5 -1 rrcurveto
            -99 -17 0 -15 rlineto
            5 -1 3 -4 0 -5 2 -6 0 -5 0 -3 rrcurveto
            -3 -59 -101 -17 28 279 111 10 rlineto
            7 -31 12 -25 17 -19 17 -20 25 -10 34 0 11 0 12 2 13 6 13 4 11 7 9 7 -9 9 -7 12 -4 13 -6 14 -2 13 0 13 rrcurveto
            0 9 0 10 1 9 1 10 1 10 1 9 rrcurveto
            -661 -60 rlineto
            3 -8 3 -9 2 -11 2 -11 1 -10 0 -9 0 -12 -2 -13 -4 -14 -4 -15 -5 -12 -6 -11 7 -3 9 -3 9 -2 9 -2 9 -1 8 0 rrcurveto
            35 0 28 12 22 25 22 25 11 29 0 33 rrcurveto
            100 8 -49 -419 rlineto
            -1 -7 -2 -9 0 -9 -2 -9 0 -9 0 -7 0 -14 3 -12 5 -10 5 -10 12 -5 19 0 11 0 10 1 10 2 rrcurveto
            92 17 0 13 rlineto
            -16 9 -8 14 0 19 0 10 1 10 1 10 1 11 1 10 1 10 rrcurveto
            8 78 217 34 rlineto
            9 -37 17 -26 23 -18 24 -16 31 -9 37 0 8 0 12 1 16 2 15 3 11 4 5 6 -19 21 -15 22 -13 25 -12 25 -8 26 -3 27 rrcurveto
            return
          </CharString>
          <CharString index="144">
            5 -15 11 -13 17 -11 16 -10 16 -5 16 0 17 0 17 3 16 6 17 6 15 7 15 8 -11 11 -8 10 -6 8 -7 10 -3 12 0 16 rrcurveto
            0 10 2 10 4 12 3 10 4 11 4 9 -9 5 -10 2 -9 0 -19 0 -19 -2 -20 -3 -20 -4 -17 -8 -16 -10 -14 -12 -10 -16 -4 -22 rrcurveto
            -245 -30 rlineto
            -9 16 -12 12 -14 9 -16 9 -16 4 -18 0 -13 0 -15 -2 -19 -4 -19 -3 -15 -6 -11 -7 11 -11 7 -10 5 -9 5 -9 2 -13 0 -15 rrcurveto
            0 -27 -10 -22 -20 -19 6 -3 8 -2 10 0 10 -2 8 0 6 0 18 0 19 2 19 4 19 4 17 8 15 11 15 11 9 16 3 21 rrcurveto
            return
          </CharString>
          <CharString index="145">
            -11 11 -8 10 -6 9 -7 9 -3 13 0 15 0 10 2 10 4 12 3 10 4 11 4 9 -9 5 -9 2 -10 0 -19 0 -19 -2 -20 -3 rrcurveto
            -20 -4 -17 -8 -16 -10 -14 -12 -10 -16 -4 -22 rrcurveto
            -245 -30 rlineto
            -9 16 -12 12 -14 9 -16 9 -16 4 -18 0 -13 0 -15 -2 -19 -4 -19 -3 -15 -6 -11 -7 11 -11 7 -10 5 -9 5 -9 2 -13 0 -15 rrcurveto
            0 -28 -10 -23 -20 -17 6 -3 8 -2 10 0 10 -2 8 0 6 0 18 0 19 2 19 4 19 5 17 7 15 12 15 10 9 16 3 21 rrcurveto
            247 32 rlineto
            5 -15 11 -13 17 -11 17 -10 16 -5 15 0 17 0 17 3 16 6 17 6 15 7 15 8 rrcurveto
            return
          </CharString>
          <CharString index="146">
            -15 0 -13 -5 -12 -10 -11 -11 -6 -13 0 -15 0 -16 5 -13 12 -10 10 -11 14 -5 16 0 16 0 13 5 9 11 10 10 5 13 0 16 rrcurveto
            0 15 -5 13 -10 11 -9 10 -13 5 -16 0 rrcurveto
            return
          </CharString>
          <CharString index="147">
            -15 0 -13 -5 -11 -10 -12 -11 -6 -13 0 -15 0 -16 6 -13 11 -10 11 -10 14 -5 15 0 16 0 13 5 10 10 9 11 5 13 0 15 rrcurveto
            0 16 -5 13 -9 10 -10 10 -13 5 -16 0 rrcurveto
            return
          </CharString>
          <CharString index="148">
            -15 0 -13 -5 -11 -11 -12 -10 -6 -13 0 -15 0 -16 6 -13 10 -11 12 -10 13 -5 16 0 17 0 13 5 9 10 9 11 5 13 0 16 rrcurveto
            0 15 -5 13 -9 10 -10 11 -13 5 -16 0 rrcurveto
            return
          </CharString>
          <CharString index="149">
            -15 0 -13 -5 -11 -10 -11 -11 -6 -13 0 -15 0 -16 5 -13 11 -10 11 -11 13 -5 16 0 17 0 13 5 9 11 9 11 5 13 0 15 rrcurveto
            0 15 -5 13 -10 11 -9 10 -13 5 -16 0 rrcurveto
            return
          </CharString>
          <CharString index="150">
            -15 0 -13 -5 -12 -10 -11 -11 -6 -13 0 -15 0 -16 5 -13 12 -10 10 -11 14 -5 16 0 16 0 13 5 9 11 9 10 5 13 0 16 rrcurveto
            0 15 -5 13 -9 11 -9 10 -13 5 -16 0 rrcurveto
            return
          </CharString>
          <CharString index="151">
            -15 0 -13 -5 -11 -11 -12 -10 -6 -13 0 -15 0 -16 6 -13 10 -11 12 -10 13 -5 16 0 16 0 13 5 10 10 9 11 5 13 0 16 rrcurveto
            0 15 -5 13 -9 10 -10 11 -13 5 -16 0 rrcurveto
            return
          </CharString>
          <CharString index="152">
            -11 11 -8 10 -6 9 -7 9 -3 13 0 15 0 10 2 11 4 10 3 12 4 10 4 9 -9 5 -9 2 -10 0 -19 0 -19 -2 -20 -4 rrcurveto
            -20 -3 -17 -7 -16 -12 -14 -10 -10 -17 -4 -22 rrcurveto
            -245 -30 rlineto
            -9 16 -12 12 -14 9 -16 9 -16 4 -18 0 -13 0 -15 -2 -19 -3 -19 -4 -15 -6 -11 -7 11 -11 7 -10 5 -9 5 -9 2 -13 0 -15 rrcurveto
            0 -28 -10 -23 -20 -17 6 -3 8 -1 10 -2 10 0 8 -1 6 0 18 0 19 2 19 5 19 4 17 8 15 10 15 12 9 15 3 21 rrcurveto
            247 32 rlineto
            5 -15 11 -13 17 -10 17 -11 16 -5 15 0 17 0 17 3 16 6 17 6 15 7 15 8 rrcurveto
            return
          </CharString>
          <CharString index="153">
            -11 11 -8 10 -6 9 -7 9 -3 13 0 15 0 10 2 10 4 12 3 10 4 11 4 9 -9 5 -9 3 -10 0 -19 0 -19 -2 -20 -4 rrcurveto
            -20 -4 -17 -8 -16 -10 -14 -12 -10 -16 -4 -22 rrcurveto
            -245 -29 rlineto
            -9 16 -12 12 -14 9 -16 8 -16 4 -18 0 -13 0 -15 -2 -19 -4 -19 -3 -15 -6 -11 -7 11 -11 7 -9 5 -10 5 -8 2 -13 0 -15 rrcurveto
            0 -28 -10 -23 -20 -17 6 -3 8 -3 10 0 10 -2 8 0 6 0 18 0 19 2 19 4 19 5 17 8 15 11 15 11 9 16 3 21 rrcurveto
            247 31 rlineto
            5 -15 11 -13 17 -10 17 -10 16 -5 15 0 17 0 17 3 16 5 17 6 15 7 15 8 rrcurveto
            return
          </CharString>
          <CharString index="154">
            -11 11 -8 10 -6 9 -7 9 -3 13 0 15 0 10 2 10 4 12 3 10 4 11 4 9 -9 5 -9 3 -10 0 -19 0 -19 -2 -20 -4 rrcurveto
            -20 -4 -17 -8 -16 -10 -14 -12 -10 -16 -4 -22 rrcurveto
            -245 -29 rlineto
            -9 15 -12 12 -14 9 -16 9 -16 4 -18 0 -13 0 -15 -2 -19 -4 -19 -3 -15 -6 -11 -7 11 -11 7 -9 5 -10 5 -8 2 -13 0 -15 rrcurveto
            0 -28 -10 -23 -20 -17 6 -3 8 -3 10 0 10 -2 8 0 6 0 18 0 19 2 19 4 19 5 17 7 15 12 15 10 9 16 3 21 rrcurveto
            247 32 rlineto
            5 -15 11 -13 17 -11 17 -10 16 -5 15 0 17 0 17 3 16 6 17 6 15 7 15 8 rrcurveto
            return
          </CharString>
        <CharString name=".notdef">
          37 49 hmoveto
          586 879 -586 hlineto
          24 -25 rmoveto
          537 -830 -537 hlineto
          endchar
        </CharString>
        <CharString name=".null">
          endchar
        </CharString>
        <CharString name="A">
          27 669 hmoveto
          -105 callsubr
          -19 296 rmoveto
          -104 callsubr
          endchar
        </CharString>
        <CharString name="AE">
          287 901 hmoveto
          167 -57 vlineto
          -15 -99 rlineto
          0 -3 -2 -4 -4 -5 -4 -5 -4 -2 -4 0 rrcurveto
          -229 275 126 hlineto
          4 0 4 -2 4 -4 4 -4 2 -4 0 -3 rrcurveto
          9 -70 49 0 0 223 -49 0 -9 -69 rlineto
          0 -3 -2 -4 -4 -4 -3 -5 -4 -2 -5 0 rrcurveto
          -126 250 194 hlineto
          5 0 3 -2 4 -4 2 -4 2 -4 1 -5 rrcurveto
          14 -82 58 0 0 149 -530 0 0 -42 49 -5 rlineto
          3 0 4 -2 3 -2 3 -4 2 -3 0 -4 0 -2 0 -2 -1 -2 rrcurveto
          -340 -552 -53 -8 0 -43 197 0 0 43 -57 5 rlineto
          -7 1 -3 3 0 7 0 3 1 4 2 3 rrcurveto
          112 181 231 0 0 -181 rlineto
          0 -5 -3 -4 -4 -5 -6 -5 -6 -2 -7 -1 rrcurveto
          -49 -4 0 -43 rlineto
          75 299 rmoveto
          -203 0 203 326 rlineto
          endchar
        </CharString>
        <CharString name="Aacute">
          27 502 881 rmoveto
          0 10 -3 10 -7 10 -6 10 -12 5 -17 0 -13 0 -11 -2 -7 -5 -7 -5 -8 -6 -7 -9 rrcurveto
          -133 -155 57 0 151 97 rlineto
          15 10 8 13 0 17 rrcurveto
          167 -881 rmoveto
          -105 callsubr
          -19 296 rmoveto
          -104 callsubr
          endchar
        </CharString>
        <CharString name="Acircumflex">
          27 485 744 rmoveto
          -126 170 -75 0 -126 -170 60 0 104 100 103 -100 rlineto
          244 -744 rmoveto
          -105 callsubr
          -19 296 rmoveto
          -104 callsubr
          endchar
        </CharString>
        <CharString name="Adieresis">
          27 485 831 rmoveto
          0 15 -5 12 -12 12 -10 10 -13 6 -15 0 -14 0 -13 -6 -11 -11 -11 -11 -6 -13 0 -14 0 -15 5 -13 12 -11 10 -11 13 -6 15 0 rrcurveto
          15 0 13 6 11 11 11 11 5 13 0 15 rrcurveto
          -207 hmoveto
          0 15 -6 12 -10 12 -12 10 -12 6 -15 0 -15 0 -12 -6 -12 -12 -10 -11 -6 -13 0 -14 0 -15 6 -13 10 -10 12 -12 12 -5 15 0 rrcurveto
          15 0 13 6 11 11 11 11 5 13 0 15 rrcurveto
          391 -831 rmoveto
          -105 callsubr
          -19 296 rmoveto
          -104 callsubr
          endchar
        </CharString>
        <CharString name="Agrave">
          27 380 744 rmoveto
          -133 155 rlineto
          -7 9 -7 6 -7 5 -7 5 -10 2 -14 0 -17 0 -12 -5 -8 -10 -6 -10 -4 -10 0 -10 0 -9 2 -8 5 -6 5 -7 5 -5 7 -5 rrcurveto
          152 -97 rlineto
          345 -744 rmoveto
          -105 callsubr
          -19 296 rmoveto
          -104 callsubr
          endchar
        </CharString>
        <CharString name="Aring">
          27 452 869 rmoveto
          0 23 -6 21 -11 19 -11 19 -15 15 -19 10 -19 12 -21 5 -23 0 -23 0 -21 -5 -19 -12 -19 -10 -15 -15 -10 -19 -12 -19 -5 -21 0 -23 rrcurveto
          0 -23 5 -21 12 -19 10 -19 15 -15 19 -11 19 -11 21 -6 23 0 23 0 21 6 19 11 19 11 15 15 11 19 11 19 6 21 0 23 rrcurveto
          217 -869 rmoveto
          -105 callsubr
          -39 869 rmoveto
          0 -18 -6 -15 -13 -13 -13 -13 -15 -6 -18 0 -18 0 -15 6 -13 13 -13 13 -6 15 0 18 0 18 6 15 13 13 13 13 15 6 18 0 rrcurveto
          18 0 15 -6 13 -13 13 -13 6 -15 0 -18 rrcurveto
          20 -573 rmoveto
          -104 callsubr
          endchar
        </CharString>
        <CharString name="Atilde">
          27 502 885 rmoveto
          -40 hlineto
          -1 -12 -6 -11 -10 -10 -10 -10 -12 -5 -13 0 -21 0 -18 4 -14 8 -14 8 -13 8 -13 8 -13 8 -15 4 -18 0 -33 0 -25 -11 -19 -22 rrcurveto
          -19 -22 -13 -26 -7 -29 rrcurveto
          40 hlineto
          1 12 6 11 10 10 11 10 12 5 13 0 22 0 18 -4 14 -8 13 -8 13 -8 13 -8 13 -8 15 -4 17 0 33 0 25 11 19 22 rrcurveto
          19 22 13 26 7 29 rrcurveto
          167 -885 rmoveto
          -105 callsubr
          -19 296 rmoveto
          -104 callsubr
          endchar
        </CharString>
        <CharString name="B">
          -42 566 198 rmoveto
          0 39 -9 31 -19 24 -18 22 -23 17 -29 10 -28 10 -29 5 -30 0 20 5 21 9 22 10 23 12 19 16 16 20 15 22 8 27 0 33 rrcurveto
          0 50 -17 39 -36 29 -34 29 -58 14 -80 0 rrcurveto
          -268 -43 hlineto
          53 -4 rlineto
          7 0 6 -2 3 -6 3 -4 2 -5 0 -5 rrcurveto
          -533 vlineto
          0 -5 -2 -4 -3 -5 -3 -5 -6 -2 -7 -1 rrcurveto
          -53 -4 0 -43 280 0 rlineto
          27 0 27 3 30 5 28 6 28 10 26 14 26 15 21 20 17 25 16 26 8 33 0 41 rrcurveto
          -149 305 rmoveto
          0 -43 -13 -33 -26 -23 -25 -24 -46 -12 -65 0 -5 0 -8 0 -9 0 rrcurveto
          -14 1 0 253 rlineto
          3 0 8 0 12 2 12 0 11 1 11 0 51 0 39 -11 25 -20 26 -22 13 -30 0 -39 rrcurveto
          40 -313 rmoveto
          0 -47 -14 -36 -28 -23 -28 -23 -49 -12 -70 0 -6 0 -8 0 -10 1 -10 0 -9 0 -7 1 rrcurveto
          -12 1 0 264 rlineto
          2 0 6 0 10 2 11 0 12 2 13 0 13 2 12 0 11 0 53 0 40 -11 27 -21 27 -21 14 -34 0 -45 rrcurveto
          endchar
        </CharString>
        <CharString name="C">
          -20 588 185 rmoveto
          -58 0 -23 -109 rlineto
          -2 -9 -6 -7 -11 -4 -1 0 -8 -3 -15 -5 -15 -6 -19 -3 -23 0 -79 0 -62 26 -44 53 -46 53 -22 73 0 93 0 64 10 54 22 43 rrcurveto
          20 44 29 33 37 23 36 22 41 11 45 0 23 0 20 -3 17 -6 17 -6 12 -5 9 -4 rrcurveto
          4 -2 rlineto
          3 -1 3 -3 4 -5 3 -4 3 -5 1 -5 rrcurveto
          15 -91 60 0 0 157 rlineto
          -41 13 -35 9 -30 7 -29 7 -31 3 -33 0 -69 0 -61 -15 -53 -30 -53 -29 -41 -41 -29 -52 -29 -53 -15 -61 0 -69 0 -46 8 -44 15 -42 rrcurveto
          15 -42 23 -38 30 -33 29 -33 37 -27 43 -19 43 -19 50 -10 56 0 34 0 32 3 30 6 29 6 25 6 19 7 19 7 11 3 1 1 rrcurveto
          endchar
        </CharString>
        <CharString name="Ccedilla">
          -20 588 185 rmoveto
          -58 0 -23 -109 rlineto
          -2 -9 -6 -7 -11 -4 -1 0 -8 -3 -15 -5 -15 -6 -19 -3 -23 0 -53 0 -45 12 -37 25 -38 24 -29 34 -21 46 -20 44 -10 54 0 62 rrcurveto
          0 64 10 54 22 42 20 44 29 32 37 22 36 22 41 11 45 0 23 0 20 -3 17 -6 17 -6 12 -5 9 -4 rrcurveto
          4 -2 rlineto
          3 -1 3 -3 4 -5 5 -5 2 -4 0 -5 rrcurveto
          15 -91 60 0 0 157 rlineto
          -41 13 -35 9 -30 7 -29 7 -31 3 -33 0 -69 0 -61 -15 -53 -30 -53 -29 -41 -41 -29 -52 -29 -53 -15 -61 0 -69 0 -44 7 -42 14 -41 rrcurveto
          14 -40 20 -36 27 -33 27 -33 33 -26 39 -20 39 -21 46 -12 51 -4 rrcurveto
          0 -97 8 3 rlineto
          5 2 5 1 5 0 13 0 11 -3 9 -7 9 -6 5 -9 0 -12 0 -15 -7 -11 -13 -6 -13 -6 -15 -3 -16 0 -13 0 -13 1 -14 3 rrcurveto
          -21 4 0 -39 24 -5 rlineto
          16 -3 17 -2 17 0 33 0 28 8 22 17 23 16 11 23 0 31 0 25 -7 19 -15 10 -14 12 -17 5 -20 0 -5 0 -5 -1 -3 0 rrcurveto
          -3 -2 -4 0 -3 -1 rrcurveto
          47 vlineto
          33 0 31 3 28 7 29 6 23 6 18 6 19 7 10 3 1 1 rrcurveto
          endchar
        </CharString>
        <CharString name="D">
          49 657 337 rmoveto
          0 77 -16 64 -32 48 -32 50 -44 36 -55 24 -55 23 -63 12 -70 0 rrcurveto
          -258 -43 hlineto
          53 -4 rlineto
          7 0 6 -2 4 -6 3 -4 2 -5 0 -5 rrcurveto
          -533 vlineto
          0 -5 -2 -4 -3 -5 -4 -5 -6 -2 -7 -1 rrcurveto
          -53 -4 0 -43 278 0 rlineto
          63 0 53 9 44 19 45 18 36 25 27 31 27 32 20 36 13 41 13 41 6 42 0 43 rrcurveto
          -113 -2 rmoveto
          0 -69 -11 -55 -21 -41 -21 -42 -30 -30 -38 -20 -38 -18 -45 -10 -51 -1 rrcurveto
          -81 -1 0 575 76 0 rlineto
          53 0 45 -9 40 -20 38 -18 31 -31 21 -42 21 -42 11 -56 0 -70 rrcurveto
          endchar
        </CharString>
        <CharString name="Delta">
          -7 635 hmoveto
          -295 718 -334 -718 rlineto
          493 56 rmoveto
          -418 0 222 474 rlineto
          endchar
        </CharString>
        <CharString name="E">
          -63 551 hmoveto
          -103 callsubr
          endchar
        </CharString>
        <CharString name="Eacute">
          -63 551 hmoveto
          -103 callsubr
          437 882 rmoveto
          -77 callsubr
          endchar
        </CharString>
        <CharString name="Ecircumflex">
          -63 462 744 rmoveto
          -125 170 -74 0 -126 -170 59 0 103 100 103 -100 rlineto
          149 -744 rmoveto
          -103 callsubr
          endchar
        </CharString>
        <CharString name="Edieresis">
          -63 464 831 rmoveto
          0 15 -5 12 -11 12 -10 10 -12 6 -15 0 -14 0 -13 -6 -12 -11 -11 -11 -6 -13 0 -14 0 -15 6 -13 11 -11 11 -11 13 -6 15 0 rrcurveto
          15 0 13 6 10 11 10 11 5 13 0 15 rrcurveto
          -207 hmoveto
          0 15 -5 12 -11 12 -11 10 -12 6 -15 0 -15 0 -12 -6 -12 -12 -10 -11 -6 -13 0 -14 0 -15 6 -13 10 -10 12 -12 12 -5 15 0 rrcurveto
          15 0 13 6 11 11 10 11 5 13 0 15 rrcurveto
          294 -831 rmoveto
          -103 callsubr
          endchar
        </CharString>
        <CharString name="Egrave">
          -63 367 744 rmoveto
          -78 callsubr
          241 -744 rmoveto
          -103 callsubr
          endchar
        </CharString>
        <CharString name="Eth">
          49 657 335 rmoveto
          0 60 -9 51 -20 43 -18 43 -27 34 -33 27 -34 27 -39 19 -45 13 -44 13 -48 6 -51 0 rrcurveto
          -257 -43 hlineto
          53 -5 rlineto
          5 0 5 -2 5 -5 4 -5 2 -4 0 -5 rrcurveto
          -225 -91 -51 91 -257 vlineto
          0 -5 -2 -4 -4 -5 -3 -5 -5 -2 -7 -1 rrcurveto
          -53 -4 0 -43 279 0 rlineto
          77 0 64 15 51 29 51 29 39 40 25 51 26 51 13 57 0 63 rrcurveto
          -113 hmoveto
          0 -97 -22 -72 -45 -48 -45 -46 -64 -24 -83 0 rrcurveto
          -78 278 160 51 -160 246 77 hlineto
          83 0 64 -23 45 -45 45 -45 23 -74 0 -101 rrcurveto
          endchar
        </CharString>
        <CharString name="Euro">
          -144 387 392 rmoveto
          -198 hlineto
          11 57 18 41 27 24 27 23 36 13 45 1 20 -1 20 0 21 -2 21 0 20 -4 21 -7 rrcurveto
          85 vlineto
          -21 5 -18 3 -16 2 -16 2 -15 1 -13 0 -77 0 -62 -21 -47 -42 -47 -41 -32 -60 -15 -79 rrcurveto
          -48 -59 42 hlineto
          -1 -9 -1 -8 0 -8 0 -7 0 -6 1 -7 1 -6 0 -7 1 -8 rrcurveto
          -43 -59 51 hlineto
          17 -81 32 -58 48 -33 48 -34 58 -17 68 0 rrcurveto
          18 hlineto
          9 0 11 1 12 1 12 1 18 4 25 6 rrcurveto
          85 vlineto
          -15 -5 -12 -4 -11 -2 -10 -1 -13 -1 -17 0 -34 0 -30 2 -26 6 -27 4 -23 13 -18 19 -20 19 -15 32 -12 43 rrcurveto
          171 0 8 59 -188 0 rlineto
          -2 13 -1 12 0 10 0 5 0 5 1 6 1 4 0 6 0 5 rrcurveto
          196 hlineto
          endchar
        </CharString>
        <CharString name="Euro.punct">
          -84 524 185 rmoveto
          -49 0 -20 -109 rlineto
          -1 -9 -6 -7 -9 -4 -1 0 -6 -3 -12 -5 -13 -6 -16 -3 -20 0 -59 0 -48 20 -37 41 -37 41 -22 56 -9 73 rrcurveto
          203 0 9 45 -215 0 rlineto
          -1 3 0 4 0 4 rrcurveto
          11 vlineto
          0 4 0 4 1 3 0 4 0 4 0 4 rrcurveto
          223 0 10 46 -230 0 rlineto
          9 73 23 56 37 39 37 38 43 19 51 0 19 0 16 -3 14 -6 13 -5 11 -5 8 -4 1 -1 0 0 1 0 rrcurveto
          0 0 4 -2 rlineto
          3 -1 3 -3 3 -5 3 -5 2 -4 0 -5 rrcurveto
          13 -91 51 0 0 157 rlineto
          -35 13 -29 9 -26 7 -24 7 -27 3 -28 0 -52 0 -47 -12 -41 -23 -41 -23 -34 -33 -26 -42 -27 -43 -17 -49 -8 -56 rrcurveto
          -72 0 -10 -46 78 0 0 -12 0 -11 0 -11 0 -11 -68 0 -10 -45 82 0 rlineto
          8 -52 16 -48 25 -43 25 -43 32 -35 42 -26 40 -26 49 -13 55 0 29 0 28 3 25 6 25 6 21 6 16 7 16 7 9 3 1 1 rrcurveto
          endchar
        </CharString>
        <CharString name="F">
          -105 511 512 rmoveto
          159 -486 -43 vlineto
          61 -4 rlineto
          7 0 6 -2 3 -6 3 -4 2 -5 0 -5 rrcurveto
          -533 vlineto
          0 -5 -2 -4 -3 -5 -3 -5 -6 -2 -7 -1 rrcurveto
          -53 -4 0 -43 263 0 0 43 -67 4 rlineto
          -7 1 -6 2 -3 5 -3 5 -2 4 0 5 rrcurveto
          244 153 vlineto
          4 0 4 -2 4 -5 4 -4 2 -4 0 -3 rrcurveto
          9 -70 50 0 0 225 -50 0 -9 -70 rlineto
          -1 -3 -2 -4 -3 -5 -3 -4 -4 -2 -5 0 rrcurveto
          -153 260 213 hlineto
          5 0 4 -2 2 -4 4 -3 1 -4 1 -5 rrcurveto
          14 -92 rlineto
          endchar
        </CharString>
        <CharString name="G">
          48 670 281 rmoveto
          43 -261 -43 vlineto
          67 -5 rlineto
          7 -1 6 -2 3 -4 3 -4 2 -5 0 -5 rrcurveto
          -200 vlineto
          -2 0 -10 -3 -17 -4 -17 -6 -20 -2 -22 0 -78 0 -62 26 -47 53 -46 53 -23 74 0 96 0 62 10 52 21 44 21 42 28 33 37 23 rrcurveto
          37 22 42 11 48 0 21 0 20 -3 16 -6 18 -5 13 -5 10 -5 3 -1 2 -1 1 0 5 -2 4 -3 4 -4 4 -4 2 -5 1 -6 rrcurveto
          16 -90 60 0 0 162 -16 4 rlineto
          -28 7 -29 7 -28 7 -30 6 -31 3 -34 0 -75 0 -64 -15 -54 -28 -55 -30 -41 -40 -30 -53 -28 -53 -15 -61 0 -70 0 -46 8 -44 15 -43 rrcurveto
          15 -42 23 -38 30 -32 30 -34 37 -26 43 -19 43 -19 50 -10 55 0 36 0 34 3 32 7 32 7 26 6 20 7 rrcurveto
          30 10 0 231 rlineto
          0 5 2 5 3 5 3 4 6 2 7 0 rrcurveto
          endchar
        </CharString>
        <CharString name="H">
          97 711 hmoveto
          0 43 -52 4 rlineto
          -7 1 -6 2 -4 5 -3 5 -2 4 0 5 rrcurveto
          533 vlineto
          0 5 2 4 3 5 4 5 6 2 7 0 rrcurveto
          52 4 0 44 -253 0 0 -44 57 -4 rlineto
          7 0 5 -2 3 -5 4 -5 2 -4 0 -5 rrcurveto
          -225 -329 225 vlineto
          0 5 2 4 3 5 3 5 6 2 7 0 rrcurveto
          57 4 0 44 -253 0 0 -44 52 -4 rlineto
          7 0 6 -2 3 -5 4 -5 2 -4 0 -5 rrcurveto
          -533 vlineto
          0 -5 -2 -4 -4 -5 -3 -5 -6 -2 -7 -1 rrcurveto
          -52 -4 0 -43 253 0 0 43 -57 4 rlineto
          -7 1 -6 2 -3 5 -3 5 -2 4 0 5 rrcurveto
          258 329 -258 vlineto
          0 -5 -2 -4 -4 -5 -3 -5 -5 -2 -7 -1 rrcurveto
          -57 -4 0 -43 rlineto
          endchar
        </CharString>
        <CharString name="I">
          -316 297 hmoveto
          -102 callsubr
          endchar
        </CharString>
        <CharString name="Iacute">
          -316 323 882 rmoveto
          -77 callsubr
          -26 -882 rmoveto
          -102 callsubr
          endchar
        </CharString>
        <CharString name="Icircumflex">
          -316 329 744 rmoveto
          -125 170 -77 0 -126 -170 62 0 103 100 103 -100 rlineto
          28 -744 rmoveto
          -102 callsubr
          endchar
        </CharString>
        <CharString name="Idieresis">
          -316 323 831 rmoveto
          0 15 -5 12 -12 12 -10 10 -13 6 -15 0 -14 0 -12 -6 -12 -11 -10 -11 -6 -13 0 -14 0 -15 6 -13 10 -11 12 -11 12 -6 15 0 rrcurveto
          15 0 13 6 11 11 10 11 5 13 0 15 rrcurveto
          -207 hmoveto
          0 15 -6 12 -10 12 -12 10 -12 6 -15 0 -14 0 -13 -6 -10 -12 -12 -11 -5 -13 0 -14 0 -15 5 -13 12 -10 10 -12 13 -5 14 0 rrcurveto
          15 0 12 6 12 11 10 11 6 13 0 15 rrcurveto
          181 -831 rmoveto
          -102 callsubr
          endchar
        </CharString>
        <CharString name="Igrave">
          -316 231 744 rmoveto
          -78 callsubr
          123 -744 rmoveto
          -102 callsubr
          endchar
        </CharString>
        <CharString name="J">
          -162 459 628 rmoveto
          43 -264 -43 vlineto
          63 -4 rlineto
          7 0 6 -2 3 -6 3 -4 2 -5 0 -5 rrcurveto
          -356 vlineto
          0 -70 -10 -53 -19 -35 -19 -35 -33 -18 -45 0 -10 0 -10 2 -9 3 -9 4 -6 7 -2 10 rrcurveto
          -22 122 -60 0 0 -171 rlineto
          2 -1 8 -2 13 -5 13 -5 17 -4 20 -5 20 -4 21 -2 21 0 54 0 43 11 32 21 32 22 23 31 14 41 15 40 7 48 0 55 rrcurveto
          349 vlineto
          0 5 2 5 4 4 3 6 5 2 7 0 rrcurveto
          endchar
        </CharString>
        <CharString name="K">
          -8 638 hmoveto
          0 43 -72 5 -224 328 204 244 rlineto
          2 1 6 1 12 1 10 1 11 2 11 0 rrcurveto
          16 2 0 43 -212 0 0 -43 51 -5 rlineto
          7 -1 3 -4 0 -7 0 -2 -1 -2 -1 -1 rrcurveto
          -218 -266 -36 0 0 262 rlineto
          0 5 2 5 3 4 4 6 6 2 7 0 rrcurveto
          57 4 0 43 -254 0 0 -43 53 -4 rlineto
          7 0 6 -2 3 -6 3 -4 2 -5 0 -5 rrcurveto
          -533 vlineto
          0 -5 -2 -4 -3 -5 -3 -5 -6 -2 -7 -1 rrcurveto
          -53 -4 0 -43 254 0 0 43 -57 4 rlineto
          -7 1 -6 2 -4 5 -3 5 -2 4 0 5 rrcurveto
          229 70 vlineto
          186 -267 0 -31 rlineto
          endchar
        </CharString>
        <CharString name="L">
          -116 513 hmoveto
          186 -58 vlineto
          -16 -120 rlineto
          -1 -4 -2 -4 -5 -4 -5 -3 -4 -2 -5 0 rrcurveto
          -210 553 hlineto
          0 5 2 5 3 4 4 6 6 2 7 0 rrcurveto
          53 4 0 43 -255 0 0 -43 58 -4 rlineto
          7 0 6 -2 3 -6 3 -4 2 -5 0 -5 rrcurveto
          -533 vlineto
          0 -5 -2 -4 -3 -5 -3 -5 -6 -2 -7 -1 rrcurveto
          -58 -4 0 -43 rlineto
          endchar
        </CharString>
        <CharString name="M">
          229 845 hmoveto
          0 43 -54 4 rlineto
          -7 1 -6 2 -4 5 -3 5 -2 4 0 5 rrcurveto
          533 vlineto
          0 5 2 5 3 4 4 6 6 2 7 0 rrcurveto
          54 4 0 43 -230 0 0 -30 -181 -488 -181 491 0 27 -224 0 0 -43 57 -4 rlineto
          7 0 6 -2 3 -6 3 -4 2 -5 0 -5 rrcurveto
          -533 vlineto
          0 -5 -2 -4 -3 -5 -3 -5 -6 -2 -7 -1 rrcurveto
          -57 -4 0 -43 216 0 0 43 -57 4 rlineto
          -7 1 -6 2 -3 5 -4 5 -2 4 0 5 rrcurveto
          0 542 222 -611 50 0 230 620 0 -551 rlineto
          0 -5 -2 -4 -4 -5 -3 -5 -6 -2 -7 -1 rrcurveto
          -53 -4 0 -43 rlineto
          endchar
        </CharString>
        <CharString name="N">
          75 692 628 rmoveto
          -101 callsubr
          endchar
        </CharString>
        <CharString name="NoBreakSpace">
          -354 endchar
        </CharString>
        <CharString name="Ntilde">
          75 544 885 rmoveto
          -40 hlineto
          -1 -12 -6 -11 -10 -10 -10 -10 -12 -5 -13 0 -21 0 -18 4 -14 8 -14 8 -13 8 -13 8 -13 8 -15 4 -18 0 -33 0 -25 -11 -19 -22 rrcurveto
          -18 -22 -13 -26 -7 -29 rrcurveto
          40 hlineto
          1 12 6 11 10 10 10 10 12 5 13 0 22 0 18 -4 14 -8 13 -8 13 -8 14 -8 12 -8 16 -4 17 0 33 0 25 11 19 22 rrcurveto
          18 22 13 26 7 29 rrcurveto
          148 -257 rmoveto
          -101 callsubr
          endchar
        </CharString>
        <CharString name="O">
          84 692 335 rmoveto
          -100 callsubr
          -116 -1 rmoveto
          -99 callsubr
          endchar
        </CharString>
        <CharString name="OE">
          353 967 hmoveto
          167 -54 vlineto
          -17 -99 rlineto
          -1 -3 -2 -4 -4 -5 -4 -5 -4 -2 -4 0 rrcurveto
          -253 275 150 hlineto
          4 0 4 -2 4 -4 4 -5 2 -4 0 -3 rrcurveto
          10 -69 51 0 0 223 -51 0 -10 -69 rlineto
          0 -3 -2 -4 -4 -4 -3 -4 -4 -2 -5 0 rrcurveto
          -150 249 217 hlineto
          5 0 4 -2 4 -4 3 -4 2 -4 0 -5 rrcurveto
          15 -82 60 0 0 149 -412 0 0 -55 rlineto
          -23 23 -27 17 -32 12 -32 13 -36 6 -41 0 -67 0 -54 -16 -44 -31 -42 -31 -32 -43 -22 -52 -20 -54 -11 -59 0 -65 0 -67 11 -61 22 -52 rrcurveto
          21 -54 33 -41 43 -31 43 -31 55 -15 65 0 40 0 36 6 32 12 32 13 27 17 23 23 rrcurveto
          -55 vlineto
          -14 334 rmoveto
          0 -39 -3 -38 -5 -35 -5 -36 -9 -32 -13 -27 -13 -27 -18 -22 -23 -16 -23 -15 -30 -8 -36 0 -35 0 -29 8 -24 15 -22 16 -18 22 -14 27 rrcurveto
          -12 27 -10 32 -4 36 -6 36 -2 38 0 40 0 40 2 38 6 35 4 35 10 32 12 26 14 28 18 21 23 15 23 16 30 8 36 0 rrcurveto
          47 0 36 -13 25 -27 26 -27 18 -35 10 -45 9 -45 5 -49 0 -55 rrcurveto
          endchar
        </CharString>
        <CharString name="Oacute">
          84 540 882 rmoveto
          0 10 -3 10 -7 10 -7 9 -12 5 -17 0 -13 0 -11 -2 -6 -5 -8 -5 -7 -6 -7 -9 rrcurveto
          -134 -155 57 0 152 97 rlineto
          15 9 8 14 0 18 rrcurveto
          152 -547 rmoveto
          -100 callsubr
          -116 -1 rmoveto
          -99 callsubr
          endchar
        </CharString>
        <CharString name="Ocircumflex">
          84 528 744 rmoveto
          -126 170 -75 0 -125 -170 60 0 103 100 103 -100 rlineto
          224 -409 rmoveto
          -100 callsubr
          -116 -1 rmoveto
          -99 callsubr
          endchar
        </CharString>
        <CharString name="Odieresis">
          85 522 831 rmoveto
          0 15 -5 12 -11 12 -11 10 -13 6 -15 0 -14 0 -13 -6 -10 -11 -12 -11 -5 -13 0 -14 0 -15 5 -13 12 -11 10 -11 13 -6 15 0 rrcurveto
          15 0 13 6 10 11 11 11 5 13 0 15 rrcurveto
          -207 hmoveto
          -76 callsubr
          377 -496 rmoveto
          -100 callsubr
          -116 -1 rmoveto
          -99 callsubr
          endchar
        </CharString>
        <CharString name="Ograve">
          84 418 744 rmoveto
          -134 155 rlineto
          -7 9 -7 6 -8 5 -6 5 -11 2 -13 0 -17 0 -12 -5 -7 -9 -7 -10 -3 -10 0 -10 0 -17 8 -14 15 -10 rrcurveto
          152 -97 rlineto
          331 -409 rmoveto
          -100 callsubr
          -116 -1 rmoveto
          -99 callsubr
          endchar
        </CharString>
        <CharString name="Omega">
          118 730 415 rmoveto
          0 58 -14 51 -28 43 -27 43 -40 34 -52 24 -52 24 -62 12 -73 0 -73 0 -62 -12 -52 -24 -52 -24 -40 -34 -27 -43 -28 -43 -14 -51 0 -58 rrcurveto
          0 -41 8 -36 15 -32 15 -31 20 -27 26 -22 24 -23 28 -17 31 -12 31 -13 30 -7 30 -2 rrcurveto
          -62 -156 vlineto
          -8 0 -9 2 -11 4 -11 5 -9 7 -8 10 -7 10 -4 13 0 17 rrcurveto
          -21 -158 281 176 hlineto
          -57 17 -45 29 -33 42 -34 40 -17 51 0 59 0 33 6 32 11 31 11 32 16 28 21 26 21 24 25 20 30 16 29 14 33 8 36 0 rrcurveto
          36 0 33 -8 29 -14 29 -16 25 -20 22 -24 20 -26 17 -28 11 -32 11 -31 6 -32 0 -33 0 -59 -17 -51 -34 -40 -34 -42 -45 -29 -56 -17 rrcurveto
          -176 281 158 -21 vlineto
          0 -17 -4 -13 -7 -10 -8 -10 -9 -7 -11 -5 -10 -4 -9 -2 -9 0 rrcurveto
          -156 62 hlineto
          31 2 30 7 30 13 30 12 28 17 25 23 25 22 21 27 15 31 15 32 8 36 0 41 rrcurveto
          endchar
        </CharString>
        <CharString name="Oslash">
          84 692 335 rmoveto
          0 59 -12 55 -22 51 -24 50 -32 41 -41 32 11 17 10 17 10 17 9 16 9 15 9 15 rrcurveto
          -47 28 -57 -96 rlineto
          -21 11 -24 8 -25 7 -25 6 -27 3 -28 0 -49 0 -45 -9 -41 -18 -40 -18 -34 -25 -29 -33 -29 -32 -22 -37 -14 -43 -16 -42 -7 -45 0 -49 rrcurveto
          0 -58 11 -54 21 -48 21 -50 30 -40 38 -31 rrcurveto
          -63 -106 46 -28 rlineto
          11 17 10 18 10 16 10 18 10 17 11 17 47 -27 54 -13 60 0 49 0 44 9 41 19 40 18 34 25 29 32 29 32 22 37 15 42 rrcurveto
          15 43 8 45 0 49 rrcurveto
          -116 -1 rmoveto
          0 -53 -8 -48 -15 -45 -15 -45 -24 -36 -31 -27 -31 -27 -40 -14 -48 0 -25 0 -22 4 -21 9 -20 8 -18 11 -16 14 49 83 49 82 48 80 rrcurveto
          47 80 44 74 40 67 19 -27 15 -32 9 -38 9 -37 5 -40 0 -43 rrcurveto
          -97 258 rmoveto
          -274 -462 rlineto
          -17 27 -12 31 -9 36 -9 35 -4 38 0 39 0 53 8 49 15 44 15 45 24 35 31 28 31 26 40 14 48 0 45 0 37 -13 31 -25 rrcurveto
          endchar
        </CharString>
        <CharString name="Otilde">
          84 537 885 rmoveto
          -40 hlineto
          -1 -12 -6 -11 -10 -10 -10 -10 -12 -5 -14 0 -21 0 -18 4 -14 8 -14 8 -13 8 -13 8 -13 8 -15 4 -17 0 -33 0 -25 -11 -19 -22 rrcurveto
          -19 -22 -13 -26 -7 -29 rrcurveto
          40 hlineto
          1 12 6 11 9 10 10 10 12 5 14 0 22 0 18 -4 14 -8 13 -8 13 -8 14 -8 12 -8 16 -4 17 0 33 0 25 11 19 22 rrcurveto
          19 22 13 26 7 29 rrcurveto
          155 -550 rmoveto
          -100 callsubr
          -116 -1 rmoveto
          -99 callsubr
          endchar
        </CharString>
        <CharString name="P">
          -67 540 469 rmoveto
          0 74 -22 52 -45 31 -45 30 -69 15 -95 0 rrcurveto
          -239 -43 hlineto
          60 -4 rlineto
          7 0 6 -2 4 -6 3 -4 2 -5 0 -5 rrcurveto
          -533 vlineto
          0 -5 -2 -4 -3 -5 -4 -5 -6 -2 -7 -1 rrcurveto
          -53 -4 0 -43 263 0 0 43 -66 4 rlineto
          -7 1 -6 2 -3 5 -3 5 -2 4 0 5 rrcurveto
          186 vlineto
          3 -1 9 0 16 -2 15 0 15 -1 13 0 rrcurveto
          3 hlineto
          48 0 44 8 38 16 40 16 30 24 24 33 22 32 12 40 0 49 rrcurveto
          -104 -1 rmoveto
          0 -57 -15 -43 -31 -26 -30 -28 -41 -13 -52 0 rrcurveto
          -3 hlineto
          -9 0 -12 1 -13 2 -13 1 -8 1 -1 0 rrcurveto
          0 315 18 1 rlineto
          13 0 11 0 9 0 63 0 46 -14 27 -26 27 -28 14 -37 0 -49 rrcurveto
          endchar
        </CharString>
        <CharString name="Q">
          92 700 335 rmoveto
          0 66 -14 59 -26 54 -28 52 -38 43 -50 31 -49 31 -59 16 -68 0 -50 0 -45 -9 -41 -18 -40 -18 -34 -25 -30 -33 -28 -32 -23 -37 -15 -43 rrcurveto
          -15 -43 -8 -45 0 -49 0 -65 12 -58 24 -49 24 -49 33 -40 42 -30 42 -30 48 -19 53 -8 0 -51 15 -41 29 -31 29 -30 50 -15 70 0 rrcurveto
          33 0 31 2 27 5 27 4 19 3 9 2 1 0 0 0 1 1 rrcurveto
          0 0 0 43 -1 -1 -1 0 rlineto
          -6 -1 -11 -2 -17 -3 -17 -3 -20 -1 -23 0 -46 0 -34 11 -23 21 -23 22 -11 30 -1 37 58 9 50 21 40 32 42 32 31 40 22 49 rrcurveto
          22 49 11 54 0 60 rrcurveto
          -118 hmoveto
          0 -52 -8 -49 -15 -44 -15 -46 -24 -36 -32 -28 -31 -27 -40 -14 -48 0 -47 0 -40 14 -32 28 -31 28 -24 37 -15 45 -16 45 -8 49 0 52 rrcurveto
          0 53 8 49 15 45 15 44 24 36 31 26 31 28 40 13 49 0 49 0 41 -14 31 -27 31 -28 23 -36 16 -45 14 -45 8 -48 0 -53 rrcurveto
          endchar
        </CharString>
        <CharString name="R">
          2 649 -3 rmoveto
          45 vlineto
          -31 0 -25 4 -17 8 -18 9 -13 11 -9 14 -9 15 -6 16 -4 18 -4 18 -4 19 -5 18 -4 20 -6 18 -8 17 -9 17 -13 16 -18 14 rrcurveto
          -17 14 -24 11 -31 7 29 7 26 9 25 13 25 13 20 17 15 23 16 22 8 28 0 35 0 66 -22 46 -44 27 -43 26 -60 13 -76 0 rrcurveto
          -261 -43 hlineto
          52 -4 rlineto
          7 0 6 -2 3 -6 4 -4 2 -5 0 -5 rrcurveto
          -533 vlineto
          0 -5 -2 -4 -4 -5 -3 -5 -6 -2 -7 -1 rrcurveto
          -52 -4 0 -43 249 0 0 43 -53 4 rlineto
          -7 1 -6 2 -3 5 -3 5 -2 4 0 5 rrcurveto
          228 vlineto
          1 0 5 0 9 1 9 1 10 0 11 0 35 0 28 -6 21 -11 20 -11 16 -15 11 -20 11 -18 9 -21 7 -22 7 -22 6 -22 7 -23 rrcurveto
          6 -23 8 -20 12 -19 10 -19 16 -15 20 -11 20 -11 27 -6 34 0 15 0 13 2 13 4 13 5 8 2 4 0 rrcurveto
          -220 492 rmoveto
          0 -53 -15 -37 -30 -21 -29 -21 -43 -10 -55 0 -8 0 -10 0 -12 1 -12 0 -7 0 -1 0 rrcurveto
          274 46 vlineto
          63 0 46 -12 26 -22 28 -24 13 -32 0 -43 rrcurveto
          endchar
        </CharString>
        <CharString name="S">
          -126 482 188 rmoveto
          -98 callsubr
          endchar
        </CharString>
        <CharString name="Scaron">
          -126 434 914 rmoveto
          -68 callsubr
          174 -556 rmoveto
          -98 callsubr
          endchar
        </CharString>
        <CharString name="T">
          -47 583 511 rmoveto
          160 -567 -160 58 vlineto
          14 94 rlineto
          1 11 6 6 10 0 rrcurveto
          144 -553 hlineto
          0 -5 -2 -4 -3 -5 -3 -5 -6 -2 -7 -1 rrcurveto
          -64 -4 0 -43 271 0 0 43 -64 4 rlineto
          -7 1 -6 2 -3 5 -3 5 -2 4 0 5 rrcurveto
          553 143 vlineto
          9 0 6 -6 2 -11 rrcurveto
          14 -94 rlineto
          endchar
        </CharString>
        <CharString name="Thorn">
          -68 539 346 rmoveto
          0 70 -21 50 -42 31 -43 31 -67 16 -91 1 rrcurveto
          -68 57 hlineto
          0 6 2 5 5 5 4 4 5 2 6 0 rrcurveto
          58 4 0 43 -255 0 0 -43 51 -4 rlineto
          6 0 5 -2 4 -4 5 -5 2 -5 0 -6 rrcurveto
          -533 vlineto
          0 -6 -2 -5 -5 -4 -4 -4 -5 -2 -6 -1 rrcurveto
          -51 -4 0 -43 255 0 0 43 -58 4 rlineto
          -6 1 -5 2 -4 4 -5 4 -2 5 0 6 rrcurveto
          0 68 12 -1 rlineto
          8 -1 9 -1 12 0 10 -2 11 0 9 0 rrcurveto
          3 hlineto
          51 0 44 8 39 17 39 17 30 24 22 32 22 31 11 39 0 46 rrcurveto
          -114 hmoveto
          0 -56 -13 -41 -26 -27 -26 -26 -39 -13 -53 0 rrcurveto
          -3 hlineto
          -6 0 -8 0 -9 1 -9 1 -9 0 -6 1 rrcurveto
          -11 1 0 309 16 2 rlineto
          11 0 8 1 6 0 rrcurveto
          6 -1 rlineto
          3 0 2 0 3 0 3 1 2 0 2 0 59 0 40 -13 23 -28 23 -26 11 -38 0 -48 rrcurveto
          endchar
        </CharString>
        <CharString name="U">
          65 685 628 rmoveto
          -97 callsubr
          endchar
        </CharString>
        <CharString name="Uacute">
          65 544 882 rmoveto
          0 10 -3 10 -7 10 -7 9 -12 5 -17 0 -13 0 -11 -2 -7 -5 -7 -5 -8 -6 -7 -9 rrcurveto
          -133 -155 57 0 152 97 rlineto
          15 10 8 14 0 17 rrcurveto
          141 -254 rmoveto
          -97 callsubr
          endchar
        </CharString>
        <CharString name="Ucircumflex">
          65 532 744 rmoveto
          -126 170 -75 0 -126 -170 60 0 103 100 104 -100 rlineto
          213 -116 rmoveto
          -97 callsubr
          endchar
        </CharString>
        <CharString name="Udieresis">
          65 530 831 rmoveto
          0 15 -6 12 -10 12 -12 10 -12 6 -15 0 -14 0 -13 -6 -10 -11 -12 -11 -5 -13 0 -14 0 -15 5 -13 12 -11 10 -11 13 -6 15 0 rrcurveto
          15 0 13 6 10 11 11 11 5 13 0 15 rrcurveto
          -207 hmoveto
          -82 callsubr
          362 -203 rmoveto
          -97 callsubr
          endchar
        </CharString>
        <CharString name="Ugrave">
          65 423 744 rmoveto
          -134 155 rlineto
          -7 9 -7 6 -7 5 -7 5 -10 2 -14 0 -17 0 -12 -5 -7 -9 -7 -10 -3 -10 0 -10 0 -9 2 -8 5 -7 4 -7 5 -5 7 -5 rrcurveto
          152 -97 rlineto
          319 -116 rmoveto
          -97 callsubr
          endchar
        </CharString>
        <CharString name="V">
          20 656 628 rmoveto
          43 -199 -43 vlineto
          55 -5 rlineto
          4 0 3 -2 3 -4 3 -4 1 -4 0 -3 rrcurveto
          0 -3 -169 -492 -176 494 0 3 rlineto
          0 3 1 4 2 3 1 3 2 2 3 0 rrcurveto
          59 5 0 43 -239 0 0 -43 59 -10 229 -634 76 0 224 633 rlineto
          endchar
        </CharString>
        <CharString name="W">
          285 921 628 rmoveto
          43 -204 -43 vlineto
          63 -6 rlineto
          9 -1 5 -6 0 -10 rrcurveto
          0 -3 -111 -467 -161 536 -77 0 -157 -520 -119 451 rlineto
          -1 3 0 1 0 1 0 9 4 5 7 1 rrcurveto
          60 6 0 43 -229 0 0 -43 58 -12 163 -632 72 0 164 554 167 -554 73 0 153 632 rlineto
          endchar
        </CharString>
        <CharString name="X">
          -13 624 hmoveto
          0 43 -62 12 -197 308 186 255 64 10 0 43 -209 0 0 -43 51 -7 rlineto
          9 -1 5 -4 0 -8 0 -3 -1 -2 -2 -3 rrcurveto
          -135 -185 -122 188 rlineto
          -2 3 -1 2 0 3 rrcurveto
          8 5 4 10 vhcurveto
          51 5 0 43 -251 0 0 -43 66 -12 182 -285 -201 -276 -60 -12 0 -43 212 0 0 43 -60 5 rlineto
          -10 1 -5 3 0 7 1 3 1 2 1 3 rrcurveto
          154 212 133 -209 rlineto
          1 -3 1 -2 0 -2 0 -8 -5 -5 -9 -1 rrcurveto
          -58 -6 0 -43 rlineto
          endchar
        </CharString>
        <CharString name="Y">
          -21 616 628 rmoveto
          -96 callsubr
          endchar
        </CharString>
        <CharString name="Yacute">
          -21 476 882 rmoveto
          0 10 -3 10 -7 10 -7 9 -12 5 -17 0 -13 0 -11 -2 -7 -5 -7 -5 -8 -6 -7 -9 rrcurveto
          -133 -155 57 0 152 97 rlineto
          15 9 8 14 0 18 rrcurveto
          140 -254 rmoveto
          -96 callsubr
          endchar
        </CharString>
        <CharString name="Ydieresis">
          -21 484 831 rmoveto
          -69 callsubr
          -208 hmoveto
          0 15 -5 12 -11 12 -11 10 -12 6 -15 0 -15 0 -13 -6 -10 -12 -12 -11 -5 -13 0 -14 0 -15 5 -13 11 -10 11 -12 12 -5 15 0 rrcurveto
          15 0 13 6 11 11 11 11 5 13 0 15 rrcurveto
          339 -202 rmoveto
          42 -203 -42 vlineto
          56 -7 rlineto
          9 -1 5 -5 0 -8 0 -3 -1 -2 -1 -2 rrcurveto
          -155 -259 -140 262 rlineto
          -1 2 -1 3 0 3 0 7 5 4 11 1 rrcurveto
          48 5 0 42 -237 0 0 -42 58 -12 192 -347 0 -201 rlineto
          0 -5 -2 -4 -4 -5 -3 -5 -6 -2 -7 -1 rrcurveto
          -62 -4 0 -43 269 0 0 43 -64 4 rlineto
          -7 1 -5 2 -3 5 -4 5 -2 4 0 5 rrcurveto
          0 216 201 334 rlineto
          endchar
        </CharString>
        <CharString name="Z">
          -71 536 hmoveto
          -95 callsubr
          endchar
        </CharString>
        <CharString name="Zcaron">
          -71 536 hmoveto
          -95 callsubr
          422 916 rmoveto
          -68 callsubr
          endchar
        </CharString>
        <CharString name="a">
          -138 492 hmoveto
          -94 callsubr
          -13 94 rmoveto
          -93 callsubr
          endchar
        </CharString>
        <CharString name="aacute">
          -138 492 hmoveto
          -94 callsubr
          -13 94 rmoveto
          -93 callsubr
          89 421 rmoveto
          0 10 -3 10 -7 10 -7 10 -12 5 -17 0 -13 0 -11 -2 -6 -5 -8 -5 -7 -6 -7 -9 rrcurveto
          -134 -155 57 0 152 97 rlineto
          15 10 8 13 0 17 rrcurveto
          endchar
        </CharString>
        <CharString name="acircumflex">
          -138 492 hmoveto
          -94 callsubr
          -13 94 rmoveto
          -93 callsubr
          73 284 rmoveto
          -125 169 -76 0 -126 -169 61 0 103 99 103 -99 rlineto
          endchar
        </CharString>
        <CharString name="acute">
          -295 351 688 rmoveto
          0 10 -3 10 -7 10 -7 10 -12 5 -17 0 -13 0 -11 -2 -7 -5 -8 -5 -8 -6 -7 -9 rrcurveto
          -132 -155 56 0 153 97 rlineto
          15 9 8 14 0 17 rrcurveto
          endchar
        </CharString>
        <CharString name="acutecomb">
          -280 898 rmoveto
          0 11 -3 10 -7 9 -7 10 -12 5 -17 0 -14 0 -10 -2 -8 -5 -6 -5 -8 -6 -7 -9 rrcurveto
          -133 -155 57 0 152 97 rlineto
          7 5 5 5 5 6 4 7 2 8 0 9 rrcurveto
          endchar
        </CharString>
        <CharString name="adieresis">
          -138 492 hmoveto
          -94 callsubr
          -13 94 rmoveto
          -93 callsubr
          79 374 rmoveto
          0 15 -6 12 -10 12 -12 10 -12 6 -15 0 -14 0 -13 -6 -10 -11 -12 -11 -5 -13 0 -14 0 -15 5 -13 11 -11 11 -11 12 -6 15 0 rrcurveto
          15 0 12 6 12 11 10 11 6 13 0 15 rrcurveto
          -208 hmoveto
          0 15 -5 12 -11 12 -10 10 -13 6 -15 0 -15 0 -12 -6 -11 -12 -11 -11 -5 -13 0 -14 0 -15 5 -13 11 -10 11 -12 12 -5 14 0 rrcurveto
          15 0 12 6 12 11 10 11 6 13 0 15 rrcurveto
          endchar
        </CharString>
        <CharString name="ae">
          75 687 50 rmoveto
          60 vlineto
          -18 -15 -19 -13 -21 -11 -21 -11 -25 -5 -30 0 -35 0 -30 8 -24 15 -23 16 -19 15 -14 14 rrcurveto
          133 277 vlineto
          1 14 rlineto
          1 8 0 8 0 5 0 36 -5 33 -12 31 -10 31 -18 24 -24 20 -25 18 -32 10 -40 0 -26 0 -22 -4 -18 -6 -18 -8 -15 -8 -11 -9 rrcurveto
          -11 -9 -9 -8 -5 -7 -5 7 -6 9 -9 9 -9 9 -13 8 -18 7 -17 7 -25 3 -31 0 -30 0 -30 -4 -31 -8 -30 -9 -25 -13 -20 -17 rrcurveto
          -20 -17 -10 -23 0 -27 0 -11 3 -8 6 -4 6 -4 10 -2 13 0 rrcurveto
          70 87 hlineto
          5 2 7 3 11 3 11 3 13 2 16 0 33 0 23 -9 12 -17 13 -17 6 -25 0 -33 rrcurveto
          -41 vlineto
          -68 -17 -55 -16 -40 -16 -42 -14 -29 -18 -19 -21 -19 -21 -9 -28 0 -35 0 -37 11 -32 22 -24 22 -26 32 -12 42 0 22 0 21 4 22 8 rrcurveto
          20 7 19 9 17 10 17 10 13 9 10 7 rrcurveto
          15 12 12 -12 rlineto
          8 -7 12 -9 15 -10 16 -10 19 -9 23 -7 23 -8 25 -4 29 0 27 0 24 4 21 7 21 7 19 9 16 10 16 10 13 8 9 7 rrcurveto
          -372 44 rmoveto
          -26 -17 rlineto
          -6 -4 -11 -6 -18 -7 -16 -8 -17 -4 -15 0 -26 0 -19 8 -13 18 -12 16 -6 20 0 23 0 20 5 17 11 16 10 14 18 14 27 14 rrcurveto
          27 12 38 14 49 13 rrcurveto
          273 32 rmoveto
          -180 hlineto
          0 24 3 23 5 23 6 23 10 18 14 15 13 15 19 7 25 0 20 0 16 -6 13 -11 12 -11 9 -15 6 -18 6 -18 3 -19 0 -20 rrcurveto
          endchar
        </CharString>
        <CharString name="agrave">
          -138 492 hmoveto
          -94 callsubr
          -13 94 rmoveto
          -93 callsubr
          -17 284 rmoveto
          -75 callsubr
          endchar
        </CharString>
        <CharString name="ampersand">
          53 679 hmoveto
          0 43 -89 5 -81 93 rlineto
          15 20 15 25 17 29 16 29 13 32 9 34 rrcurveto
          72 11 0 42 -205 0 0 -42 54 -8 rlineto
          4 -1 4 -2 3 -4 4 -4 2 -4 0 -3 0 -11 -3 -14 -7 -15 -7 -15 -7 -15 -9 -14 -9 -14 -7 -11 -7 -9 rrcurveto
          -168 181 rlineto
          25 11 23 13 22 14 23 15 18 18 15 22 14 22 7 27 0 33 0 29 -8 26 -15 23 -15 23 -21 18 -26 12 -27 14 -30 6 -34 0 rrcurveto
          -36 0 -32 -7 -29 -15 -29 -14 -22 -20 -17 -25 -17 -25 -8 -30 0 -33 0 -23 5 -22 10 -20 9 -19 11 -17 13 -14 13 -15 10 -11 8 -8 rrcurveto
          5 -4 rlineto
          -39 -17 -32 -22 -26 -29 -24 -28 -13 -36 0 -44 0 -38 9 -34 19 -30 19 -29 25 -24 31 -17 32 -17 35 -9 38 0 31 0 28 4 24 9 rrcurveto
          24 9 22 10 19 14 19 12 19 14 17 14 rrcurveto
          45 -50 0 -24 rlineto
          -132 527 rmoveto
          0 -33 -8 -28 -16 -21 -16 -21 -22 -18 -29 -14 rrcurveto
          -9 9 rlineto
          -12 11 -13 13 -12 13 -14 14 -10 16 -10 16 -8 18 -5 18 0 21 0 26 8 22 17 19 16 18 22 9 27 0 32 0 24 -11 15 -22 rrcurveto
          15 -21 8 -25 0 -29 rrcurveto
          55 -418 rmoveto
          -17 -14 -18 -13 -21 -12 -21 -11 -25 -6 -31 0 -27 0 -24 7 -22 14 -22 13 -18 19 -12 23 -14 23 -6 27 0 30 0 30 7 25 14 19 rrcurveto
          14 19 17 17 20 14 rrcurveto
          endchar
        </CharString>
        <CharString name="approxequal">
          354 800 391 rmoveto
          69 vlineto
          -25 -22 -24 -18 -24 -14 -24 -13 -28 -7 -33 0 -26 0 -30 5 -33 10 -25 8 -29 10 -31 12 -32 12 -33 6 -34 0 -3 0 -2 0 -3 -1 rrcurveto
          -3 0 -2 0 -3 0 -31 -2 -26 -5 -19 -7 -19 -8 -16 -9 -12 -9 -11 -9 -10 -9 -9 -9 rrcurveto
          -69 vlineto
          24 23 23 19 23 14 22 13 27 7 32 0 18 0 21 -2 22 -5 24 -5 26 -7 29 -11 19 -7 16 -5 13 -6 13 -4 14 -4 13 -3 rrcurveto
          13 -3 16 -1 19 0 5 0 5 0 5 1 5 0 6 0 5 0 30 2 28 8 26 14 25 15 20 13 13 13 rrcurveto
          -170 vmoveto
          69 vlineto
          -25 -22 -24 -18 -24 -14 -24 -13 -28 -7 -33 0 -26 0 -30 5 -33 10 -25 8 -28 10 -32 12 -30 12 -33 6 -34 0 -3 0 -4 0 -2 -1 rrcurveto
          -4 0 -2 0 -3 0 -31 -3 -26 -5 -19 -7 -19 -7 -16 -9 -12 -9 -11 -9 -10 -9 -9 -9 rrcurveto
          -69 vlineto
          24 23 23 19 23 14 22 13 27 7 32 0 18 0 21 -2 22 -5 24 -5 26 -7 29 -11 19 -7 17 -5 13 -6 13 -4 14 -4 13 -3 rrcurveto
          14 -3 16 -1 19 0 5 0 4 0 5 1 5 0 5 0 5 0 30 2 28 8 26 14 25 15 20 13 13 13 rrcurveto
          endchar
        </CharString>
        <CharString name="aring">
          -138 492 hmoveto
          -94 callsubr
          30 670 rmoveto
          0 22 -5 20 -11 18 -11 18 -14 14 -18 11 -18 11 -20 5 -22 0 -22 0 -20 -5 -18 -11 -18 -11 -14 -14 -11 -18 -11 -18 -5 -20 0 -22 rrcurveto
          0 -22 5 -20 11 -18 11 -18 14 -14 18 -11 18 -11 20 -5 22 0 22 0 20 5 18 11 18 11 14 14 11 18 11 18 5 20 0 22 rrcurveto
          -43 -576 rmoveto
          -93 callsubr
          -6 403 rmoveto
          0 -19 -7 -17 -14 -14 -13 -13 -17 -7 -19 0 -19 0 -17 7 -13 13 -14 14 -7 17 0 19 0 19 7 17 14 14 13 13 17 7 19 0 rrcurveto
          19 0 17 -7 13 -13 14 -14 7 -17 0 -19 rrcurveto
          endchar
        </CharString>
        <CharString name="asciicircum">
          312 740 11 rmoveto
          -235 575 -51 0 -236 -575 62 0 199 488 198 -488 rlineto
          endchar
        </CharString>
        <CharString name="asciitilde">
          187 747 371 rmoveto
          -40 -29 -35 -20 -30 -11 -31 -11 -27 -6 -24 0 -22 0 -22 3 -24 7 -22 7 -24 7 -24 10 -24 8 -24 8 -24 7 -25 7 -24 3 -25 0 rrcurveto
          -27 0 -29 -5 -32 -12 -32 -10 -34 -19 -36 -25 rrcurveto
          -65 vlineto
          33 25 33 19 32 13 32 14 29 7 25 0 26 0 25 -3 25 -7 24 -7 24 -8 24 -8 23 -10 24 -7 23 -7 23 -7 24 -3 24 0 rrcurveto
          29 0 28 5 30 10 28 10 34 18 39 27 rrcurveto
          endchar
        </CharString>
        <CharString name="asterisk">
          -160 362 612 rmoveto
          -5 0 -5 -1 -6 -2 -12 -4 -11 -7 -11 -10 -10 -11 -8 -10 -8 -9 -6 -9 -5 -5 -3 -1 -3 -1 -3 0 -2 0 -7 -1 -3 5 0 10 rrcurveto
          0 3 3 7 5 10 6 9 6 11 6 13 6 13 3 12 0 12 0 13 -3 11 -7 8 -7 9 -8 6 -8 4 -10 4 -7 2 -6 0 rrcurveto
          -6 0 -7 -2 -10 -4 -8 -4 -8 -6 -8 -9 -6 -8 -4 -10 0 -13 0 -13 3 -12 7 -14 7 -12 6 -12 7 -10 7 -9 3 -6 0 -3 rrcurveto
          -9 -4 -5 -7 vhcurveto
          -3 0 -3 0 -1 1 -3 1 -5 4 -8 9 -7 9 -9 9 -10 9 -10 10 -11 7 -12 3 -6 2 -6 1 -6 0 -14 0 -12 -5 -9 -9 rrcurveto
          -10 -9 -6 -9 -2 -7 -1 -4 -1 -5 0 -6 0 -19 6 -14 11 -10 11 -11 15 -5 18 0 16 0 15 2 15 4 15 5 9 2 4 0 rrcurveto
          8 -2 4 -3 0 -5 0 -3 -1 -4 -3 -4 -2 -3 -6 -4 -11 -5 -10 -4 -11 -5 -12 -7 -12 -6 -10 -8 -7 -10 -7 -9 -4 -11 0 -12 rrcurveto
          0 -11 3 -9 4 -10 6 -8 5 -7 5 -3 8 -6 11 -3 15 0 8 0 8 1 8 4 8 2 7 6 6 8 7 11 5 12 3 14 rrcurveto
          2 14 1 13 1 12 0 12 1 7 1 2 3 5 4 3 4 0 4 0 4 -3 3 -5 2 -3 2 -7 0 -11 2 -11 2 -13 2 -13 rrcurveto
          4 -13 4 -12 7 -10 6 -9 7 -6 8 -3 8 -3 8 -2 8 0 17 0 13 6 10 11 11 11 5 14 0 17 0 11 -3 10 -7 9 rrcurveto
          -7 10 -11 8 -12 6 -14 7 -11 5 -11 4 -11 4 -6 3 -2 3 -3 5 -2 3 0 3 0 5 4 3 8 2 rrcurveto
          2 0 1 0 rlineto
          5 0 10 -1 12 -4 14 -2 13 -2 14 0 18 0 15 5 12 11 13 11 6 14 0 19 0 14 -6 12 -12 12 -12 10 -13 6 -14 0 rrcurveto
          endchar
        </CharString>
        <CharString name="asterisk.punct">
          -146 447 570 rmoveto
          -71 21 -108 -71 5 -14 129 7 rlineto
          -110 142 rmoveto
          -42 61 -41 -61 34 -125 14 0 rlineto
          114 -193 rmoveto
          0 74 -103 81 -12 -9 46 -120 rlineto
          -70 157 rmoveto
          -108 71 -71 -21 45 -57 130 -7 rlineto
          16 -23 rmoveto
          -12 9 -101 -81 0 -74 67 26 rlineto
          endchar
        </CharString>
        <CharString name="at">
          290 864 373 rmoveto
          0 69 -15 58 -29 47 -30 47 -41 36 -51 24 -51 25 -59 12 -66 0 -56 0 -55 -10 -53 -19 -53 -19 -49 -29 -42 -38 -44 -38 -34 -47 -25 -57 rrcurveto
          -25 -56 -13 -65 0 -74 0 -61 11 -54 21 -48 21 -49 29 -41 37 -34 37 -34 42 -26 47 -18 48 -18 51 -9 54 0 58 0 54 9 49 17 rrcurveto
          49 17 47 21 45 24 rrcurveto
          -14 36 rlineto
          -31 -17 -37 -16 -43 -16 -44 -17 -51 -8 -58 0 -73 0 -63 16 -53 31 -52 32 -40 43 -28 55 -27 54 -14 61 0 68 0 55 9 52 20 48 rrcurveto
          18 47 28 41 34 36 36 34 41 28 47 20 48 19 52 10 57 0 35 0 35 -5 33 -12 33 -10 30 -17 27 -23 27 -23 21 -28 16 -35 rrcurveto
          15 -35 8 -40 0 -47 0 -40 -5 -36 -10 -32 -10 -31 -13 -27 -16 -23 -16 -23 -17 -17 -18 -12 -17 -12 -16 -6 -15 0 -14 0 -10 4 -7 9 rrcurveto
          -7 8 -3 11 0 14 0 9 1 11 3 12 rrcurveto
          5 21 rlineto
          2 13 4 18 6 21 4 21 6 23 6 26 5 24 5 24 6 22 4 23 5 19 3 15 4 15 2 9 1 3 rrcurveto
          -56 0 -18 -23 rlineto
          -15 8 -16 7 -18 4 -19 6 -16 2 -14 0 -31 0 -31 -7 -29 -13 -30 -14 -27 -20 -23 -24 -24 -26 -19 -28 -14 -34 -14 -32 -7 -36 0 -38 rrcurveto
          0 -50 12 -40 23 -29 23 -29 30 -15 37 0 23 0 24 7 24 14 23 15 25 20 26 26 0 -27 6 -21 12 -14 12 -14 20 -7 28 0 rrcurveto
          25 0 27 7 28 14 28 14 26 21 26 26 24 28 21 33 15 39 16 39 8 45 0 51 rrcurveto
          -280 20 rmoveto
          -40 -207 rlineto
          -11 -13 -14 -14 -17 -15 -17 -15 -20 -8 -23 0 -25 0 -19 9 -14 18 -13 18 -7 27 0 36 0 41 6 37 14 33 12 34 19 27 25 19 rrcurveto
          24 20 28 10 33 0 11 0 10 -3 10 -7 8 -6 8 -7 4 -9 6 -9 2 -7 0 -6 rrcurveto
          endchar
        </CharString>
        <CharString name="atilde">
          -138 492 hmoveto
          -94 callsubr
          -13 94 rmoveto
          -93 callsubr
          91 428 rmoveto
          -40 hlineto
          -1 -12 -6 -11 -11 -10 -10 -10 -12 -5 -13 0 -21 0 -18 4 -14 8 -14 8 -13 8 -13 8 -12 8 -15 4 -18 0 -33 0 -25 -11 -19 -22 rrcurveto
          -19 -22 -13 -26 -7 -29 rrcurveto
          40 hlineto
          2 12 6 11 9 10 10 10 12 5 13 0 22 0 18 -4 13 -8 14 -8 14 -8 12 -8 14 -8 15 -4 17 0 33 0 25 11 19 22 rrcurveto
          19 22 13 26 7 29 rrcurveto
          endchar
        </CharString>
        <CharString name="b">
          -91 521 264 rmoveto
          0 41 -7 39 -16 34 -14 36 -23 28 -29 20 -30 22 -37 10 -44 0 -29 0 -28 -5 -26 -9 -25 -10 -19 -8 -11 -5 rrcurveto
          280 -40 vlineto
          -129 -39 0 -33 76 0 0 -665 144 0 rlineto
          67 0 54 12 43 22 42 24 31 31 20 40 20 40 10 45 0 50 rrcurveto
          -102 -20 rmoveto
          0 -73 -16 -51 -33 -29 -33 -29 -46 -15 -59 0 -9 0 -11 0 -12 1 rrcurveto
          -17 0 0 371 rlineto
          10 3 13 4 18 4 16 3 15 2 11 0 49 0 37 -16 27 -32 27 -32 13 -48 0 -63 rrcurveto
          endchar
        </CharString>
        <CharString name="backslash">
          -241 108 699 rmoveto
          -108 0 297 -705 110 0 rlineto
          endchar
        </CharString>
        <CharString name="bar">
          -146 285 -236 rmoveto
          1000 -70 -1000 vlineto
          endchar
        </CharString>
        <CharString name="blank">
          -417 230 -130 rmoveto
          130 -40 -90 -150 90 -40 -130 vlineto
          endchar
        </CharString>
        <CharString name="braceleft">
          -159 419 -82 rmoveto
          -5 0 -10 1 -13 1 -13 1 -14 3 -14 4 -13 4 -11 7 -9 9 -11 12 -7 16 -3 20 -2 20 -1 21 0 22 rrcurveto
          37 vlineto
          0 37 -3 31 -6 26 -7 26 -13 21 -18 17 -20 17 -29 12 -39 8 39 9 29 12 20 16 18 16 13 21 7 25 6 26 3 32 0 37 rrcurveto
          37 vlineto
          0 23 1 21 2 20 3 19 7 16 11 12 9 9 11 6 13 4 14 5 14 3 13 1 13 1 10 1 5 0 rrcurveto
          41 vlineto
          -35 0 -34 -3 -32 -6 -33 -6 -24 -12 -16 -17 -19 -20 -11 -23 -5 -25 -4 -26 -2 -27 0 -28 rrcurveto
          -52 vlineto
          0 -40 -4 -31 -7 -20 -7 -22 -14 -14 -21 -8 -21 -7 -30 -4 -40 0 rrcurveto
          -45 vlineto
          40 0 30 -4 21 -8 21 -7 14 -14 7 -21 7 -21 4 -30 0 -41 rrcurveto
          -52 vlineto
          0 -28 2 -27 4 -25 5 -26 11 -23 19 -20 17 -17 24 -12 32 -6 32 -6 34 -3 35 0 rrcurveto
          endchar
        </CharString>
        <CharString name="braceright">
          -159 428 313 rmoveto
          -39 0 -30 4 -21 7 -21 7 -14 14 -7 21 -8 21 -4 30 0 40 rrcurveto
          54 vlineto
          0 28 -2 27 -4 26 -4 25 -12 23 -19 20 -17 17 -24 12 -32 6 -31 6 -34 3 -36 0 rrcurveto
          -41 vlineto
          6 0 9 -1 14 -1 12 -1 14 -3 14 -4 14 -4 11 -7 8 -9 11 -11 6 -16 3 -19 3 -19 1 -21 0 -22 rrcurveto
          0 -20 0 -20 rlineto
          0 -37 3 -32 6 -26 7 -25 13 -21 18 -16 20 -16 29 -12 39 -9 -39 -8 -29 -12 -19 -17 -19 -17 -13 -21 -7 -26 -6 -25 -3 -32 0 -37 rrcurveto
          0 -20 0 -20 rlineto
          0 -22 -1 -21 -3 -19 -3 -19 -6 -16 -11 -11 -8 -9 -11 -6 -14 -5 -14 -4 -14 -3 -12 -1 -14 -1 -9 -1 -6 0 rrcurveto
          -41 vlineto
          36 0 34 3 31 6 32 6 24 12 17 17 19 20 12 23 4 26 4 25 2 27 0 28 rrcurveto
          55 vlineto
          0 40 4 30 8 21 7 21 14 13 21 8 21 6 30 4 39 0 rrcurveto
          endchar
        </CharString>
        <CharString name="bracketleft">
          -314 285 -77 rmoveto
          57 -106 686 106 60 -199 -803 vlineto
          endchar
        </CharString>
        <CharString name="bracketright">
          -314 239 -77 rmoveto
          803 -199 -57 106 -686 -106 -60 vlineto
          endchar
        </CharString>
        <CharString name="breve">
          -349 258 699 rmoveto
          -6 -29 -14 -20 -20 -13 -22 -13 -22 -6 -25 0 -25 0 -23 6 -21 13 -21 13 -14 20 -6 29 rrcurveto
          -39 hlineto
          0 -23 6 -23 10 -23 12 -23 16 -19 22 -14 22 -16 28 -7 33 0 33 0 28 7 22 16 22 14 16 19 12 23 10 23 6 23 0 23 rrcurveto
          endchar
        </CharString>
        <CharString name="brokenbar">
          -146 284 329 rmoveto
          371 -68 -371 vlineto
          68 -500 rmoveto
          371 -68 -371 vlineto
          endchar
        </CharString>
        <CharString name="bullet">
          -274 323 365 rmoveto
          0 25 -6 23 -12 21 -12 21 -17 16 -20 13 -22 12 -23 6 -25 0 -25 0 -23 -6 -21 -12 -21 -13 -16 -16 -12 -21 -13 -21 -6 -23 0 -25 rrcurveto
          0 -25 6 -23 13 -21 12 -20 16 -16 21 -12 21 -13 23 -6 25 0 25 0 23 6 22 13 20 12 17 16 12 20 12 21 6 23 0 25 rrcurveto
          endchar
        </CharString>
        <CharString name="c">
          -181 432 94 rmoveto
          -21 -14 -21 -11 -22 -7 -20 -7 -23 -4 -23 0 -37 0 -30 9 -25 18 -25 17 -18 24 -13 31 -12 31 -6 33 0 37 0 39 6 34 11 30 rrcurveto
          11 31 17 24 21 17 22 17 26 9 29 0 13 0 14 -4 15 -9 rrcurveto
          -87 vlineto
          6 -4 7 -4 8 -4 8 -3 10 -2 11 0 15 0 14 5 12 10 12 10 6 15 0 19 0 33 -15 25 -29 16 -30 18 -37 8 -44 0 rrcurveto
          -43 0 -39 -10 -37 -19 -37 -19 -29 -29 -22 -38 -23 -38 -11 -47 0 -56 0 -48 9 -43 19 -37 19 -38 26 -30 35 -22 34 -21 40 -11 47 0 rrcurveto
          34 0 31 5 28 11 28 10 25 11 23 12 rrcurveto
          endchar
        </CharString>
        <CharString name="caron">
          -319 327 720 rmoveto
          -67 callsubr
          endchar
        </CharString>
        <CharString name="ccedilla">
          -181 432 98 rmoveto
          -21 -14 -21 -11 -22 -9 -20 -9 -23 -4 -23 0 -37 0 -30 9 -25 18 -25 17 -18 24 -13 31 -12 31 -6 33 0 37 0 39 6 34 11 30 rrcurveto
          11 31 17 24 21 17 22 17 26 9 29 0 13 0 14 -4 15 -9 rrcurveto
          -88 vlineto
          6 -4 7 -4 8 -3 8 -3 10 -2 11 0 15 0 14 5 12 10 12 9 6 15 0 19 0 33 -15 25 -29 17 -30 17 -37 9 -44 0 rrcurveto
          -43 0 -39 -10 -37 -19 -37 -19 -29 -29 -22 -38 -23 -38 -11 -47 0 -56 0 -45 8 -40 16 -37 17 -36 23 -29 30 -23 31 -22 36 -13 41 -4 rrcurveto
          0 -101 8 3 rlineto
          4 2 5 1 5 0 13 0 12 -3 9 -7 9 -6 5 -9 0 -12 0 -15 -7 -11 -13 -6 -14 -6 -15 -3 -16 0 -13 0 -13 1 -14 3 rrcurveto
          -21 4 0 -39 24 -5 rlineto
          17 -3 17 -2 17 0 33 0 28 8 22 17 22 16 11 23 0 31 0 25 -7 19 -14 10 -15 12 -17 5 -20 0 -5 0 -5 -1 -3 0 rrcurveto
          -3 -2 -4 0 -3 -1 rrcurveto
          51 vlineto
          31 1 28 7 27 11 27 11 23 12 21 11 rrcurveto
          endchar
        </CharString>
        <CharString name="cedilla">
          -416 231 -130 rmoveto
          0 25 -7 19 -14 10 -15 12 -17 5 -20 0 -5 0 -5 -1 -3 0 -3 -2 -4 0 -3 -1 rrcurveto
          63 -39 -112 vlineto
          8 3 rlineto
          4 2 6 1 5 0 13 0 12 -3 8 -7 10 -6 4 -9 0 -12 0 -15 -7 -11 -13 -6 -14 -6 -15 -3 -16 0 -12 0 -13 1 -14 3 rrcurveto
          -21 4 0 -39 24 -5 rlineto
          16 -3 17 -2 17 0 34 0 28 8 21 17 22 16 11 23 0 31 rrcurveto
          endchar
        </CharString>
        <CharString name="cent">
          -84 487 23 rmoveto
          151 -49 vlineto
          -13 -96 rlineto
          -1 -2 -2 -3 -2 -3 -2 -4 -2 -3 -3 -1 rrcurveto
          -19 -6 rlineto
          -13 -5 -17 -2 -21 -1 rrcurveto
          409 vlineto
          21 0 15 -1 9 -4 9 -2 9 -4 7 -4 3 -1 3 -3 1 -4 2 -4 1 -4 1 -3 0 -1 0 -1 1 -3 1 -2 1 -7 2 -13 rrcurveto
          2 -12 3 -21 5 -29 rrcurveto
          48 147 hlineto
          -26 9 -24 6 -23 4 -22 4 -24 2 -25 0 rrcurveto
          98 -48 -102 vlineto
          -44 -6 -38 -14 -33 -23 -33 -23 -25 -29 -18 -35 -19 -36 -9 -40 0 -44 0 -45 9 -41 17 -36 18 -35 25 -29 33 -22 33 -23 39 -14 45 -5 rrcurveto
          -101 48 99 vlineto
          47 0 36 4 24 6 23 8 13 4 1 1 rrcurveto
          -192 28 rmoveto
          -33 8 -29 21 -25 34 -24 35 -12 47 0 59 0 42 7 35 13 28 13 28 17 22 18 15 20 15 18 10 17 4 rrcurveto
          endchar
        </CharString>
        <CharString name="circumflex">
          -319 327 551 rmoveto
          -71 callsubr
          endchar
        </CharString>
        <CharString name="colon">
          -367 196 427 rmoveto
          0 19 -7 16 -13 12 -13 14 -16 6 -19 0 -19 0 -15 -6 -14 -14 -12 -12 -7 -16 0 -19 0 -19 7 -16 12 -12 14 -14 15 -6 19 0 rrcurveto
          19 0 16 7 13 13 13 13 7 16 0 18 rrcurveto
          -372 vmoveto
          0 18 -7 16 -13 13 -13 13 -16 7 -19 0 -19 0 -15 -7 -14 -13 -12 -13 -7 -16 0 -18 0 -19 7 -16 12 -12 14 -14 15 -6 19 0 rrcurveto
          19 0 16 6 13 14 13 12 7 16 0 19 rrcurveto
          endchar
        </CharString>
        <CharString name="comma">
          -307 239 44 rmoveto
          0 43 -8 29 -15 15 -16 15 -20 7 -24 0 -23 0 -19 -7 -14 -16 -13 -14 -7 -20 0 -24 0 -24 7 -18 14 -12 14 -12 17 -6 21 0 rrcurveto
          0 -27 -5 -24 -10 -20 -9 -20 -15 -20 -20 -19 -14 -14 -7 -8 0 -3 0 -8 5 -4 10 0 11 0 13 5 17 10 17 10 16 14 18 19 rrcurveto
          16 19 15 22 11 26 11 26 6 29 0 31 rrcurveto
          endchar
        </CharString>
        <CharString name="copyright">
          222 808 361 rmoveto
          0 52 -10 49 -19 44 -19 46 -27 39 -35 35 -34 35 -40 27 -44 19 -46 19 -48 10 -52 0 -52 0 -48 -10 -46 -19 -44 -19 -40 -27 -34 -35 rrcurveto
          -35 -35 -27 -39 -19 -46 -19 -44 -10 -49 0 -52 0 -52 10 -49 19 -45 19 -45 27 -40 35 -34 34 -35 40 -27 44 -19 46 -19 48 -10 52 0 rrcurveto
          52 0 48 10 46 19 44 19 40 27 34 35 35 34 27 40 19 45 19 45 10 49 0 52 rrcurveto
          -50 hmoveto
          0 -45 -8 -42 -17 -39 -17 -39 -23 -35 -29 -30 -30 -30 -35 -23 -39 -17 -39 -17 -42 -8 -45 0 -45 0 -41 8 -40 17 -38 17 -35 23 -30 30 rrcurveto
          -30 30 -23 35 -17 39 -17 39 -8 42 0 45 0 45 8 42 17 39 17 39 23 35 30 29 30 30 35 24 38 16 40 18 41 8 45 0 rrcurveto
          45 0 42 -8 39 -18 39 -16 35 -24 30 -30 29 -29 23 -35 17 -39 17 -39 8 -42 0 -45 rrcurveto
          -129 -72 rmoveto
          -80 hlineto
          -1 -13 -5 -15 -7 -16 -7 -16 -12 -14 -15 -11 -16 -11 -21 -6 -27 0 -39 0 -31 13 -24 24 -25 26 -12 44 0 65 0 43 5 35 12 27 rrcurveto
          10 27 15 20 18 13 18 13 19 6 19 0 43 0 31 -9 19 -17 19 -17 10 -24 0 -31 rrcurveto
          80 hlineto
          0 17 -3 18 -6 18 -5 17 -10 17 -14 14 -14 16 -20 12 -25 9 -26 9 -33 5 -40 0 -49 0 -40 -10 -30 -20 -30 -20 -22 -28 -13 -35 rrcurveto
          -13 -36 -7 -42 0 -47 0 -47 6 -38 12 -30 12 -31 16 -24 21 -17 20 -17 22 -13 26 -6 24 -8 26 -3 27 0 43 0 36 7 27 15 rrcurveto
          27 15 21 20 13 24 14 26 8 27 3 30 rrcurveto
          endchar
        </CharString>
        <CharString name="copyright.punct">
          190 803 351 rmoveto
          0 53 -10 49 -19 47 -20 46 -28 41 -34 35 -36 36 -40 28 -46 20 -47 21 -50 10 -54 0 -53 0 -50 -10 -46 -20 -47 -20 -41 -28 -35 -35 rrcurveto
          -35 -36 -28 -41 -20 -47 -20 -47 -10 -50 0 -53 0 -53 10 -49 20 -47 20 -47 28 -41 35 -35 35 -36 41 -28 47 -20 46 -20 49 -10 53 0 rrcurveto
          53 0 50 10 47 20 47 20 41 28 34 36 36 35 27 41 20 47 20 47 10 50 0 53 rrcurveto
          -43 -1 rmoveto
          0 -47 -9 -45 -17 -41 -18 -41 -25 -37 -31 -31 -32 -32 -37 -25 -41 -18 -41 -18 -44 -9 -47 0 -47 0 -44 9 -41 18 -41 18 -37 25 -31 32 rrcurveto
          -31 31 -25 37 -17 41 -18 41 -9 45 0 47 0 47 9 45 18 42 17 41 25 37 31 32 31 31 37 25 41 18 41 18 45 9 47 0 rrcurveto
          47 0 44 -9 42 -18 40 -18 37 -25 31 -31 31 -32 25 -37 18 -41 17 -42 9 -45 0 -47 rrcurveto
          -184 -212 rmoveto
          126 -44 vlineto
          -14 -85 rlineto
          -9 -4 -12 -4 -15 -5 -15 -4 -16 -2 -16 0 -26 0 -25 8 -24 14 -23 16 -19 21 -15 29 -15 29 -7 34 0 41 0 39 8 34 15 27 rrcurveto
          16 28 20 21 26 15 24 15 27 7 28 0 14 0 13 -2 14 -5 12 -5 11 -4 7 -5 rrcurveto
          15 -76 45 0 0 119 rlineto
          -22 7 -22 5 -24 6 -22 4 -25 3 -26 0 -49 0 -44 -10 -36 -20 -38 -20 -28 -28 -20 -35 -21 -35 -10 -41 0 -46 0 -42 9 -39 20 -35 rrcurveto
          18 -36 28 -29 36 -22 37 -22 44 -11 53 0 24 0 22 2 21 4 21 3 17 4 13 4 14 4 8 2 2 1 rrcurveto
          endchar
        </CharString>
        <CharString name="currency">
          -41 564 205 rmoveto
          -101 101 rlineto
          29 36 15 42 0 49 0 48 -14 41 -28 35 rrcurveto
          99 100 -35 35 -100 -99 rlineto
          -17 13 -20 11 -21 7 -21 8 -23 4 -23 0 -48 0 -42 -15 -37 -29 rrcurveto
          -99 100 -36 -35 100 -100 rlineto
          -13 -17 -10 -19 -7 -21 -8 -21 -4 -23 0 -23 0 -23 4 -23 8 -21 8 -22 11 -20 13 -17 rrcurveto
          -102 -101 36 -36 101 101 rlineto
          35 -28 42 -14 48 0 23 0 23 4 21 7 21 7 19 11 17 13 rrcurveto
          101 -101 rlineto
          -72 263 rmoveto
          0 -28 -7 -26 -14 -23 -13 -23 -19 -19 -23 -14 -23 -14 -26 -7 -28 0 -28 0 -26 7 -24 14 -23 14 -19 19 -14 23 -13 23 -7 26 0 28 rrcurveto
          0 29 7 26 13 22 14 24 19 18 23 14 24 13 26 7 28 0 29 0 25 -7 24 -13 22 -14 19 -19 13 -23 14 -23 7 -26 0 -28 rrcurveto
          endchar
        </CharString>
        <CharString name="d">
          -83 538 hmoveto
          0 39 -43 3 rlineto
          -14 1 -7 7 0 14 rrcurveto
          673 -40 vlineto
          -129 -39 0 -33 76 0 0 -183 rlineto
          -8 2 -13 2 -19 4 -19 2 -17 2 -16 0 -57 0 -48 -13 -38 -25 -37 -26 -28 -33 -19 -41 -19 -40 -9 -43 0 -45 0 -28 4 -28 8 -28 rrcurveto
          7 -29 12 -26 15 -23 15 -24 20 -19 25 -14 24 -14 29 -7 33 0 29 0 28 6 25 14 26 12 24 16 23 17 rrcurveto
          -53 vlineto
          91 vmoveto
          -13 -8 -16 -8 -18 -7 -17 -8 -19 -4 -20 0 -46 0 -36 18 -25 36 -25 35 -13 45 0 55 0 61 15 48 30 37 29 37 40 18 49 0 rrcurveto
          15 0 15 -2 17 -4 17 -3 12 -3 9 -3 rrcurveto
          endchar
        </CharString>
        <CharString name="dagger">
          -126 461 438 rmoveto
          11 7 9 9 5 10 6 11 3 11 0 11 0 11 -3 11 -6 11 -6 10 -9 8 -11 5 -2 1 -3 1 -3 0 -9 0 -11 -3 -14 -6 rrcurveto
          -15 -5 -16 -6 -19 -6 -18 -6 -19 -4 -20 -2 -8 0 -7 1 -6 3 -5 3 -3 6 0 10 rrcurveto
          6 vlineto
          2 20 4 19 6 18 rrcurveto
          16 49 rlineto
          6 16 2 11 0 9 0 4 0 3 -1 1 -6 12 -8 9 -11 5 -11 6 -11 3 -11 0 -13 0 -13 -5 -13 -8 -13 -10 -7 -11 0 -14 rrcurveto
          0 -10 3 -12 5 -14 6 -14 6 -15 6 -18 7 -16 4 -19 1 -19 rrcurveto
          -5 vlineto
          0 -11 -3 -7 -5 -3 -5 -2 -7 -1 -9 0 -21 2 -19 4 -18 6 -18 6 -16 6 -15 5 -15 5 -11 3 -9 0 -1 0 -2 0 -3 -1 rrcurveto
          -11 -5 -9 -8 -6 -10 -6 -10 -3 -11 0 -12 0 -12 4 -13 9 -15 9 -15 11 -7 14 0 10 0 12 3 13 6 14 5 16 6 16 7 rrcurveto
          18 7 18 4 19 1 rrcurveto
          5 hlineto
          16 8 -8 -15 hvcurveto
          -8 vlineto
          -3 -20 -4 -19 -5 -18 -6 -18 -5 -16 -5 -12 -5 -14 -2 -9 0 -7 rrcurveto
          -4 vlineto
          6 -31 5 -35 5 -38 5 -37 4 -38 2 -37 4 -37 2 -34 2 -31 2 -30 1 -23 1 -15 1 -10 1 -6 2 -2 3 -1 4 -1 7 0 rrcurveto
          7 0 5 1 2 1 3 2 1 6 0 10 1 15 1 23 2 30 2 31 3 34 3 37 3 37 4 38 5 37 4 38 5 35 6 31 rrcurveto
          4 vlineto
          0 7 -3 9 -4 14 -6 12 -5 16 -5 18 -6 18 -4 19 -2 20 rrcurveto
          5 vlineto
          0 11 2 7 6 4 4 2 8 2 9 0 20 -1 19 -4 17 -7 17 -6 16 -6 14 -6 14 -5 12 -3 10 0 5 0 3 1 3 1 rrcurveto
          endchar
        </CharString>
        <CharString name="daggerdbl">
          -126 461 178 rmoveto
          -3 1 -3 1 -5 0 -9 0 -12 -3 -15 -5 -14 -5 -16 -6 -17 -7 -17 -6 -19 -4 -20 -2 rrcurveto
          -5 hlineto
          -16 1 -8 8 0 16 rrcurveto
          6 vlineto
          2 22 4 19 6 16 5 16 5 14 6 13 4 13 3 11 0 11 0 11 -3 11 -4 12 -6 13 -5 14 -5 17 -6 17 -4 19 -2 21 rrcurveto
          5 vlineto
          0 11 2 7 6 4 4 2 8 2 9 0 20 -1 19 -4 17 -7 17 -6 16 -6 14 -6 14 -5 12 -3 10 0 5 0 3 1 3 1 rrcurveto
          11 7 9 9 5 10 6 11 3 11 0 11 0 11 -3 11 -6 11 -6 10 -9 8 -11 5 -2 1 -3 1 -3 0 -9 0 -11 -3 -14 -6 rrcurveto
          -15 -5 -16 -6 -19 -6 -18 -6 -19 -4 -20 -2 -8 0 -7 1 -6 3 -5 3 -3 6 0 10 rrcurveto
          6 vlineto
          2 20 4 19 6 18 rrcurveto
          16 49 rlineto
          6 16 2 11 0 9 0 4 0 3 -1 1 -6 12 -8 9 -11 5 -11 6 -11 3 -11 0 -13 0 -13 -5 -13 -8 -13 -10 -7 -11 0 -14 rrcurveto
          0 -10 3 -12 5 -14 6 -14 6 -15 6 -18 7 -16 4 -19 1 -19 rrcurveto
          -5 vlineto
          0 -11 -3 -7 -5 -3 -5 -2 -7 -1 -9 0 -21 2 -19 4 -18 6 -18 6 -16 6 -15 5 -15 5 -11 3 -9 0 -1 0 -2 0 -3 -1 rrcurveto
          -11 -5 -9 -8 -6 -10 -6 -10 -3 -11 0 -12 0 -12 4 -13 9 -15 9 -15 11 -7 14 0 10 0 12 3 13 6 14 5 16 6 16 7 rrcurveto
          18 7 18 4 19 1 rrcurveto
          5 hlineto
          16 8 -8 -15 hvcurveto
          -8 vlineto
          -4 -33 -7 -26 -9 -22 -10 -20 -5 -18 0 -14 0 -17 5 -19 10 -20 9 -22 7 -26 4 -33 1 -1 0 -3 0 -3 0 -11 -3 -7 -6 -2 rrcurveto
          -5 -3 -7 -1 -9 0 -19 2 -18 4 -18 6 -16 7 -16 6 -14 5 -13 6 -12 3 -10 0 -14 0 -11 -7 -9 -14 -9 -15 -4 -13 0 -13 rrcurveto
          0 -11 3 -11 6 -11 6 -10 9 -8 11 -5 3 -1 2 0 1 0 9 0 12 3 14 5 15 5 16 6 19 6 18 6 19 4 20 2 rrcurveto
          5 hlineto
          16 8 -8 -15 hvcurveto
          -6 vlineto
          -2 -19 -4 -19 -6 -17 -6 -17 -6 -16 -6 -14 -5 -13 -3 -12 0 -10 0 -14 7 -11 13 -10 13 -8 13 -5 13 0 11 0 11 3 11 6 rrcurveto
          11 5 8 9 6 12 1 3 0 2 0 3 0 9 -3 12 -5 15 -5 14 -6 16 -5 18 -6 19 -4 19 -2 20 rrcurveto
          5 vlineto
          0 11 3 6 5 3 5 3 7 1 9 0 20 -2 19 -4 18 -6 19 -6 16 -6 15 -5 14 -5 11 -3 9 0 3 0 3 0 2 1 rrcurveto
          11 5 9 8 6 10 6 11 3 11 0 11 0 11 -3 10 -6 11 -5 11 -9 9 -11 7 rrcurveto
          endchar
        </CharString>
        <CharString name="degree">
          -327 281 610 rmoveto
          0 23 -5 20 -11 18 -11 18 -14 15 -18 10 -19 12 -20 5 -23 0 -23 0 -20 -5 -19 -12 -18 -10 -14 -15 -11 -18 -11 -18 -5 -20 0 -23 rrcurveto
          0 -22 5 -20 11 -19 11 -19 14 -14 18 -11 19 -11 20 -5 23 0 23 0 20 5 19 11 18 11 14 14 11 19 11 19 5 20 0 22 rrcurveto
          -59 hmoveto
          0 -17 -6 -14 -12 -13 -13 -12 -14 -6 -17 0 -17 0 -14 6 -13 12 -12 13 -6 14 0 17 0 17 6 15 12 12 13 12 14 6 17 0 rrcurveto
          17 0 15 -6 12 -12 12 -12 6 -15 0 -17 rrcurveto
          endchar
        </CharString>
        <CharString name="dieresis">
          -331 316 641 rmoveto
          0 15 -5 12 -11 12 -11 10 -12 6 -15 0 -14 0 -13 -6 -11 -11 -11 -11 -6 -13 0 -14 0 -15 5 -13 12 -11 10 -11 13 -6 15 0 rrcurveto
          15 0 13 6 10 11 11 11 5 13 0 15 rrcurveto
          -207 hmoveto
          -82 callsubr
          endchar
        </CharString>
        <CharString name="divide">
          187 477 472 rmoveto
          0 16 -6 14 -11 12 -12 12 -14 6 -17 0 -17 0 -14 -6 -12 -12 -12 -12 -6 -14 0 -16 0 -17 6 -14 12 -11 12 -12 14 -6 17 0 rrcurveto
          17 0 14 6 12 12 11 11 6 14 0 17 rrcurveto
          232 -202 rmoveto
          57 -585 -57 vlineto
          353 -145 rmoveto
          0 17 -6 15 -11 11 -12 12 -14 6 -17 0 -17 0 -14 -6 -12 -12 -12 -11 -6 -15 0 -17 0 -17 6 -14 12 -11 12 -11 14 -6 17 0 rrcurveto
          17 0 14 6 12 11 11 11 6 14 0 17 rrcurveto
          endchar
        </CharString>
        <CharString name="dollar">
          -106 482 173 rmoveto
          0 41 -12 35 -26 29 -24 29 -37 22 -47 16 rrcurveto
          207 vlineto
          33 -18 20 -27 6 -35 rrcurveto
          82 hlineto
          -5 41 -15 33 -25 26 -26 25 -32 18 -38 10 rrcurveto
          61 -54 -53 vlineto
          -6 1 -6 0 -7 0 rrcurveto
          -20 52 -54 -59 hlineto
          -43 -9 -35 -18 -27 -27 -27 -27 -14 -34 0 -41 0 -45 14 -34 27 -24 28 -25 35 -19 42 -13 rrcurveto
          -219 vlineto
          -17 11 -13 15 -9 19 -9 19 -5 19 0 21 rrcurveto
          -92 hlineto
          0 -49 14 -40 27 -32 27 -32 35 -22 42 -12 rrcurveto
          -60 54 51 14 vlineto
          5 0 4 0 4 0 4 1 4 0 4 0 rrcurveto
          -52 54 61 vlineto
          45 13 35 21 26 31 27 31 13 32 0 35 rrcurveto
          -200 -101 rmoveto
          -5 0 -6 0 -9 0 -8 -1 -6 0 -5 1 rrcurveto
          0 225 39 -12 rlineto
          76 vmoveto
          -7 2 -7 2 -6 3 -7 2 -6 2 -6 2 rrcurveto
          197 vlineto
          6 0 6 0 5 -1 6 0 6 0 6 -1 rrcurveto
          0 0 1 0 rlineto
          1 -11 0 -16 1 -22 1 -21 0 -25 0 -28 rrcurveto
          -93 -50 rmoveto
          -20 11 -13 12 -8 12 -6 12 -4 14 0 17 0 18 4 16 8 15 9 15 13 11 17 9 rrcurveto
          194 -379 rmoveto
          0 -17 -4 -16 -7 -16 -7 -15 -12 -13 -17 -11 rrcurveto
          168 vlineto
          17 -11 13 -13 6 -13 8 -13 3 -15 0 -15 rrcurveto
          endchar
        </CharString>
        <CharString name="dollar.punct">
          -84 505 190 rmoveto
          0 34 -6 28 -13 22 -12 23 -16 18 -20 13 -19 14 -21 11 -24 9 -22 8 -23 7 -22 7 rrcurveto
          238 vlineto
          53 0 35 -9 15 -17 rrcurveto
          15 -106 52 0 0 158 -25 6 rlineto
          -16 4 -21 4 -26 4 -26 3 -27 2 -29 0 rrcurveto
          72 -46 -75 vlineto
          -20 -3 -21 -5 -21 -8 -21 -9 -20 -11 -20 -15 -18 -15 -16 -18 -12 -22 -12 -22 -6 -26 0 -30 0 -38 10 -31 18 -25 20 -24 23 -19 29 -14 rrcurveto
          29 -14 28 -10 29 -7 rrcurveto
          -253 vlineto
          -27 0 -27 3 -26 6 -27 6 -18 9 -9 11 rrcurveto
          -18 112 -50 0 0 -170 rlineto
          31 -9 32 -7 35 -2 34 -4 30 -2 25 -1 rrcurveto
          15 -1 0 -103 46 0 0 103 rlineto
          17 1 19 4 22 9 23 8 22 12 21 16 21 16 18 20 15 23 14 23 7 27 0 31 rrcurveto
          -244 207 rmoveto
          -14 5 -14 7 -15 9 -14 8 -12 11 -10 14 -10 14 -5 18 0 21 0 33 9 25 18 20 18 18 22 13 27 5 rrcurveto
          153 -447 rmoveto
          0 -36 -11 -27 -22 -20 -22 -18 -25 -12 -28 -5 rrcurveto
          237 vlineto
          19 -6 17 -8 17 -9 17 -9 13 -12 10 -16 10 -14 5 -20 0 -25 rrcurveto
          endchar
        </CharString>
        <CharString name="dotaccent">
          -535 112 641 rmoveto
          0 16 -6 13 -10 12 -12 10 -13 6 -15 0 -15 0 -13 -6 -12 -10 -10 -12 -6 -13 0 -16 0 -15 6 -14 10 -10 12 -12 13 -5 15 0 rrcurveto
          15 0 13 5 12 12 10 10 6 14 0 15 rrcurveto
          endchar
        </CharString>
        <CharString name="dotlessi">
          -343 269 hmoveto
          -90 callsubr
          endchar
        </CharString>
        <CharString name="e">
          -156 456 50 rmoveto
          -92 callsubr
          -100 256 rmoveto
          -91 callsubr
          endchar
        </CharString>
        <CharString name="eacute">
          -156 435 688 rmoveto
          0 10 -3 10 -7 10 -7 10 -12 5 -17 0 -13 0 -11 -2 -7 -5 -7 -5 -8 -6 -7 -9 rrcurveto
          -133 -155 57 0 152 97 rlineto
          7 5 5 5 4 6 5 7 2 8 0 9 rrcurveto
          21 -638 rmoveto
          -92 callsubr
          -100 256 rmoveto
          -91 callsubr
          endchar
        </CharString>
        <CharString name="ecircumflex">
          -156 415 551 rmoveto
          -126 169 -75 0 -125 -169 60 0 103 99 103 -99 rlineto
          101 -501 rmoveto
          -92 callsubr
          -100 256 rmoveto
          -91 callsubr
          endchar
        </CharString>
        <CharString name="edieresis">
          -156 413 641 rmoveto
          0 15 -5 12 -12 12 -10 10 -14 6 -15 0 -14 0 -13 -6 -10 -11 -12 -11 -5 -13 0 -14 0 -15 5 -13 12 -11 10 -11 13 -6 15 0 rrcurveto
          15 0 13 6 11 11 11 11 5 13 0 15 rrcurveto
          -208 hmoveto
          -76 callsubr
          251 -591 rmoveto
          -92 callsubr
          -100 256 rmoveto
          -91 callsubr
          endchar
        </CharString>
        <CharString name="egrave">
          -156 320 551 rmoveto
          -134 155 rlineto
          -7 9 -7 6 -7 5 -7 5 -10 2 -14 0 -17 0 -12 -5 -7 -10 -7 -10 -3 -10 0 -10 0 -9 2 -8 4 -7 5 -6 5 -5 7 -5 rrcurveto
          152 -97 rlineto
          193 -501 rmoveto
          -92 callsubr
          -100 256 rmoveto
          -91 callsubr
          endchar
        </CharString>
        <CharString name="eight">
          -106 473 176 rmoveto
          0 36 -11 32 -22 30 -21 28 -34 21 -47 11 33 7 25 11 18 15 17 15 13 17 7 19 7 20 4 20 0 20 0 43 -17 37 -35 31 rrcurveto
          -35 31 -51 15 -67 0 -42 0 -36 -7 -31 -14 -31 -14 -23 -19 -17 -24 -17 -24 -8 -26 0 -29 0 -35 10 -30 22 -26 20 -26 33 -18 44 -10 rrcurveto
          -48 -11 -35 -20 -23 -30 -23 -28 -11 -33 0 -35 0 -33 9 -30 18 -27 17 -27 25 -21 33 -15 33 -15 38 -8 45 0 41 0 37 8 33 15 rrcurveto
          32 15 25 21 19 27 18 27 9 30 0 33 rrcurveto
          -111 293 rmoveto
          0 -31 -10 -24 -20 -18 -21 -17 -24 -9 -29 0 -29 0 -24 9 -20 17 -20 18 -10 24 0 31 0 32 10 25 21 17 20 17 24 9 28 0 rrcurveto
          29 0 24 -8 21 -17 20 -16 10 -25 0 -34 rrcurveto
          11 -285 rmoveto
          0 -26 -6 -21 -11 -17 -11 -17 -15 -12 -18 -9 -17 -8 -19 -4 -19 0 -19 0 -18 4 -18 8 -17 8 -15 12 -10 17 -12 17 -5 21 0 26 rrcurveto
          0 36 11 27 22 19 23 19 27 9 33 0 32 0 27 -9 22 -18 22 -19 11 -27 0 -36 rrcurveto
          endchar
        </CharString>
        <CharString name="eight.punct">
          -84 522 182 rmoveto
          0 34 -8 28 -16 22 -16 23 -20 18 -22 14 -24 14 -22 11 -21 7 17 9 18 11 18 15 20 14 16 18 13 21 13 21 7 25 0 28 rrcurveto
          0 32 -9 29 -19 26 -19 27 -25 21 -33 14 -32 16 -36 7 -41 0 -43 0 -37 -8 -32 -15 -32 -15 -25 -22 -18 -28 -18 -28 -9 -33 0 -39 rrcurveto
          0 -27 6 -23 11 -20 12 -20 15 -17 18 -14 18 -13 18 -11 18 -7 -25 -9 -23 -12 -21 -14 -22 -15 -18 -18 -14 -21 -13 -22 -7 -26 0 -30 rrcurveto
          0 -37 10 -34 20 -29 19 -30 28 -24 37 -16 36 -18 42 -8 49 0 46 0 41 8 36 18 37 16 29 24 20 30 22 30 10 34 0 38 rrcurveto
          -119 324 rmoveto
          0 -31 -7 -26 -14 -22 -14 -22 -17 -18 -21 -15 -51 19 -41 21 -28 24 -30 22 -14 29 0 35 0 20 5 19 9 17 10 17 14 14 17 11 rrcurveto
          17 11 20 5 23 0 33 0 29 -11 24 -23 24 -23 12 -32 0 -41 rrcurveto
          18 -340 rmoveto
          0 -22 -6 -21 -11 -19 -11 -20 -17 -16 -20 -12 -22 -12 -24 -6 -29 0 -49 0 -36 14 -26 29 -24 29 -13 35 0 43 0 36 9 28 17 21 rrcurveto
          17 21 22 17 25 14 rrcurveto
          12 -5 rlineto
          39 -15 34 -15 28 -13 27 -13 21 -15 15 -17 15 -17 7 -22 0 -27 rrcurveto
          endchar
        </CharString>
        <CharString name="eightsuperior">
          -242 355 415 rmoveto
          0 23 -8 20 -17 20 -16 18 -25 14 -35 7 36 7 24 12 13 18 13 18 6 19 0 20 0 28 -13 24 -26 20 -26 20 -38 10 -50 0 rrcurveto
          -47 0 -37 -10 -28 -20 -28 -20 -14 -24 0 -28 0 -23 8 -20 15 -16 16 -18 25 -11 33 -6 -36 -7 -26 -14 -18 -18 -16 -20 -9 -20 0 -23 rrcurveto
          0 -33 15 -27 29 -22 29 -22 40 -11 50 0 47 0 39 11 30 22 30 22 15 27 0 33 rrcurveto
          -84 190 rmoveto
          0 -20 -7 -16 -16 -11 -14 -12 -19 -6 -21 0 -21 0 -19 6 -15 12 -15 11 -8 16 0 20 0 21 8 16 15 11 15 11 19 6 21 0 rrcurveto
          21 0 19 -5 14 -11 16 -11 7 -16 0 -22 rrcurveto
          8 -186 rmoveto
          0 -25 -9 -18 -18 -12 -18 -12 -20 -6 -21 0 -21 0 -20 6 -18 12 -18 12 -9 18 0 25 0 23 8 18 17 12 17 13 20 6 25 0 rrcurveto
          24 0 20 -6 16 -13 17 -12 8 -18 0 -23 rrcurveto
          endchar
        </CharString>
        <CharString name="eightsuperior.punct">
          -280 339 492 rmoveto
          0 21 -5 17 -10 13 -10 13 -12 11 -16 8 -14 8 -15 6 -14 5 11 5 12 7 12 9 11 9 10 10 9 14 9 12 4 15 0 17 rrcurveto
          0 29 -13 23 -26 20 -26 18 -33 10 -40 0 -41 0 -34 -10 -26 -19 -26 -19 -13 -27 0 -35 0 -24 8 -20 17 -14 16 -16 17 -10 18 -7 rrcurveto
          -24 -8 -21 -12 -20 -15 -18 -16 -10 -22 0 -27 0 -34 14 -28 28 -21 29 -22 38 -11 48 0 45 0 37 11 29 22 30 22 15 28 0 34 rrcurveto
          -77 195 rmoveto
          0 -19 -4 -16 -10 -12 -8 -14 -12 -11 -14 -9 -33 11 -27 13 -18 14 -20 14 -9 17 0 21 0 18 7 16 14 12 15 14 18 6 22 0 rrcurveto
          21 0 19 -6 15 -13 16 -13 8 -18 0 -25 rrcurveto
          11 -205 rmoveto
          0 -20 -8 -17 -16 -15 -16 -15 -22 -7 -28 0 -31 0 -24 8 -17 16 -17 16 -8 21 0 26 0 21 6 18 12 12 11 14 14 10 16 8 rrcurveto
          41 -15 32 -13 22 -12 22 -12 11 -19 0 -25 rrcurveto
          endchar
        </CharString>
        <CharString name="ellipsis">
          354 900 55 rmoveto
          0 18 -7 16 -13 13 -13 13 -16 7 -19 0 -19 0 -15 -7 -13 -13 -13 -13 -6 -16 0 -18 0 -19 6 -16 14 -12 12 -14 16 -6 19 0 rrcurveto
          19 0 16 6 13 14 13 12 6 16 0 19 rrcurveto
          -333 hmoveto
          0 18 -7 16 -12 13 -14 13 -15 7 -19 0 -19 0 -15 -7 -14 -13 -12 -13 -7 -16 0 -18 0 -19 7 -16 12 -12 14 -14 15 -6 19 0 rrcurveto
          19 0 15 6 14 14 12 12 7 16 0 19 rrcurveto
          -333 hmoveto
          0 18 -6 16 -14 13 -12 13 -16 7 -19 0 -19 0 -16 -7 -12 -13 -14 -13 -6 -16 0 -18 0 -19 6 -16 14 -12 12 -14 16 -6 19 0 rrcurveto
          19 0 16 6 12 14 14 12 6 16 0 19 rrcurveto
          endchar
        </CharString>
        <CharString name="emdash">
          354 1000 188 rmoveto
          105 -1000 -105 vlineto
          endchar
        </CharString>
        <CharString name="emptyset">
          354 885 369 rmoveto
          0 55 -11 51 -20 47 -22 47 -28 41 -36 35 rrcurveto
          66 79 -40 32 -65 -78 rlineto
          -32 24 -35 19 -40 13 -38 13 -41 7 -43 0 -53 0 -50 -10 -47 -20 -46 -20 -41 -28 -35 -35 -35 -35 -28 -41 -20 -47 -20 -46 -10 -50 0 -53 rrcurveto
          0 -55 11 -52 22 -48 22 -49 29 -42 37 -35 rrcurveto
          -82 -99 41 -30 80 97 rlineto
          32 -23 35 -17 38 -13 38 -13 40 -6 42 0 53 0 50 10 47 20 46 19 41 28 35 35 35 35 28 41 20 47 20 47 10 50 0 53 rrcurveto
          -48 -1 rmoveto
          0 -46 -9 -43 -17 -41 -17 -41 -24 -35 -32 -32 -30 -30 -36 -25 -41 -17 -41 -17 -43 -9 -46 0 -36 0 -35 6 -32 10 -34 12 -30 15 -27 19 rrcurveto
          429 513 rlineto
          31 -31 25 -36 18 -40 18 -42 9 -43 0 -47 rrcurveto
          -140 272 rmoveto
          -429 -514 rlineto
          -31 31 -25 36 -19 41 -19 42 -9 45 0 47 0 47 9 43 17 40 17 41 24 35 32 32 30 30 36 25 41 17 41 17 43 9 46 0 rrcurveto
          37 0 36 -6 32 -11 34 -11 30 -16 27 -20 rrcurveto
          endchar
        </CharString>
        <CharString name="endash">
          -41 578 187 rmoveto
          106 -552 -106 vlineto
          endchar
        </CharString>
        <CharString name="equal">
          -54 519 341 rmoveto
          105 -446 -105 vlineto
          446 -213 rmoveto
          105 -446 -105 vlineto
          endchar
        </CharString>
        <CharString name="equal.punct">
          354 800 360 rmoveto
          62 -600 -62 vlineto
          600 -182 rmoveto
          62 -600 -62 vlineto
          endchar
        </CharString>
        <CharString name="eth">
          -107 505 271 rmoveto
          0 41 -7 40 -14 38 -13 39 -17 35 -20 32 -19 31 -19 27 -18 23 -18 23 -13 16 -9 10 rrcurveto
          102 62 -23 40 -109 -65 -72 74 -123 -37 0 -28 84 -11 35 -40 -115 -69 22 -40 127 76 rlineto
          1 -1 3 -4 6 -8 7 -8 7 -10 8 -11 9 -11 8 -12 9 -12 8 -12 6 -10 5 -9 -1 0 -8 2 -14 5 -16 5 -14 2 -14 0 rrcurveto
          -46 0 -41 -10 -37 -22 -36 -20 -29 -30 -21 -38 -21 -37 -11 -44 0 -49 0 -49 10 -44 20 -39 19 -39 28 -30 35 -22 35 -22 42 -11 47 0 rrcurveto
          46 0 41 12 35 23 35 23 28 33 20 43 20 42 10 50 0 57 rrcurveto
          -97 -20 rmoveto
          0 -35 -4 -35 -10 -33 -8 -33 -15 -28 -19 -21 -20 -22 -26 -11 -33 0 -32 0 -26 10 -20 21 -20 20 -15 26 -8 32 -10 32 -4 34 0 35 rrcurveto
          0 39 6 35 10 31 12 31 16 25 24 18 22 19 30 9 35 0 11 0 11 -2 11 -3 12 -3 10 -4 8 -3 rrcurveto
          13 -5 rlineto
          13 -21 9 -25 7 -29 7 -29 3 -35 0 -40 rrcurveto
          endchar
        </CharString>
        <CharString name="exclam">
          -106 306 540 rmoveto
          0 43 -6 29 -11 16 -11 17 -17 8 -21 0 -21 0 -17 -9 -12 -18 -12 -18 -6 -28 0 -39 0 -18 1 -17 3 -17 3 -17 2 -20 3 -23 rrcurveto
          32 -229 47 0 34 248 rlineto
          3 17 2 16 2 15 1 15 1 14 0 15 rrcurveto
          11 -463 rmoveto
          -107 callsubr
          endchar
        </CharString>
        <CharString name="exclam.punct">
          -309 230 622 rmoveto
          0 20 -5 16 -9 12 -10 11 -16 6 -21 0 -21 0 -15 -6 -10 -11 -10 -12 -5 -16 0 -20 0 -3 1 -12 1 -23 2 -22 2 -28 4 -33 rrcurveto
          2 -33 4 -36 2 -36 4 -38 2 -34 4 -32 2 -33 3 -26 1 -21 rrcurveto
          3 -31 49 0 2 31 rlineto
          2 21 2 26 4 33 2 32 3 34 3 38 3 36 3 36 2 33 4 33 2 28 2 22 1 23 1 12 0 3 rrcurveto
          1 -572 rmoveto
          0 17 -6 15 -12 12 -12 11 -15 6 -17 0 -17 0 -14 -6 -12 -11 -12 -12 -6 -15 0 -17 0 -17 6 -14 12 -13 12 -12 14 -6 17 0 rrcurveto
          17 0 15 6 12 13 12 13 6 14 0 16 rrcurveto
          endchar
        </CharString>
        <CharString name="exclamdown">
          -106 315 465 rmoveto
          -107 callsubr
          -8 -465 rmoveto
          0 9 -1 11 0 10 -2 12 -2 16 -3 22 -3 23 -5 32 -5 41 -6 41 -8 55 -9 69 rrcurveto
          -47 hlineto
          -10 -70 -8 -56 -6 -41 -5 -41 -5 -32 -2 -23 -4 -22 -1 -16 -1 -12 -1 -10 0 -10 0 -8 0 -42 6 -29 11 -17 11 -16 17 -8 21 0 rrcurveto
          21 0 17 9 12 18 12 18 6 28 0 39 rrcurveto
          endchar
        </CharString>
        <CharString name="exclamdown.punct">
          -309 230 432 rmoveto
          0 17 -6 15 -12 12 -12 12 -14 6 -17 0 -17 0 -14 -6 -12 -12 -13 -12 -6 -15 0 -17 0 -17 6 -15 13 -12 12 -11 14 -6 17 0 rrcurveto
          17 0 14 6 12 12 12 12 6 14 0 17 rrcurveto
          -1 -560 rmoveto
          -36 429 -48 0 -37 -429 rlineto
          -1 -2 0 -2 0 -2 rrcurveto
          -6 vlineto
          0 -24 6 -17 11 -9 12 -10 15 -5 18 0 18 0 15 5 10 10 12 9 5 17 0 23 rrcurveto
          7 vlineto
          endchar
        </CharString>
        <CharString name="f">
          -320 389 677 rmoveto
          0 16 -7 14 -15 12 -15 12 -21 6 -28 0 -33 0 -31 -9 -31 -18 -31 -18 -25 -28 -19 -38 -13 -24 -8 -23 -6 -21 -4 -22 -3 -27 0 -33 rrcurveto
          -64 -18 0 -35 64 0 0 -359 rlineto
          0 -6 -2 -5 -4 -4 -4 -4 -5 -2 -6 -1 rrcurveto
          -49 -3 0 -39 243 0 0 39 -59 3 rlineto
          -6 0 -5 2 -4 4 -4 5 -2 5 0 6 rrcurveto
          359 124 51 -124 64 vlineto
          0 47 6 35 13 22 13 24 13 15 14 7 1 0 4 -3 10 -7 8 -7 11 -7 11 -8 11 -8 11 -7 10 -7 9 -7 5 -3 1 -1 rrcurveto
          3 1 5 2 7 3 7 3 7 6 7 8 7 7 3 11 0 13 rrcurveto
          endchar
        </CharString>
        <CharString name="fi">
          -18 545 647 rmoveto
          0 17 -6 15 -12 11 -12 12 -15 6 -17 0 -17 0 -14 -6 -12 -12 -12 -11 -6 -15 0 -17 0 -17 6 -14 12 -12 12 -13 14 -6 17 0 rrcurveto
          17 0 15 6 12 13 12 12 6 14 0 17 rrcurveto
          50 -647 rmoveto
          0 39 -50 3 rlineto
          -6 1 -5 2 -4 4 -4 4 -2 5 0 6 rrcurveto
          429 -41 vlineto
          -75 -19 -216 0 0 64 rlineto
          0 47 6 35 13 22 13 24 13 15 14 7 1 0 4 -3 10 -7 8 -7 11 -7 11 -8 11 -8 11 -7 10 -7 9 -7 5 -3 1 -1 rrcurveto
          3 1 5 2 7 3 7 3 7 6 7 8 7 7 3 11 0 13 0 16 -7 14 -15 12 -15 12 -21 6 -28 0 -33 0 -31 -9 -31 -18 rrcurveto
          -31 -18 -25 -28 -19 -38 -13 -24 -8 -23 -6 -21 -4 -22 -3 -27 0 -33 rrcurveto
          -64 -18 0 -35 64 0 0 -359 rlineto
          0 -6 -2 -5 -4 -4 -4 -4 -5 -2 -6 -1 rrcurveto
          -49 -3 0 -39 243 0 0 39 -59 3 rlineto
          -6 0 -5 2 -4 4 -4 5 -2 5 0 6 rrcurveto
          359 239 -359 vlineto
          0 -6 -2 -5 -4 -4 -4 -4 -5 -2 -6 -1 rrcurveto
          -49 -3 0 -39 rlineto
          endchar
        </CharString>
        <CharString name="figuredash">
          -84 539 188 rmoveto
          105 -515 -105 vlineto
          endchar
        </CharString>
        <CharString name="five">
          -106 461 211 rmoveto
          0 33 -7 32 -14 30 -15 30 -21 24 -28 20 -27 18 -35 10 -41 0 -27 0 -24 -4 -20 -8 -22 -9 -20 -14 -20 -21 rrcurveto
          7 170 271 0 0 95 -346 0 -12 -365 78 0 rlineto
          5 23 11 20 16 17 15 17 25 8 35 0 39 0 28 -11 17 -23 17 -23 8 -30 0 -39 0 -39 -9 -34 -19 -26 -18 -28 -29 -13 -39 0 rrcurveto
          -29 0 -22 9 -17 19 -17 19 -9 20 -3 23 rrcurveto
          -96 hlineto
          0 -11 2 -14 5 -18 5 -18 9 -18 13 -18 13 -18 19 -15 25 -13 25 -12 32 -6 40 0 53 0 44 10 33 22 33 20 25 27 15 33 rrcurveto
          15 33 8 33 0 33 rrcurveto
          endchar
        </CharString>
        <CharString name="five.punct">
          -84 517 217 rmoveto
          0 65 -20 50 -41 36 -41 36 -55 18 -69 0 -22 0 -21 -2 -20 -4 -21 -5 -17 -4 -13 -5 -13 -4 -7 -2 -1 0 rrcurveto
          190 315 85 -386 -347 vlineto
          15 5 rlineto
          11 3 13 4 16 5 17 5 17 4 18 3 19 3 17 2 16 0 49 0 40 -14 33 -26 33 -28 16 -41 0 -56 0 -23 -7 -24 -12 -26 rrcurveto
          -14 -24 -18 -21 -24 -17 -25 -17 -30 -8 -35 0 -11 0 -14 3 -16 6 -16 6 -12 7 -8 7 rrcurveto
          -38 92 rlineto
          -2 1 -4 1 -5 0 -5 2 -6 0 -5 0 -18 0 -15 -5 -12 -9 -12 -10 -6 -14 0 -18 0 -17 9 -18 17 -19 17 -18 23 -15 29 -13 rrcurveto
          29 -12 31 -6 35 0 61 0 52 10 42 20 42 20 32 28 21 34 21 36 11 40 0 45 rrcurveto
          endchar
        </CharString>
        <CharString name="fivesuperior">
          -242 346 437 rmoveto
          0 22 -5 21 -11 19 -11 19 -15 16 -22 12 -20 13 -26 6 -31 0 -21 0 -18 -3 -16 -4 -15 -6 -15 -9 -15 -14 rrcurveto
          5 110 204 0 0 62 -260 0 -9 -237 58 0 rlineto
          4 15 8 13 12 11 12 11 19 5 26 0 29 0 21 -7 12 -15 13 -15 6 -20 0 -25 0 -25 -7 -21 -14 -18 -13 -18 -22 -9 -29 0 rrcurveto
          -22 0 -17 6 -13 12 -12 13 -7 13 -2 15 rrcurveto
          -72 hlineto
          0 -7 2 -10 3 -12 4 -11 7 -12 9 -11 10 -12 14 -10 19 -8 19 -8 24 -4 30 0 40 0 32 7 26 13 24 14 19 18 11 20 rrcurveto
          12 22 6 21 0 22 rrcurveto
          endchar
        </CharString>
        <CharString name="fivesuperior.punct">
          -280 336 513 rmoveto
          0 39 -13 30 -27 22 -27 21 -35 11 -45 0 -21 0 -20 -2 -18 -6 -18 -4 -9 -3 -1 0 rrcurveto
          114 204 50 -251 -208 vlineto
          17 5 rlineto
          12 4 14 4 16 3 16 3 15 2 14 0 32 0 27 -8 20 -16 22 -17 10 -25 0 -33 0 -14 -4 -14 -8 -15 -9 -14 -12 -12 -15 -10 rrcurveto
          -16 -10 -20 -5 -23 0 -7 0 -9 1 -11 4 -10 2 -8 4 -5 4 rrcurveto
          -25 56 rlineto
          -3 1 -6 1 -9 0 -12 0 -10 -3 -8 -5 -7 -6 -4 -9 0 -11 0 -10 5 -10 12 -12 10 -10 16 -10 18 -6 20 -8 20 -3 23 0 rrcurveto
          59 0 46 13 31 25 31 25 16 34 0 41 rrcurveto
          endchar
        </CharString>
        <CharString name="fl">
          -23 596 hmoveto
          0 39 -53 3 rlineto
          -4 0 -5 2 -4 6 -6 4 -2 5 0 4 rrcurveto
          674 -41 vlineto
          -98 -36 rlineto
          -5 11 -10 8 -13 7 -13 7 -18 3 -21 0 -33 0 -31 -9 -31 -18 -31 -18 -25 -28 -19 -38 -13 -24 -8 -23 -6 -21 -4 -22 -3 -27 0 -33 rrcurveto
          -64 -18 0 -35 64 0 0 -359 rlineto
          0 -6 -2 -5 -4 -4 -4 -4 -5 -2 -6 -1 rrcurveto
          -49 -3 0 -39 243 0 0 39 -59 3 rlineto
          -6 0 -5 2 -4 4 -4 5 -2 5 0 6 rrcurveto
          359 124 51 -124 64 vlineto
          0 47 6 35 13 22 13 24 13 15 14 7 1 0 4 -3 10 -7 8 -7 11 -7 11 -8 11 -8 11 -7 10 -7 9 -7 5 -3 1 -1 rrcurveto
          1 1 0 0 1 0 rrcurveto
          1 0 1 1 rlineto
          5 1 6 3 10 5 8 5 7 8 3 11 rrcurveto
          43 -595 hlineto
          0 -4 -3 -5 -4 -4 -6 -6 -4 -2 -5 0 rrcurveto
          -53 -3 0 -39 rlineto
          endchar
        </CharString>
        <CharString name="florin">
          -218 492 625 rmoveto
          0 8 -3 9 -6 10 -6 9 -10 9 -13 6 -13 8 -18 3 -23 0 -46 0 -37 -11 -28 -22 -28 -22 -21 -29 -14 -35 -14 -35 -10 -37 -6 -39 rrcurveto
          -94 -50 87 hlineto
          -6 -41 -6 -42 -6 -42 -6 -44 -6 -40 -5 -38 -6 -38 -5 -33 -5 -27 -9 -46 -10 -41 -11 -35 -11 -35 -15 -29 -17 -21 rrcurveto
          -102 26 rlineto
          -7 -5 -6 -6 -6 -8 -4 -6 -3 -10 0 -13 0 -3 2 -6 3 -8 3 -8 7 -8 9 -7 9 -7 13 -4 17 0 25 0 23 7 24 15 rrcurveto
          22 14 22 19 20 23 19 24 17 26 14 28 14 28 10 28 7 28 3 12 4 18 4 22 4 24 4 26 5 29 5 29 4 30 5 32 rrcurveto
          5 30 4 30 4 28 5 29 3 25 3 21 rrcurveto
          120 50 -113 hlineto
          3 17 3 21 5 23 5 23 6 23 9 21 9 21 11 17 14 11 rrcurveto
          78 -63 rlineto
          19 3 15 6 11 8 12 10 6 12 0 15 rrcurveto
          endchar
        </CharString>
        <CharString name="four">
          -106 497 132 rmoveto
          89 -66 395 -140 vlineto
          -255 -365 0 -119 294 0 0 -132 101 0 0 132 rlineto
          -101 89 rmoveto
          -218 0 218 321 rlineto
          endchar
        </CharString>
        <CharString name="four.punct">
          -84 523 199 rmoveto
          68 -85 420 -70 vlineto
          -328 -419 0 -69 304 0 0 -215 94 0 0 215 rlineto
          -94 68 rmoveto
          -225 0 225 292 rlineto
          endchar
        </CharString>
        <CharString name="foursuperior">
          -242 373 386 rmoveto
          58 -50 257 -105 vlineto
          -191 -238 0 -77 221 0 0 -86 75 0 0 86 rlineto
          -75 58 rmoveto
          -164 0 164 208 rlineto
          endchar
        </CharString>
        <CharString name="foursuperior.punct">
          -280 340 502 rmoveto
          41 -55 249 -46 vlineto
          -213 -249 0 -41 198 0 0 -127 61 0 0 127 rlineto
          -61 41 rmoveto
          -147 0 147 173 rlineto
          endchar
        </CharString>
        <CharString name="fraction">
          -156 490 671 rmoveto
          -108 0 -382 -764 108 0 rlineto
          endchar
        </CharString>
        <CharString name="g">
          -122 508 415 rmoveto
          49 -135 vlineto
          -13 6 -16 6 -20 8 -21 6 -22 4 -24 0 -60 0 -49 -15 -36 -31 -38 -30 -18 -41 0 -53 0 -40 12 -33 25 -27 25 -26 29 -17 33 -7 rrcurveto
          -17 -18 -13 -17 -8 -15 -8 -16 -4 -15 0 -13 0 -11 1 -8 1 -5 2 -4 3 -7 3 -11 -36 -7 -27 -14 -17 -23 -17 -23 -9 -25 0 -29 rrcurveto
          0 -40 16 -34 34 -27 32 -27 47 -14 59 0 49 0 44 9 39 18 39 19 31 23 24 30 22 28 12 31 0 31 0 28 -9 23 -17 17 rrcurveto
          -18 17 -22 14 -28 9 -26 10 -29 7 -29 5 -29 4 -27 3 -23 2 rrcurveto
          -14 1 rlineto
          -1 1 0 2 -1 5 -1 4 0 5 0 6 0 7 1 7 1 8 2 8 3 7 4 7 rrcurveto
          10 0 10 0 rlineto
          35 0 32 6 30 13 29 13 24 18 19 23 18 23 9 29 0 33 0 19 -3 17 -5 15 -5 14 -7 13 -7 12 rrcurveto
          -68 -84 rmoveto
          0 -34 -8 -29 -16 -24 -16 -24 -23 -12 -30 0 -31 0 -24 12 -16 24 -16 24 -8 29 0 33 0 39 9 30 17 21 18 22 23 11 28 0 rrcurveto
          20 0 17 -6 14 -11 13 -12 11 -15 7 -19 7 -18 4 -20 0 -21 rrcurveto
          56 -398 rmoveto
          0 -16 -5 -17 -11 -18 -10 -18 -15 -15 -21 -13 -21 -13 -26 -6 -32 0 -30 0 -25 6 -19 13 -19 13 -15 15 -9 18 -9 18 -5 17 0 16 rrcurveto
          0 17 6 17 10 17 12 18 19 14 29 11 15 -3 19 -3 22 -3 21 -2 22 -4 21 -5 22 -5 18 -9 14 -11 15 -12 7 -16 0 -21 rrcurveto
          endchar
        </CharString>
        <CharString name="germandbls">
          -19 594 149 rmoveto
          0 29 -7 24 -14 18 -14 20 -17 16 -21 13 -21 13 -20 13 -22 11 -20 11 -18 13 -14 14 -14 13 -7 17 0 19 0 20 7 18 14 15 rrcurveto
          14 15 24 8 34 0 7 0 6 0 3 -1 3 -1 2 0 1 0 0 2 2 6 2 10 4 10 2 13 3 16 3 15 1 16 0 16 rrcurveto
          0 50 -15 40 -30 31 -29 30 -44 15 -57 0 -44 0 -38 -8 -32 -17 -31 -16 -26 -22 -21 -28 -21 -27 -15 -31 -10 -33 -9 -33 -5 -34 0 -35 rrcurveto
          -387 vlineto
          0 -4 -2 -5 -4 -5 -3 -5 -5 -3 -6 -1 rrcurveto
          -48 -5 0 -38 227 0 0 38 -51 4 rlineto
          -3 1 -4 2 -3 4 -3 4 -2 6 0 7 rrcurveto
          397 vlineto
          0 18 2 21 3 26 3 24 7 25 10 25 9 24 14 20 19 16 19 17 24 8 31 0 35 0 25 -12 16 -23 17 -24 8 -27 0 -30 rrcurveto
          0 -9 -1 -10 -2 -11 -1 -11 -2 -10 -1 -8 rrcurveto
          -2 -13 rlineto
          -35 -7 -29 -16 -22 -24 -24 -24 -11 -30 0 -36 0 -26 7 -22 14 -16 15 -18 18 -14 21 -13 21 -13 22 -12 21 -12 21 -12 18 -14 15 -14 rrcurveto
          14 -16 7 -18 0 -22 0 -22 -8 -20 -15 -17 -15 -17 -21 -9 -25 0 -14 0 -12 3 -11 6 -10 5 -8 6 -5 5 rrcurveto
          -9 87 -54 0 0 -134 20 -7 rlineto
          13 -4 16 -4 19 -4 18 -4 17 -2 15 0 32 0 29 6 27 14 26 12 21 19 15 25 16 24 8 28 0 33 rrcurveto
          endchar
        </CharString>
        <CharString name="grave">
          -296 232 551 rmoveto
          -134 155 rlineto
          -7 9 -7 6 -7 5 -7 5 -10 2 -14 0 -17 0 -12 -5 -7 -10 -7 -10 -3 -10 0 -10 0 -17 8 -13 15 -10 rrcurveto
          152 -97 rlineto
          endchar
        </CharString>
        <CharString name="gravecomb">
          -354 761 rmoveto
          -134 155 rlineto
          -7 9 -7 6 -7 5 -7 5 -10 2 -14 0 -17 0 -11 -5 -8 -10 -6 -9 -4 -10 0 -11 0 -17 8 -13 15 -10 rrcurveto
          152 -97 rlineto
          endchar
        </CharString>
        <CharString name="greater">
          187 704 272 rmoveto
          0 51 -575 236 0 -62 488 -199 -488 -198 0 -63 rlineto
          endchar
        </CharString>
        <CharString name="greaterequal">
          354 800 307 rmoveto
          0 62 -600 190 0 -62 536 -159 -536 -159 0 -62 rlineto
          600 -117 rmoveto
          55 -600 -55 vlineto
          endchar
        </CharString>
        <CharString name="guillemotleft">
          -46 554 561 rmoveto
          -81 callsubr
          -62 238 rmoveto
          -81 callsubr
          endchar
        </CharString>
        <CharString name="guillemotleft.punct">
          -205 402 64 rmoveto
          0 69 -115 107 115 106 0 71 -167 -137 0 -80 rlineto
          -30 -136 rmoveto
          0 69 -116 107 116 106 0 71 -167 -137 0 -80 rlineto
          endchar
        </CharString>
        <CharString name="guillemotright">
          -46 499 359 rmoveto
          -80 callsubr
          -73 230 rmoveto
          -80 callsubr
          endchar
        </CharString>
        <CharString name="guillemotright.punct">
          -205 404 201 rmoveto
          0 80 -167 136 0 -69 116 -107 -116 -106 0 -71 rlineto
          -30 137 rmoveto
          0 80 -167 136 0 -69 115 -107 -115 -106 0 -71 rlineto
          endchar
        </CharString>
        <CharString name="guilsinglleft">
          -247 354 561 rmoveto
          -81 callsubr
          endchar
        </CharString>
        <CharString name="guilsinglleft.punct">
          -402 204 64 rmoveto
          0 70 -116 106 116 107 0 70 -166 -137 0 -80 rlineto
          endchar
        </CharString>
        <CharString name="guilsinglright">
          -247 299 359 rmoveto
          -80 callsubr
          endchar
        </CharString>
        <CharString name="guilsinglright.punct">
          -402 206 200 rmoveto
          0 80 -166 137 0 -70 115 -107 -115 -106 0 -70 rlineto
          endchar
        </CharString>
        <CharString name="h">
          -72 551 hmoveto
          0 39 -45 3 rlineto
          -6 1 -5 2 -5 4 -4 4 -2 5 0 6 rrcurveto
          279 vlineto
          0 51 -13 38 -26 25 -26 25 -32 12 -39 0 -17 0 -19 -4 -22 -7 -20 -7 -21 -9 -19 -9 -19 -10 -16 -9 -12 -7 rrcurveto
          305 -40 vlineto
          -128 -39 0 -33 75 0 0 -601 rlineto
          0 -14 -7 -7 -14 -1 rrcurveto
          -48 -3 0 -39 225 0 0 39 -43 3 rlineto
          -13 1 -7 7 0 14 rrcurveto
          328 vlineto
          15 8 17 7 21 5 20 6 19 3 17 0 39 0 26 -9 13 -19 14 -19 7 -23 0 -29 rrcurveto
          -258 vlineto
          0 -6 -2 -5 -5 -4 -4 -4 -5 -2 -6 -1 rrcurveto
          -41 -3 0 -39 rlineto
          endchar
        </CharString>
        <CharString name="hungarumlaut">
          -220 427 688 rmoveto
          -66 callsubr
          -195 hmoveto
          -65 callsubr
          endchar
        </CharString>
        <CharString name="hyphenminus">
          -279 306 193 rmoveto
          73 -246 -73 vlineto
          endchar
        </CharString>
        <CharString name="i">
          -343 218 647 rmoveto
          0 17 -6 15 -12 11 -12 12 -14 6 -17 0 -17 0 -14 -6 -12 -12 -13 -11 -6 -15 0 -17 0 -17 6 -14 13 -12 12 -13 14 -6 17 0 rrcurveto
          17 0 15 6 11 13 12 12 6 14 0 17 rrcurveto
          51 -647 rmoveto
          -90 callsubr
          endchar
        </CharString>
        <CharString name="iacute">
          -343 270 688 rmoveto
          0 10 -3 10 -7 10 -7 10 -12 5 -17 0 -13 0 -11 -2 -7 -5 -7 -5 -8 -6 -7 -9 rrcurveto
          -133 -155 57 0 152 97 rlineto
          15 10 8 13 0 17 rrcurveto
          -1 -688 rmoveto
          -74 callsubr
          endchar
        </CharString>
        <CharString name="icircumflex">
          -343 315 551 rmoveto
          -126 169 -75 0 -126 -169 60 0 103 99 104 -99 rlineto
          15 -551 rmoveto
          0 39 -52 3 rlineto
          -6 1 -5 2 -4 4 -4 4 -2 5 0 6 rrcurveto
          429 -39 vlineto
          -122 -38 0 -34 68 0 0 -357 rlineto
          0 -14 -7 -7 -14 -1 rrcurveto
          -48 -3 0 -39 rlineto
          endchar
        </CharString>
        <CharString name="idieresis">
          -343 309 641 rmoveto
          -73 callsubr
          -207 hmoveto
          -72 callsubr
          167 -641 rmoveto
          -74 callsubr
          endchar
        </CharString>
        <CharString name="igrave">
          -343 218 551 rmoveto
          -133 155 rlineto
          -7 9 -8 6 -6 5 -8 5 -10 2 -13 0 -17 0 -12 -5 -8 -10 -6 -10 -4 -10 0 -10 0 -9 2 -8 5 -7 5 -6 5 -5 7 -5 rrcurveto
          152 -97 rlineto
          107 -551 rmoveto
          -74 callsubr
          endchar
        </CharString>
        <CharString name="infinity">
          354 832 302 rmoveto
          0 25 -7 23 -13 22 -13 20 -18 17 -21 13 -21 12 -24 6 -25 0 -25 0 -23 -6 -23 -11 -23 -11 -21 -14 -20 -17 -20 -17 -18 -16 -17 -15 rrcurveto
          -17 15 -19 16 -20 17 -20 17 -21 14 -23 11 -22 11 -23 6 -25 0 -25 0 -24 -6 -21 -12 -21 -13 -18 -17 -13 -20 -13 -22 -7 -23 0 -25 rrcurveto
          0 -24 6 -23 12 -21 12 -22 16 -18 20 -13 21 -13 23 -7 25 0 30 0 26 5 21 10 22 11 20 13 20 16 18 17 20 17 20 17 rrcurveto
          20 -17 19 -17 19 -17 19 -16 20 -13 23 -11 22 -10 26 -5 29 0 25 0 22 7 21 13 21 13 16 18 12 22 12 21 6 23 0 24 rrcurveto
          -52 -7 rmoveto
          0 -25 -10 -20 -19 -17 -19 -17 -22 -8 -23 0 -31 0 -26 9 -23 17 -23 17 -21 19 -20 20 rrcurveto
          -10 10 12 10 rlineto
          14 11 15 12 16 12 15 12 17 10 16 9 18 8 17 4 17 0 26 0 22 -9 16 -19 18 -19 8 -21 0 -25 rrcurveto
          -324 -5 rmoveto
          -20 -20 -21 -19 -23 -17 -23 -17 -26 -9 -30 0 -23 0 -22 8 -20 17 -19 17 -10 20 0 25 0 25 9 21 16 19 18 19 21 9 26 0 rrcurveto
          17 0 18 -4 16 -8 18 -9 16 -10 16 -12 16 -12 15 -12 13 -11 rrcurveto
          12 -10 rlineto
          endchar
        </CharString>
        <CharString name="integral">
          -175 434 664 rmoveto
          3 9 2 9 0 7 0 12 -5 12 -8 13 -10 12 -18 6 -27 0 -31 0 -25 -6 -21 -12 -20 -12 -16 -20 -13 -29 -13 -29 -9 -38 -7 -50 rrcurveto
          -7 -48 -4 -62 -3 -73 rrcurveto
          -4 -112 rlineto
          -2 -55 -2 -52 -2 -50 -3 -50 -2 -43 -1 -35 -2 -36 -1 -24 -1 -13 -1 -5 -2 -6 -3 -6 -3 -6 -6 -3 -8 0 -11 0 -16 9 -21 17 rrcurveto
          -9 8 -10 4 -11 0 -20 0 -13 -7 -8 -12 -6 -14 -4 -10 0 -9 0 -12 4 -12 10 -12 8 -12 18 -6 25 0 34 0 29 8 24 16 rrcurveto
          25 16 19 27 13 37 9 27 8 37 6 45 7 45 4 58 2 69 rrcurveto
          5 134 rlineto
          1 34 1 34 1 36 1 34 0 34 1 30 1 32 0 26 1 22 1 23 0 16 1 9 1 6 2 6 3 6 3 6 6 3 8 0 rrcurveto
          5 0 7 -2 8 -4 7 -4 10 -7 11 -9 9 -8 10 -4 11 0 10 0 9 3 9 5 8 5 5 6 3 6 rrcurveto
          endchar
        </CharString>
        <CharString name="j">
          -355 213 647 rmoveto
          0 17 -6 15 -11 11 -12 12 -15 6 -17 0 -17 0 -15 -6 -12 -12 -12 -11 -6 -15 0 -17 0 -17 6 -14 12 -12 13 -13 14 -6 17 0 rrcurveto
          17 0 15 6 12 13 11 12 6 14 0 17 rrcurveto
          -11 -583 rmoveto
          430 -41 vlineto
          -123 -38 0 -33 71 0 0 -444 rlineto
          0 -39 -3 -34 -7 -29 -7 -29 -12 -20 -19 -11 rrcurveto
          -97 67 rlineto
          -10 -3 -10 -7 -9 -9 -9 -9 -5 -13 0 -17 0 -19 7 -13 16 -10 14 -8 18 -5 21 0 31 0 31 8 29 15 30 15 25 24 20 31 rrcurveto
          11 18 9 21 5 23 6 23 4 24 2 25 1 24 1 22 0 20 rrcurveto
          endchar
        </CharString>
        <CharString name="k">
          -112 524 hmoveto
          0 39 -53 6 -172 250 132 141 64 7 0 39 -194 0 0 -39 41 -4 rlineto
          7 -1 3 -3 0 -7 0 -3 -1 -2 -1 -1 rrcurveto
          -147 -166 -20 0 0 481 -41 0 -128 -39 0 -33 76 0 0 -601 rlineto
          0 -14 -7 -7 -14 -1 rrcurveto
          -49 -3 0 -39 227 0 0 39 -43 3 rlineto
          -14 1 -7 7 0 14 rrcurveto
          163 56 vlineto
          125 -188 0 -39 rlineto
          endchar
        </CharString>
        <CharString name="l">
          -350 270 hmoveto
          0 39 -54 3 rlineto
          -5 0 -4 2 -5 6 -5 4 -2 5 0 4 rrcurveto
          674 -41 vlineto
          -128 -39 0 -33 76 0 0 -602 rlineto
          0 -4 -2 -5 -6 -4 -4 -6 -5 -2 -5 0 rrcurveto
          -53 -3 0 -39 rlineto
          endchar
        </CharString>
        <CharString name="less">
          187 704 37 rmoveto
          0 63 -488 198 488 199 0 62 -575 -236 0 -51 rlineto
          endchar
        </CharString>
        <CharString name="lessequal">
          354 800 117 rmoveto
          0 62 -536 159 536 159 0 62 -600 -190 0 -62 rlineto
          600 -307 rmoveto
          55 -600 -55 vlineto
          endchar
        </CharString>
        <CharString name="logicalnot">
          187 704 189 rmoveto
          231 -575 -60 515 -171 vlineto
          endchar
        </CharString>
        <CharString name="lozenge">
          -109 300 776 rmoveto
          -63 0 -202 -384 202 -392 63 0 202 392 rlineto
          -233 -336 rmoveto
          -172 336 172 327 171 -327 rlineto
          endchar
        </CharString>
        <CharString name="m">
          204 828 hmoveto
          0 39 -48 3 rlineto
          -6 1 -5 2 -4 4 -4 4 -2 5 0 6 rrcurveto
          277 vlineto
          0 23 -3 23 -8 23 -6 24 -13 20 -19 16 -18 16 -27 8 -35 0 -17 0 -20 -4 -22 -8 -22 -8 -21 -9 -21 -11 -21 -11 -17 -9 -13 -9 rrcurveto
          -9 17 -13 15 -18 15 -18 15 -23 7 -29 0 -17 0 -19 -3 -19 -7 -19 -7 -20 -8 -18 -9 -20 -9 -16 -10 -15 -9 rrcurveto
          50 -41 vlineto
          -121 -38 0 -33 69 0 0 -347 rlineto
          0 -14 -7 -7 -14 -1 rrcurveto
          -49 -3 0 -39 226 0 0 39 -42 3 rlineto
          -14 1 -7 7 0 14 rrcurveto
          328 vlineto
          11 7 16 6 21 7 21 6 19 3 19 0 32 0 23 -9 13 -18 13 -18 7 -23 0 -28 rrcurveto
          -261 vlineto
          0 -14 -7 -7 -14 -1 rrcurveto
          -42 -3 0 -39 219 0 0 39 -42 3 rlineto
          -14 1 -7 7 0 14 rrcurveto
          329 vlineto
          15 8 18 7 20 5 19 5 18 3 17 0 33 0 23 -9 14 -19 12 -19 7 -24 0 -31 rrcurveto
          -255 vlineto
          0 -14 -7 -7 -14 -1 rrcurveto
          -42 -3 0 -39 rlineto
          endchar
        </CharString>
        <CharString name="macron">
          -312 335 585 rmoveto
          64 -335 -64 vlineto
          endchar
        </CharString>
        <CharString name="minus">
          354 800 269 rmoveto
          62 -600 -62 vlineto
          endchar
        </CharString>
        <CharString name="mu">
          -100 533 108 rmoveto
          -5 -25 -6 -16 -6 -9 -6 -9 -8 -4 -11 0 -6 0 -6 1 -5 3 -5 3 -5 8 -2 12 -4 14 -1 21 0 30 rrcurveto
          345 -93 -362 vlineto
          -20 -23 -18 -17 -17 -12 -17 -11 -18 -6 -19 0 -16 0 -13 5 -12 9 -10 9 -8 11 -4 13 -6 19 -3 33 0 47 rrcurveto
          285 -93 -381 vlineto
          0 -48 -2 -38 -3 -29 -3 -28 -4 -22 -4 -17 -4 -17 -4 -14 -3 -13 -3 -13 -2 -14 0 -15 0 -16 4 -13 10 -10 8 -11 11 -5 11 0 rrcurveto
          13 0 11 5 10 11 9 11 5 13 0 17 0 13 -2 16 -4 20 -4 18 -4 21 -4 21 -4 21 -2 22 0 21 rrcurveto
          24 vlineto
          9 -14 10 -10 12 -6 12 -6 11 -4 12 -2 10 -1 8 -1 5 0 27 0 24 8 22 16 23 16 25 24 28 33 5 -37 11 -26 17 -14 rrcurveto
          17 -13 18 -7 20 0 26 0 22 9 20 19 18 19 12 30 3 43 rrcurveto
          endchar
        </CharString>
        <CharString name="multiply">
          -60 519 151 rmoveto
          -148 144 146 148 -75 75 -146 -148 -146 149 -74 -74 146 -149 -147 -145 75 -75 147 145 148 -144 rlineto
          endchar
        </CharString>
        <CharString name="multiply.punct">
          354 770 69 rmoveto
          -230 231 230 231 -39 39 -231 -232 -231 232 -39 -39 230 -231 -230 -231 39 -39 231 232 231 -232 rlineto
          endchar
        </CharString>
        <CharString name="n">
          -80 547 hmoveto
          -89 callsubr
          endchar
        </CharString>
        <CharString name="nine">
          -106 485 331 rmoveto
          0 61 -6 50 -11 40 -12 39 -16 31 -21 22 -21 22 -23 16 -27 9 -26 9 -27 5 -29 0 -39 0 -36 -7 -35 -16 -34 -14 -28 -24 -21 -32 rrcurveto
          -21 -31 -11 -41 0 -50 0 -37 6 -32 12 -25 12 -25 16 -21 19 -15 19 -15 21 -12 23 -6 23 -8 21 -3 21 0 36 0 30 6 24 12 rrcurveto
          24 12 19 14 13 15 -6 -60 -9 -45 -11 -31 -12 -31 -14 -20 -17 -11 -17 -11 -20 -5 -24 0 -20 0 -16 4 -11 9 -11 9 -8 10 -5 13 rrcurveto
          -5 13 -2 12 0 12 rrcurveto
          -106 hlineto
          0 -27 8 -25 15 -22 15 -23 22 -18 28 -13 27 -13 32 -7 37 0 46 0 41 11 35 21 35 21 28 35 20 48 20 49 10 65 0 81 rrcurveto
          -108 95 rmoveto
          0 -25 -5 -24 -10 -21 -11 -21 -14 -17 -17 -13 -17 -13 -20 -6 -21 0 -21 0 -19 6 -17 13 -17 13 -14 17 -10 21 -11 21 -5 24 0 25 rrcurveto
          0 25 5 23 11 22 10 20 14 17 17 13 17 13 19 6 21 0 21 0 20 -6 17 -13 17 -13 14 -16 11 -21 10 -21 5 -23 0 -26 rrcurveto
          endchar
        </CharString>
        <CharString name="nine.punct">
          -84 523 384 rmoveto
          0 73 -11 59 -21 44 -21 45 -29 32 -37 20 -37 20 -40 10 -45 0 -45 0 -40 -10 -37 -21 -37 -21 -29 -29 -22 -36 -21 -38 -11 -42 0 -49 rrcurveto
          0 -40 8 -35 18 -32 16 -30 25 -25 31 -18 31 -18 37 -9 42 0 28 0 28 4 28 10 27 8 28 17 28 24 -7 -52 -15 -45 -24 -38 rrcurveto
          -24 -37 -30 -29 -36 -20 -36 -21 -39 -10 -41 0 rrcurveto
          -41 -61 hlineto
          85 0 72 17 59 33 60 33 46 47 32 60 31 61 16 70 0 79 rrcurveto
          -104 20 rmoveto
          0 -7 0 -9 -1 -9 0 -9 0 -10 -1 -11 -19 -15 -22 -12 -25 -9 -25 -9 -23 -5 -21 0 -44 0 -34 14 -26 27 -24 27 -13 39 0 49 rrcurveto
          0 33 5 30 10 28 10 26 16 22 20 16 22 17 26 8 32 0 32 0 26 -10 20 -19 21 -20 15 -27 9 -35 9 -35 5 -40 0 -45 rrcurveto
          endchar
        </CharString>
        <CharString name="ninesuperior">
          -242 364 515 rmoveto
          0 53 -8 40 -15 29 -15 29 -20 20 -26 10 -24 12 -27 5 -29 0 -29 0 -27 -5 -26 -10 -26 -9 -21 -15 -16 -22 -16 -20 -8 -27 0 -32 rrcurveto
          0 -32 8 -25 15 -20 15 -18 19 -14 22 -8 23 -8 21 -4 21 0 27 0 22 4 18 8 19 7 14 9 10 10 -5 -39 -6 -29 -8 -20 rrcurveto
          -9 -20 -10 -14 -13 -6 -13 -8 -15 -3 -18 0 -23 0 -15 6 -8 12 -9 12 -4 12 0 12 rrcurveto
          -80 hlineto
          0 -27 13 -23 26 -19 25 -19 34 -9 41 0 35 0 30 7 27 13 26 14 20 23 16 31 14 32 8 42 0 53 rrcurveto
          -81 62 rmoveto
          0 -25 -8 -22 -17 -18 -17 -17 -20 -9 -24 0 -24 0 -20 9 -17 17 -17 18 -8 22 0 25 0 25 8 22 17 17 17 17 20 9 24 0 rrcurveto
          23 0 20 -9 18 -17 16 -17 9 -22 0 -25 rrcurveto
          endchar
        </CharString>
        <CharString name="ninesuperior.punct">
          -280 340 613 rmoveto
          0 44 -7 35 -13 26 -14 26 -19 19 -23 11 -24 12 -27 6 -29 0 -29 0 -27 -6 -24 -12 -24 -12 -19 -17 -14 -21 -14 -22 -7 -26 0 -29 rrcurveto
          0 -35 12 -30 24 -24 25 -23 33 -12 41 0 19 0 18 3 18 6 18 5 18 10 18 14 -6 -47 -18 -36 -31 -26 -31 -27 -35 -13 -41 0 rrcurveto
          -29 1 0 -38 rlineto
          55 0 47 10 39 20 39 20 29 28 21 35 21 36 10 42 0 47 rrcurveto
          -68 -3 rmoveto
          -8 vlineto
          0 -4 0 -3 -1 -3 -13 -9 -15 -7 -15 -6 -15 -5 -15 -3 -14 0 -29 0 -22 8 -17 17 -16 17 -8 23 0 29 0 30 8 25 15 21 rrcurveto
          15 20 23 10 31 0 31 0 22 -12 14 -26 14 -24 7 -34 0 -41 rrcurveto
          endchar
        </CharString>
        <CharString name="nonmarkingreturn">
          endchar
        </CharString>
        <CharString name="notequal">
          354 800 178 rmoveto
          62 -320 vlineto
          120 120 200 0 0 62 -138 0 70 70 -40 40 -110 -110 -382 0 0 -62 320 0 -120 -120 -200 0 0 -62 138 0 -70 -70 rlineto
          40 -40 110 110 rlineto
          endchar
        </CharString>
        <CharString name="ntilde">
          -69 459 695 rmoveto
          -40 hlineto
          -1 -12 -6 -11 -10 -10 -10 -10 -12 -5 -13 0 -22 0 -18 4 -14 8 -14 8 -13 8 -13 8 -13 8 -15 4 -17 0 -33 0 -25 -11 -19 -22 rrcurveto
          -19 -22 -13 -26 -7 -29 rrcurveto
          40 hlineto
          1 12 6 11 11 10 10 10 12 5 13 0 22 0 18 -4 13 -8 14 -8 13 -8 13 -8 13 -8 15 -4 17 0 33 0 25 11 19 22 rrcurveto
          19 22 13 26 7 29 rrcurveto
          88 -695 rmoveto
          -89 callsubr
          endchar
        </CharString>
        <CharString name="numbersign">
          97 682 421 rmoveto
          51 -140 vlineto
          76 220 -53 16 -79 -236 -146 0 77 220 -51 16 -80 -236 -179 0 0 -51 162 0 -49 -143 -158 0 0 -50 142 0 -80 -234 rlineto
          49 -17 85 251 145 0 -78 -235 50 -16 84 251 179 0 0 50 -161 0 47 143 rlineto
          -55 hmoveto
          -49 -143 -145 0 49 143 rlineto
          endchar
        </CharString>
        <CharString name="o">
          -103 510 240 rmoveto
          -88 callsubr
          -104 1 rmoveto
          -87 callsubr
          endchar
        </CharString>
        <CharString name="oacute">
          -103 452 688 rmoveto
          0 10 -3 10 -7 10 -7 10 -12 5 -17 0 -13 0 -11 -2 -7 -5 -7 -5 -8 -6 -7 -9 rrcurveto
          -133 -155 57 0 152 97 rlineto
          15 9 8 14 0 17 rrcurveto
          58 -448 rmoveto
          -88 callsubr
          -104 1 rmoveto
          -87 callsubr
          endchar
        </CharString>
        <CharString name="ocircumflex">
          -103 436 551 rmoveto
          -71 callsubr
          134 -311 rmoveto
          -88 callsubr
          -104 1 rmoveto
          -87 callsubr
          endchar
        </CharString>
        <CharString name="odieresis">
          -103 433 641 rmoveto
          -73 callsubr
          -207 hmoveto
          -72 callsubr
          284 -401 rmoveto
          -88 callsubr
          -104 1 rmoveto
          -87 callsubr
          endchar
        </CharString>
        <CharString name="oe">
          173 786 289 rmoveto
          0 60 -15 49 -29 38 -30 39 -44 19 -58 0 -34 0 -32 -9 -30 -17 -30 -17 -24 -23 -17 -29 -13 23 -21 22 -31 20 -30 20 -38 10 -47 0 rrcurveto
          -48 0 -41 -12 -34 -22 -35 -24 -26 -30 -18 -38 -18 -39 -9 -42 0 -46 0 -45 9 -42 18 -39 18 -39 26 -30 33 -24 34 -22 41 -12 48 0 rrcurveto
          29 0 26 5 22 9 21 10 19 13 16 15 16 15 14 16 13 16 11 -16 14 -15 16 -16 16 -14 19 -13 23 -10 22 -10 26 -5 30 0 rrcurveto
          36 0 32 7 29 13 29 13 24 14 21 15 rrcurveto
          61 vlineto
          -17 -13 -21 -13 -23 -12 -23 -12 -26 -6 -28 0 -41 0 -32 10 -24 21 -23 21 -17 26 -10 31 -11 31 -5 33 0 33 rrcurveto
          301 hlineto
          1 5 0 5 0 5 rrcurveto
          -101 30 rmoveto
          -196 hlineto
          3 39 12 33 19 27 19 27 26 14 32 0 28 0 21 -12 15 -22 14 -24 7 -27 0 -33 rrcurveto
          -296 -89 rmoveto
          0 -35 -5 -34 -8 -31 -10 -31 -13 -26 -19 -19 -19 -19 -23 -10 -28 0 -28 0 -23 10 -19 20 -19 19 -14 26 -9 31 -9 32 -5 35 0 37 rrcurveto
          0 35 4 33 10 31 8 31 14 24 19 20 19 18 23 10 29 0 29 0 23 -9 18 -19 19 -19 13 -25 10 -31 8 -31 5 -35 0 -38 rrcurveto
          endchar
        </CharString>
        <CharString name="ogonek">
          -460 162 -123 rmoveto
          -22 -13 rlineto
          -6 -4 -6 -1 -7 0 -18 0 -14 4 -11 8 -10 8 -5 12 0 17 0 21 6 19 13 16 12 16 12 12 11 9 rrcurveto
          -47 hlineto
          -9 -6 -11 -9 -10 -12 -12 -11 -9 -14 -7 -15 -8 -16 -4 -17 0 -19 0 -24 9 -18 18 -12 18 -13 24 -6 31 0 10 0 12 2 13 5 rrcurveto
          13 5 12 4 10 5 rrcurveto
          16 7 rlineto
          endchar
        </CharString>
        <CharString name="ograve">
          -103 330 551 rmoveto
          -75 callsubr
          237 -311 rmoveto
          -88 callsubr
          -104 1 rmoveto
          -87 callsubr
          endchar
        </CharString>
        <CharString name="one">
          -106 359 hmoveto
          616 -105 vlineto
          -4 -5 -8 -8 -10 -9 -12 -9 -12 -10 -14 -11 -14 -10 -14 -10 -14 -8 -14 -10 -13 -6 -11 -5 rrcurveto
          -96 vlineto
          13 4 15 6 18 8 19 8 18 9 17 10 17 9 15 10 11 11 rrcurveto
          -494 vlineto
          endchar
        </CharString>
        <CharString name="one.punct">
          -84 446 hmoveto
          0 45 -94 4 rlineto
          -6 0 -5 2 -5 5 -4 4 -2 5 0 6 rrcurveto
          616 -38 vlineto
          -216 -67 0 -45 155 27 0 -531 rlineto
          0 -6 -2 -5 -5 -4 -4 -5 -5 -2 -6 0 rrcurveto
          -101 -4 0 -45 rlineto
          endchar
        </CharString>
        <CharString name="onehalf">
          229 830 hmoveto
          103 -33 vlineto
          -11 -52 -192 0 rlineto
          39 29 37 27 33 27 33 26 27 26 21 27 21 27 10 27 0 28 0 35 -12 28 -25 21 -25 21 -33 10 -42 0 -25 0 -24 -4 -21 -7 rrcurveto
          -21 -7 -17 -11 -14 -13 -12 -13 -7 -15 0 -17 0 -12 4 -9 8 -6 8 -5 9 -3 10 0 10 0 8 2 6 3 rrcurveto
          8 5 0 66 0 0 1 1 rlineto
          3 1 6 3 9 3 9 3 11 2 14 0 25 0 21 -7 15 -15 16 -15 8 -21 0 -29 0 -27 -9 -25 -17 -25 -17 -25 -25 -25 -31 -26 rrcurveto
          -31 -26 -37 -29 -41 -32 rrcurveto
          -13 -10 0 -40 rlineto
          158 698 rmoveto
          -63 0 -444 -698 63 0 rlineto
          48 295 rmoveto
          0 27 -61 2 rlineto
          -10 1 -5 5 0 7 rrcurveto
          368 -24 vlineto
          -141 -40 0 -27 101 16 0 -317 rlineto
          0 -8 -5 -4 -9 -1 rrcurveto
          -66 -2 0 -27 rlineto
          endchar
        </CharString>
        <CharString name="onequarter">
          229 827 114 rmoveto
          -79 callsubr
          -63 584 rmoveto
          -63 0 -444 -698 64 0 rlineto
          42 295 rmoveto
          0 27 -61 2 rlineto
          -4 1 -4 1 -2 2 -4 3 -1 3 0 3 rrcurveto
          368 -24 vlineto
          -141 -40 0 -27 101 16 0 -317 rlineto
          0 -8 -5 -4 -9 -1 rrcurveto
          -66 -2 0 -27 rlineto
          628 -140 rmoveto
          -156 0 156 181 rlineto
          endchar
        </CharString>
        <CharString name="onesuperior">
          -242 269 300 rmoveto
          401 -79 vlineto
          -3 -5 -8 -6 -13 -10 -13 -8 -13 -9 -15 -9 -15 -9 -13 -6 -11 -4 rrcurveto
          -62 vlineto
          15 4 18 7 21 8 22 10 18 9 13 10 rrcurveto
          -321 vlineto
          endchar
        </CharString>
        <CharString name="onesuperior.punct">
          -280 290 383 rmoveto
          27 -61 vlineto
          -4 1 -3 2 -4 3 -2 3 -2 3 0 3 rrcurveto
          367 -24 vlineto
          -141 -40 0 -26 101 16 0 -317 rlineto
          -9 -5 -4 -9 vhcurveto
          -66 -29 hlineto
          endchar
        </CharString>
        <CharString name="ordfeminine">
          -306 325 383 rmoveto
          0 23 -32 2 rlineto
          -9 1 -4 5 0 7 rrcurveto
          168 vlineto
          0 27 -7 21 -14 17 -14 17 -27 8 -41 0 -21 0 -21 -2 -21 -5 -21 -5 -17 -7 -14 -11 -13 -11 -7 -13 0 -17 0 -7 2 -5 6 -2 rrcurveto
          4 -2 6 -1 6 0 rrcurveto
          47 52 hlineto
          3 1 6 2 8 2 9 2 10 1 11 0 rrcurveto
          40 20 -20 -39 hvcurveto
          -26 vlineto
          -43 -9 -34 -8 -25 -9 -26 -8 -20 -8 -12 -9 -14 -9 -8 -9 -4 -9 -5 -9 -2 -11 0 -11 0 -26 8 -20 17 -14 17 -14 19 -7 23 0 rrcurveto
          17 0 17 4 17 6 17 8 13 6 12 8 rrcurveto
          16 10 9 -35 rlineto
          -9 56 rmoveto
          -18 -11 rlineto
          -5 -2 -8 -3 -13 -5 -12 -5 -12 -2 -12 0 -15 0 -12 5 -9 10 -9 11 -4 11 0 13 0 10 3 9 4 10 6 8 11 10 19 8 rrcurveto
          18 10 29 8 39 9 rrcurveto
          102 -239 rmoveto
          30 -291 -30 vlineto
          endchar
        </CharString>
        <CharString name="ordmasculine">
          -289 334 527 rmoveto
          0 28 -6 25 -12 24 -12 22 -18 19 -22 13 -24 14 -27 7 -32 0 -49 0 -38 -15 -28 -29 -28 -29 -14 -36 0 -43 0 -43 14 -36 28 -29 rrcurveto
          28 -29 38 -14 47 0 47 0 38 15 28 29 28 29 14 36 0 42 rrcurveto
          -2 -223 rmoveto
          30 -305 -30 vlineto
          240 223 rmoveto
          0 -33 -7 -28 -14 -26 -15 -24 -22 -13 -30 0 -19 0 -16 6 -13 11 -13 12 -9 16 -7 18 -6 20 -3 20 0 21 0 33 7 29 14 25 rrcurveto
          14 25 22 13 30 0 29 0 22 -13 15 -25 14 -25 7 -29 0 -33 rrcurveto
          endchar
        </CharString>
        <CharString name="oslash">
          -103 510 240 rmoveto
          0 45 -9 42 -17 37 -17 37 -25 30 -33 23 rrcurveto
          50 87 -36 20 -50 -87 rlineto
          -14 7 -15 5 -17 3 -17 3 -17 2 -19 0 -49 0 -43 -11 -36 -23 -36 -22 -28 -30 -19 -39 -19 -39 -10 -43 0 -47 0 -43 8 -39 15 -34 rrcurveto
          15 -36 22 -28 29 -23 rrcurveto
          -56 -98 35 -21 55 97 rlineto
          17 -9 18 -6 18 -5 20 -5 20 -2 21 0 49 0 42 11 36 23 35 22 28 30 19 38 20 38 10 43 0 47 rrcurveto
          -166 183 rmoveto
          -179 -313 rlineto
          -17 37 -9 44 0 50 0 37 5 34 9 32 9 31 15 26 20 19 20 19 25 10 31 0 14 0 13 -2 12 -5 12 -5 11 -6 9 -8 rrcurveto
          62 -182 rmoveto
          0 -37 -5 -34 -9 -31 -10 -31 -15 -26 -19 -20 -20 -19 -25 -10 -31 0 -17 0 -15 3 -14 8 -13 6 -12 10 -11 11 rrcurveto
          182 318 rlineto
          11 -19 9 -23 6 -25 5 -26 3 -27 0 -28 rrcurveto
          endchar
        </CharString>
        <CharString name="otilde">
          -103 451 695 rmoveto
          -40 hlineto
          -1 -12 -6 -11 -10 -10 -9 -10 -12 -5 -14 0 -21 0 -18 4 -14 8 -14 8 -14 8 -12 8 -14 8 -15 4 -17 0 -33 0 -25 -11 -19 -22 rrcurveto
          -19 -22 -13 -26 -7 -29 rrcurveto
          40 hlineto
          1 12 6 11 11 10 10 10 12 5 13 0 21 0 18 -4 14 -8 14 -8 13 -8 13 -8 13 -8 15 -4 17 0 33 0 25 11 19 22 rrcurveto
          19 22 13 26 7 29 rrcurveto
          59 -455 rmoveto
          -88 callsubr
          -104 1 rmoveto
          -87 callsubr
          endchar
        </CharString>
        <CharString name="p">
          -87 525 248 rmoveto
          0 50 -9 43 -18 37 -17 37 -23 28 -29 21 -29 20 -31 10 -35 0 -19 0 -19 -3 -18 -6 -19 -6 -16 -7 -14 -8 -14 -9 -11 -7 -8 -6 rrcurveto
          -13 -10 0 50 -39 0 -123 -38 0 -33 69 0 0 -563 rlineto
          0 -13 -7 -7 -14 -1 rrcurveto
          -48 -6 0 -39 243 0 0 39 -59 6 rlineto
          -6 1 -5 2 -4 4 -5 3 -2 5 0 6 rrcurveto
          0 149 15 -2 rlineto
          9 -1 12 -2 14 -2 14 -1 13 -1 12 0 53 0 45 11 38 21 37 21 29 31 20 38 21 40 10 45 0 53 rrcurveto
          -100 -14 rmoveto
          -86 callsubr
          endchar
        </CharString>
        <CharString name="paragraph">
          -86 500 683 rmoveto
          39 -250 vlineto
          -19 0 -21 -3 -22 -5 -22 -5 -21 -9 -19 -14 -19 -12 -16 -18 -13 -22 -12 -21 -6 -27 0 -33 0 -33 6 -27 12 -22 13 -22 16 -17 19 -14 rrcurveto
          19 -12 21 -10 22 -6 22 -5 21 -3 19 0 rrcurveto
          -382 50 683 90 -683 50 683 vlineto
          endchar
        </CharString>
        <CharString name="parenleft">
          -314 272 -4 rmoveto
          0 9 -4 8 -7 9 -7 9 -9 11 -11 12 -10 14 -10 17 -10 23 -11 23 -9 29 -7 36 -7 36 -4 45 0 55 0 55 4 45 7 37 rrcurveto
          7 37 9 30 11 22 10 24 10 18 10 14 11 13 9 11 7 8 7 9 4 8 0 7 0 7 -2 4 -3 3 -3 2 -4 1 -4 0 rrcurveto
          -11 0 -14 -7 -17 -12 -17 -14 -17 -18 -18 -22 -18 -24 -17 -26 -15 -30 -15 -30 -13 -32 -10 -34 -9 -34 -5 -35 0 -35 0 -35 5 -35 10 -34 rrcurveto
          10 -34 13 -32 16 -30 15 -31 17 -26 18 -23 17 -23 17 -18 16 -13 16 -13 13 -7 10 0 13 0 6 5 0 11 rrcurveto
          endchar
        </CharString>
        <CharString name="parenright">
          -314 272 333 rmoveto
          0 35 -5 35 -10 34 -10 34 -13 32 -16 31 -15 30 -17 26 -18 23 -17 23 -17 18 -16 13 -16 13 -13 7 -10 0 -13 0 -6 -5 0 -11 rrcurveto
          0 -9 4 -8 7 -9 7 -9 9 -10 11 -14 10 -12 10 -18 11 -23 11 -23 8 -29 8 -36 6 -36 4 -45 0 -55 0 -55 -4 -45 -6 -37 rrcurveto
          -8 -37 -8 -29 -11 -24 -11 -22 -10 -19 -10 -13 -11 -14 -9 -11 -7 -9 -7 -8 -4 -8 0 -7 0 -7 2 -4 3 -2 3 -3 4 -1 4 0 rrcurveto
          11 0 14 6 17 14 17 12 17 18 18 24 18 22 17 27 15 30 15 30 13 32 10 34 9 34 5 35 0 35 rrcurveto
          endchar
        </CharString>
        <CharString name="partialdiff">
          -130 482 410 rmoveto
          0 13 -2 18 -4 23 -4 23 -7 26 -11 27 -10 28 -14 26 -19 25 -19 25 -24 20 -30 16 -29 16 -36 8 -43 0 -26 0 -25 -3 -23 -7 rrcurveto
          -24 -7 -19 -6 -15 -7 rrcurveto
          41 -52 rlineto
          18 8 14 6 11 5 11 5 10 3 11 3 11 3 14 1 17 0 25 0 23 -8 22 -17 23 -17 18 -22 14 -27 14 -27 7 -31 0 -33 rrcurveto
          -4 vlineto
          -1 -20 -1 -20 0 -20 -2 -19 -2 -21 -5 -21 -23 18 -20 14 -16 11 -15 10 -15 7 -15 5 -15 4 -17 2 -21 0 -16 0 -19 -4 -23 -7 rrcurveto
          -23 -7 -22 -13 -23 -19 -23 -18 -19 -26 -15 -33 -15 -33 -8 -44 0 -53 0 -28 8 -28 16 -29 16 -28 23 -24 29 -19 30 -19 35 -10 41 0 rrcurveto
          38 0 33 8 27 18 28 16 23 23 19 27 19 28 15 30 12 33 11 33 9 32 6 33 7 33 4 29 2 27 2 27 1 20 0 15 rrcurveto
          -99 -98 rmoveto
          -4 -35 -6 -36 -9 -36 -8 -36 -11 -33 -13 -30 -13 -29 -17 -24 -18 -17 -20 -18 -22 -9 -26 0 -23 0 -18 5 -13 12 -13 10 -10 14 -7 16 rrcurveto
          -6 16 -4 16 -2 16 -2 17 -1 13 0 10 0 23 3 24 6 26 7 26 9 25 12 22 13 24 15 18 20 15 18 15 23 7 26 0 rrcurveto
          21 0 18 -4 14 -8 14 -8 12 -9 10 -10 9 -11 9 -9 7 -8 rrcurveto
          endchar
        </CharString>
        <CharString name="percent">
          143 746 160 rmoveto
          -106 callsubr
          -117 466 rmoveto
          -99 0 -362 -638 99 0 rlineto
          79 466 rmoveto
          -106 callsubr
          317 -294 rmoveto
          0 -29 -5 -23 -9 -18 -9 -18 -19 -9 -27 0 -27 0 -19 9 -9 18 -9 18 -5 23 0 29 0 30 5 24 10 18 10 17 18 9 26 0 rrcurveto
          27 0 19 -9 9 -18 9 -18 5 -24 0 -29 rrcurveto
          -400 294 rmoveto
          0 -29 -5 -23 -9 -18 -9 -18 -19 -9 -27 0 -27 0 -19 9 -9 18 -9 18 -5 23 0 29 0 30 5 24 10 18 10 17 18 9 26 0 rrcurveto
          27 0 18 -9 9 -18 10 -18 5 -24 0 -29 rrcurveto
          endchar
        </CharString>
        <CharString name="percent.punct">
          213 828 194 rmoveto
          0 callsubr
          -154 477 rmoveto
          -62 0 -425 -671 63 0 rlineto
          89 477 rmoveto
          1 callsubr
          412 -283 rmoveto
          0 -53 -6 -42 -11 -31 -12 -31 -20 -16 -27 0 -27 0 -20 16 -12 31 -14 31 -6 42 0 53 0 52 6 42 14 31 12 31 20 16 27 0 rrcurveto
          27 0 19 -16 12 -30 12 -32 6 -41 0 -53 rrcurveto
          -489 283 rmoveto
          2 callsubr
          endchar
        </CharString>
        <CharString name="period">
          -328 213 77 rmoveto
          0 21 -7 18 -16 16 -14 14 -19 8 -21 0 -21 0 -19 -8 -14 -14 -16 -16 -7 -18 0 -21 0 -21 7 -18 15 -16 15 -14 18 -8 22 0 rrcurveto
          21 0 19 8 14 14 16 16 7 18 0 21 rrcurveto
          endchar
        </CharString>
        <CharString name="periodcentered">
          -366 208 335 rmoveto
          0 19 -7 16 -13 13 -14 13 -16 7 -18 0 -19 0 -15 -7 -14 -13 -12 -13 -7 -16 0 -19 0 -19 7 -16 12 -12 14 -14 15 -6 19 0 rrcurveto
          18 0 16 6 14 14 13 12 7 16 0 19 rrcurveto
          endchar
        </CharString>
        <CharString name="perthousand">
          488 1103 194 rmoveto
          0 40 -6 36 -11 32 -11 31 -17 25 -22 18 -23 19 -28 9 -35 0 -34 0 -28 -9 -24 -19 -22 -18 -18 -25 -11 -31 -11 -32 -6 -36 0 -40 rrcurveto
          0 -39 6 -36 11 -31 11 -32 18 -25 22 -19 24 -19 28 -9 34 0 35 0 28 9 23 19 22 19 17 25 11 32 11 31 6 36 0 39 rrcurveto
          -353 hmoveto
          0 callsubr
          -115 477 rmoveto
          -62 0 -425 -671 63 0 rlineto
          128 477 rmoveto
          1 callsubr
          687 -283 rmoveto
          0 -53 -6 -42 -12 -31 -11 -31 -20 -16 -27 0 -27 0 -19 16 -14 31 -12 31 -7 42 0 53 0 52 6 42 13 31 13 31 20 16 27 0 rrcurveto
          27 0 20 -16 11 -30 12 -32 6 -41 0 -53 rrcurveto
          -353 hmoveto
          0 -53 -6 -42 -11 -31 -12 -31 -20 -16 -27 0 -27 0 -20 16 -12 31 -14 31 -6 42 0 53 0 52 6 42 13 31 13 31 20 16 27 0 rrcurveto
          27 0 20 -16 12 -30 11 -32 6 -41 0 -53 rrcurveto
          -411 283 rmoveto
          2 callsubr
          endchar
        </CharString>
        <CharString name="pi">
          -52 536 152 rmoveto
          0 -42 -6 -31 -14 -21 -12 -20 -14 -10 -15 0 -17 0 -10 6 -4 12 -4 12 -2 17 0 21 rrcurveto
          0 18 0 21 0 266 61 0 rlineto
          28 0 19 9 12 18 10 17 6 21 0 25 rrcurveto
          -25 hlineto
          -2 -7 -6 -6 -9 -6 -9 -4 -11 -3 -11 0 rrcurveto
          -360 hlineto
          -28 0 -23 -7 -16 -14 -18 -14 -12 -16 -8 -20 -7 -18 -4 -17 0 -15 rrcurveto
          29 0 8 22 rlineto
          2 10 7 8 11 6 10 8 16 3 22 0 rrcurveto
          42 -126 hlineto
          0 -47 -3 -37 -5 -29 -6 -28 -7 -21 -9 -15 -8 -14 -9 -10 -9 -4 -9 -6 -9 -2 -7 0 -11 0 -10 6 -6 12 -8 13 -3 16 0 19 rrcurveto
          -33 hlineto
          0 -23 2 -22 4 -21 3 -22 7 -18 10 -14 11 -13 15 -7 19 0 27 0 22 8 20 16 18 17 15 22 9 27 10 28 5 31 0 35 rrcurveto
          229 136 -283 vlineto
          0 -19 2 -19 5 -20 5 -21 10 -17 15 -14 15 -13 24 -7 32 0 31 0 26 14 22 27 23 27 11 41 0 55 rrcurveto
          endchar
        </CharString>
        <CharString name="plus">
          -60 528 234 rmoveto
          106 -183 179 -105 -179 -179 -106 179 -180 105 180 vlineto
          endchar
        </CharString>
        <CharString name="plus.punct">
          354 800 269 rmoveto
          62 -269 269 -62 -269 -269 -62 269 -269 62 269 vlineto
          endchar
        </CharString>
        <CharString name="plusminus">
          187 709 351 rmoveto
          57 -263 168 -58 -168 -264 -57 264 -168 58 168 vlineto
          263 -331 rmoveto
          57 -585 -57 vlineto
          endchar
        </CharString>
        <CharString name="product">
          99 730 hmoveto
          15 vlineto
          -15 0 -15 2 -16 3 -16 4 -14 7 -10 9 -12 9 -5 14 0 17 rrcurveto
          515 vlineto
          0 29 9 20 20 12 18 11 25 6 31 0 rrcurveto
          15 -715 -15 vlineto
          31 0 25 -6 19 -12 18 -12 9 -20 0 -28 rrcurveto
          -515 vlineto
          0 -18 -5 -14 -12 -10 -10 -9 -14 -7 -16 -2 -15 -4 -15 -1 -15 0 rrcurveto
          -15 307 15 vlineto
          -15 0 -15 2 -16 3 -15 3 -13 7 -12 9 -10 9 -6 14 0 18 rrcurveto
          515 vlineto
          0 19 5 14 9 9 10 9 12 5 16 3 14 2 16 1 15 0 rrcurveto
          111 hlineto
          16 0 15 -1 15 -2 15 -3 12 -5 9 -10 10 -8 5 -14 0 -19 rrcurveto
          -515 vlineto
          0 -17 -5 -14 -12 -9 -10 -9 -14 -7 -16 -4 -15 -3 -15 -2 -15 0 rrcurveto
          -15 vlineto
          endchar
        </CharString>
        <CharString name="q">
          -98 534 -218 rmoveto
          0 38 -48 5 rlineto
          -6 1 -5 3 -4 3 -4 3 -2 5 0 6 rrcurveto
          632 vlineto
          -21 5 -24 3 -28 4 -28 2 -23 2 -18 0 -91 0 -70 -24 -52 -47 -50 -47 -26 -65 0 -82 0 -44 8 -40 16 -37 16 -37 23 -29 29 -22 rrcurveto
          29 -21 36 -11 41 0 23 0 24 4 26 8 26 9 22 9 19 9 rrcurveto
          -181 vlineto
          0 -6 -2 -5 -4 -3 -4 -4 -5 -2 -6 -1 rrcurveto
          -59 -5 0 -38 rlineto
          80 279 rmoveto
          -11 -3 -14 -4 -17 -2 -17 -4 -14 -1 -13 0 -36 0 -29 9 -22 19 -22 19 -16 24 -11 30 -10 31 -5 32 0 34 0 61 14 50 29 36 rrcurveto
          29 38 41 18 55 0 13 0 13 -1 11 -3 12 -2 11 -2 9 -2 rrcurveto
          endchar
        </CharString>
        <CharString name="question">
          -61 406 500 rmoveto
          0 26 -6 24 -14 24 -12 22 -20 20 -24 14 -26 16 -30 7 -36 0 -36 0 -29 -5 -23 -11 -22 -11 -16 -12 -10 -15 -11 -15 -5 -14 0 -13 rrcurveto
          0 -7 2 -9 4 -9 5 -10 6 -8 7 -7 rrcurveto
          36 hlineto
          3 9 7 9 8 9 10 9 14 4 19 0 21 0 16 -6 11 -11 11 -11 6 -15 0 -17 0 -11 -4 -13 -8 -15 -8 -15 -9 -16 -11 -17 rrcurveto
          -10 -17 -9 -18 -8 -19 -8 -19 -4 -19 0 -20 0 -19 2 -17 3 -13 4 -13 5 -13 6 -12 rrcurveto
          61 -1 -2 10 rlineto
          -1 7 -1 5 0 3 0 19 4 17 10 17 8 17 12 16 14 16 13 16 14 17 13 17 13 17 12 19 9 20 9 20 5 22 0 25 rrcurveto
          -89 -423 rmoveto
          -107 callsubr
          endchar
        </CharString>
</ttFont>
